<mxfile host="app.diagrams.net" modified="2020-10-28T15:19:36.357Z" agent="5.0 (Macintosh; Intel Mac OS X 10_15_6) AppleWebKit/605.1.15 (KHTML, like Gecko) Version/14.0 Safari/605.1.15" etag="68cm3_Mzbi0XrmN2O_P2" version="13.8.1" type="github">
  <diagram id="MDi3wq796rZD5ZQ1XzJ9" name="Page-1">
    <mxGraphModel dx="945" dy="567" grid="1" gridSize="10" guides="1" tooltips="1" connect="1" arrows="1" fold="1" page="1" pageScale="1" pageWidth="850" pageHeight="1100" math="0" shadow="0">
      <root>
        <mxCell id="0" />
        <mxCell id="1" parent="0" />
        <mxCell id="UdND_uZvlZ35fAXCYIMh-1" value="" style="rounded=0;whiteSpace=wrap;html=1;" parent="1" vertex="1">
          <mxGeometry x="270" y="260" width="260" height="370" as="geometry" />
        </mxCell>
        <mxCell id="UdND_uZvlZ35fAXCYIMh-5" value="" style="rounded=0;whiteSpace=wrap;html=1;" parent="1" vertex="1">
          <mxGeometry x="270" y="260" width="260" height="30" as="geometry" />
        </mxCell>
        <mxCell id="UdND_uZvlZ35fAXCYIMh-4" value="" style="points=[[0,0.58,0],[0.09,0.58,0],[0.36,0.39,0],[0.64,0.195,0],[0.91,0,0],[1,0,0],[1,0.25,0],[1,0.5,0],[1,0.75,0],[1,1,0],[0,1,0],[0.09,1,0],[0.36,1,0],[0.64,1,0],[0.91,1,0],[0,0.79,0]];verticalLabelPosition=bottom;html=1;verticalAlign=top;aspect=fixed;align=center;pointerEvents=1;shape=mxgraph.cisco19.wifi_indicator;fillColor=#005073;strokeColor=none;" parent="1" vertex="1">
          <mxGeometry x="280" y="265" width="20" height="20" as="geometry" />
        </mxCell>
        <mxCell id="UdND_uZvlZ35fAXCYIMh-8" value="" style="rounded=1;whiteSpace=wrap;html=1;" parent="1" vertex="1">
          <mxGeometry x="490" y="270" width="30" height="10" as="geometry" />
        </mxCell>
        <mxCell id="UdND_uZvlZ35fAXCYIMh-9" value="" style="pointerEvents=1;shadow=0;dashed=0;html=1;strokeColor=none;fillColor=#434445;aspect=fixed;labelPosition=center;verticalLabelPosition=bottom;verticalAlign=top;align=center;outlineConnect=0;shape=mxgraph.vvd.wi_fi;" parent="1" vertex="1">
          <mxGeometry x="460" y="265" width="20" height="20" as="geometry" />
        </mxCell>
        <mxCell id="UdND_uZvlZ35fAXCYIMh-11" value="" style="rounded=0;whiteSpace=wrap;html=1;" parent="1" vertex="1">
          <mxGeometry x="270" y="600" width="260" height="30" as="geometry" />
        </mxCell>
        <mxCell id="UdND_uZvlZ35fAXCYIMh-12" value="" style="ellipse;whiteSpace=wrap;html=1;aspect=fixed;" parent="1" vertex="1">
          <mxGeometry x="385" y="600" width="30" height="30" as="geometry" />
        </mxCell>
        <mxCell id="UdND_uZvlZ35fAXCYIMh-13" value="" style="rounded=0;whiteSpace=wrap;html=1;" parent="1" vertex="1">
          <mxGeometry x="270" y="550" width="260" height="50" as="geometry" />
        </mxCell>
        <mxCell id="UdND_uZvlZ35fAXCYIMh-14" value="" style="pointerEvents=1;shadow=0;dashed=0;html=1;strokeColor=none;fillColor=#505050;labelPosition=center;verticalLabelPosition=bottom;verticalAlign=top;outlineConnect=0;align=center;shape=mxgraph.office.concepts.home;" parent="1" vertex="1">
          <mxGeometry x="280" y="556" width="39" height="38" as="geometry" />
        </mxCell>
        <mxCell id="UdND_uZvlZ35fAXCYIMh-16" value="" style="shape=image;html=1;verticalAlign=top;verticalLabelPosition=bottom;labelBackgroundColor=#ffffff;imageAspect=0;aspect=fixed;image=https://cdn1.iconfinder.com/data/icons/common-version-3-0/1024/calendar-128.png" parent="1" vertex="1">
          <mxGeometry x="347" y="556" width="38" height="38" as="geometry" />
        </mxCell>
        <mxCell id="UdND_uZvlZ35fAXCYIMh-17" value="" style="html=1;verticalLabelPosition=bottom;labelBackgroundColor=#ffffff;verticalAlign=top;shadow=0;dashed=0;strokeWidth=2;shape=mxgraph.ios7.misc.star;strokeColor=none;fillColor=#333333;" parent="1" vertex="1">
          <mxGeometry x="430" y="560" width="30" height="30" as="geometry" />
        </mxCell>
        <mxCell id="UdND_uZvlZ35fAXCYIMh-18" value="" style="pointerEvents=1;shadow=0;dashed=0;html=1;strokeColor=none;labelPosition=center;verticalLabelPosition=bottom;verticalAlign=top;align=center;fillColor=#505050;shape=mxgraph.mscae.intune.user_group" parent="1" vertex="1">
          <mxGeometry x="479" y="559" width="40" height="34" as="geometry" />
        </mxCell>
        <mxCell id="UdND_uZvlZ35fAXCYIMh-19" value="" style="rounded=0;whiteSpace=wrap;html=1;fillColor=#FFFFFF;" parent="1" vertex="1">
          <mxGeometry x="270" y="290" width="260" height="50" as="geometry" />
        </mxCell>
        <mxCell id="UdND_uZvlZ35fAXCYIMh-20" value="" style="triangle;whiteSpace=wrap;html=1;fillColor=#FFFFFF;rotation=-180;" parent="1" vertex="1">
          <mxGeometry x="280" y="305" width="10" height="20" as="geometry" />
        </mxCell>
        <mxCell id="UdND_uZvlZ35fAXCYIMh-21" value="Rating" style="text;html=1;strokeColor=none;fillColor=none;align=center;verticalAlign=middle;whiteSpace=wrap;rounded=0;" parent="1" vertex="1">
          <mxGeometry x="385" y="305" width="40" height="20" as="geometry" />
        </mxCell>
        <mxCell id="UdND_uZvlZ35fAXCYIMh-22" value="" style="ellipse;whiteSpace=wrap;html=1;aspect=fixed;fillColor=#FFFFFF;" parent="1" vertex="1">
          <mxGeometry x="375" y="350" width="50" height="50" as="geometry" />
        </mxCell>
        <mxCell id="UdND_uZvlZ35fAXCYIMh-24" value="" style="shape=image;verticalLabelPosition=bottom;labelBackgroundColor=#ffffff;verticalAlign=top;aspect=fixed;imageAspect=0;image=data:image/png,iVBORw0KGgoAAAANSUhEUgAAAcQAAAAkCAYAAAAXbEopAAAAAXNSR0IArs4c6QAAAERlWElmTU0AKgAAAAgAAYdpAAQAAAABAAAAGgAAAAAAA6ABAAMAAAABAAEAAKACAAQAAAABAAABxKADAAQAAAABAAAAJAAAAAAMNcn7AAAhL0lEQVR4Ae2dCXxVxfXHQ9h3CYjIGkAWBWQTRa0FRQVR0VrtosXiVneKSv+KitalttZqq7hULG61rVVrVapiLVWx1qrIjoDsm4AIyL4n/+9vcs913st7Ly/JS0jgzuczOWfOnDlz5sxyZubed5OVFYXIApEFIgtEFogsEFkgskBkgcgCkQUiC0QWiCwgC1SJzBBZILJAZIHIApEF9hcL9O7d+5i8vLxTqlSp0oo2HUzcRZxDnAHtU8Iy8IQhcogJzRIRIwtEFogsEFmgMloAh7gOvXMS6Z6fn58H/fe7d+++debMmRvieSKHGG+RAztdpUuXLodUq1at9d69e1fNmjVreUnM0aNHj4PYiTXPzs7OYTf2ITL2lkROVOaAtkB2z549mzGGtMtfxjhadUBbI2p82hbo1avXazD3Is4kHspa1AVYjeiH1SR6xY+reCa/QIQfIBZgAN1MUy8itmLw1FSzq1atugDQQXg6gcXrVhYvyTiUWNvKIPuaKVOmPGLpCEYWSGUBdvcPkX8GsSWxunjZ1X8KOEp4CUMVNmknM6aPQtYrjEddn0VhP7UA/XsOTdtjzWvZsmXtJk2a9KL/74V2fEBvBvwD8fQg7YBziF27dj2ExayOn2E49Pxp06YtsbRBBm5rjp1VLe3D6tWr7011T+vzRvi+twBOsD4LhXZSzhkGGrnFKF3tKKuxVBc5tcDDYqR9mSE9QiILJLIA40W3C1qs/PHn44mKpaSxKbsdmbeLCXgna9ehrE9fpSwUZVZmC4TOUI1YsWLFduIHhx122IAGDRqMYwxcEDRuMGPjTBzoeGtstpCaNWuOw4ktShTxqosZQMdYAYMM3E8S8YsGj3Z0UagkFmBxGMWgqEefXlFSlSn/c+Q027Rpk06HH5dUTlTuwLYA4+hCxlFdrDAig5Y4z5NVjXFemtOmJypCK5MFFixYsJPx9SN09tenvn4bnENkgLxH/B8Zm73MvdDmEMcT9ZAyPrwKYQpxh2XAp7d5phGVF4XKZ4EtpVVZgw4ZGgdRqGAWYDf8e+JKNriX7ivVuLrsEOiQ6toyn7cESz0WrY2cCD4znDVq6549e963dAQPSAv83Wv1kR5e8KARr3kfxPuYKLcB7wgY5kDv5jP7OHk/UZrB/ZwdQYFvs7vT/X8UIgtEFqhYFmB6VjkblQ4hNtxXqnHjdAp1N8cxNSgvHXi0cx31fkb76/Oy2B9nzJixtbzqjuqpeBZgDExkPDjFGBP6WUYYopdqQlNESGSB/dcCbFz12EPOUC+pJHz2Xx6tp+4hLEJ6llduOuAAV9A29wyxPNoY1VHhLVDDNGQ8fmK44D5xiDzcrNmwYcO2XIu0ZGKs5LT5ObpEr+ZjBL3gVKNGjbZ0VI1du3bNmj179np1VKqgt6hycnL0IkINJv+8JLzVuAE4GLkH79y5cxFyM3Ilpb6sV69e6+D1+G3IX0bM1qJXEUJFtafsVrdu3TbsVPMY/wt8W9FP+tlLpx07dkyZO3duoscVYq+Kk9M40fO2tVOnTv3ClxGP0x/DPVqx5n2nTp3q08e5zFe9fCfnspCboN2evLTQI488sit6nBQwF0uH+AqQ1ZL3FVpw+puVzomPnxPV4+dEbYib0T3pD7Otns6dOzfm3YrW8G+njuXp1GFlfYieTenj1hs2bJi1ZMmS8PESfdwee+bSzyuQrf5Pd/3LZky3YI1Qf+Qhex7tSfmCEG+A6xTUZvPmzTODRxpOxWDu6nnqLl6cjHEMjqHgj9aNw6hKL8dpnK0C5nv5SdGSzD2EVcNmrbB7febFjDjh+ilOZ+kyffp05aVrs1CM2ozN9Fa9C8yf9wwXLNWg9AWlg2sQ09CbmBQXwl+fyeWKYfAdKDaLxK0Y4S2TxYQfBO8jlvYh/L+F92GjYaiLkXdLkNbvlk60PEFkzUZWLZ8W4N3g3ebT90W96P9D9NeLBEdLF3TNqlWrVha20QI0gcXxungnRt6D5A0jhtdPGry0ZyE0F2jLzci6AXs1ggBaRS9R6Q5dryaXOCBXD6NHIE9ywrcAJb+4AZ3/RBnJKxTQ+2r6eYIyeP7Uh8H8fDwTPOPhiXkJo6Lak7Y+hv5noHML1xlZWbtZfA/FOW6CPpqoh/5taWdWnTp1LgcfS3QhcAIXk/gesSOxutmb/liCzDEsWA845uAP9DPg0Xw7z6OPRI9LvLROjQOxYYxj7t69+9HocSPlz4K3qs1X8D3IfQpHcWOiHzf7coVrYWTM6RHLpUQbK9XRIRyn4iO8ztj1HXcBNXgmTZ0D0eXHEPXqfGtlsp7sRM57OJZrWNTni2aBMdAP/vuJudAai047twJ0ZVxoMaW9XWjvPeQdRZnmQBeoI5+655KYwPPH0UU5R+odQPmHgnrd2/uNGze+n03FfTgy6TMAWfqNZZYi+msTeZ+/nhXU/M3f3NzcWmx6ZZurKN9GORojCrIj7R9O+99wBP7Qlp7o/Sxy28KvTVMWhxCNjRvg7wX919BlR62JcnJhe8Gr0oaR6PZ9+I4gXdP6nrJ6z+R96GNsXpKOCaWYe7rSb0F0DcPmx1LHZOAV0E4n9kXngwKbrUcH/YRGc2QPsciA7u0p8xyMbq0Bf5P58je/YLk5RIx0Mg35C5U3CRRYA/yMqOeUTWiofiP0Jo2/h0bqemMvNBmmGdENKqAL8G0A2RUkHYBXxmwX0NqxeOb6PxchP49yucACL1zAuIZQaLdTnvXSSWrbE8TzA933oOc06QnsAWwJ/VKc4wksiOcyGbVxsLAdxA12IzBhC2ZJQKD8FtBqQN9Tlarf6aNbkHmXZKJjPuBz0tNBG4P3Aa9PTDtQrirlrO/8cqvJ220EePQGawOijSEtcHmkFV2oBPbsiqK6GQk0zqpO37aiHY9BcxPVMgx269atEaehe8mXM4zpX+MhT2P7fuZZVpxT1Fw6yvgE4dPmSNEP5qgcDTlXMF8fIlEd3TSGPlYGZaVjHeBl6HQKJ69u8Rs18fkBZ6j67/RpAR7T59TjrnTj+airHmPueeD3E+TVhHYquj4NPIEYjgVw/ZSoNzAMpDVfQuNbBuPmKup/gPyaQMn4CDif9BHEXqQPV6TNvwPKqaYKTVUujmEgdrgAmtaz+NAa/jG0sTdr30Xxmeim3/a+QnSbZeA8dNNN0OGU6wBsj3N8nfLXUv5h0nK0OQCdyJV0gTK1kHUl8HfQaxjdhwnq+pJ8vXQpx3kC5Q4CDiZq/Z5ADANl65Ao0VqGfOnaOhRWgAxC5h9Au8TRlcyB/2LG6WLG+90J8mNI2OYi6tAmpV6QMZWbsh+Bx6z/2TGlyiihnRcd9BrimwRVjGIn2Ix4ErEptJtFR1mFW1D+EqXJex2gDpimtAKNeoJOzyGOLaC4HZIm84mWFkTOID+NrG6UDQcjx+7R0JrpNyo+n/ByrvcxqnTOEP3mg7enbX3QoTfOrQ3pxUSFTuz4/sECFA5keG7iWrVjQXbiv/A8RNTi9/vEHMWjMkDlCO9WR1FyPfFk5Hcifg+9B2BX7cLUjrQD5X5AOWcDK0T6BmQeymCfaDTwSdB07fuy0dgZH0756y0NrOj2vIy2DacNK01nFrO/Ys6+lgbGnF7I02nyMuhVKbeUOJZ4PVETWovBcqILzDM5RY0bF+C5gfp0wvOv0v8smkV4hvBzmUVBkSzKD0GO7ChnqI1OV/WtImNSi7K7okOnXBb5IhcjFp7Jqgs5d1gd4JC+0UE48pLJ6kyeTiuTidchoy/8g8GfN3nkH4feF1lacNu2ba8zPs4Gfcanx+NayJGlE5Oc625kd2ac9aW9Q4G9ydOpMe3A1eTrlPku0T99aCOkdWoE8nsQc8nXIq3NvQvUP4w2XGjpAGoD9ArRnOEIdOqMbmcRO1P+UY//l7pFUHrt2rX/JW8I8TnLR/6Z4I8CwzWEdMxYI61x5uqi7JPUoXVac3sI/ahNgeZ8slDiuUc/yVFfg+BwLKPn7dC0sXiROIyxp5PtUOIcUwCe0dZmo/kwl5M1/ftn+J4kOmdI+afXrVt3XKLHUdX8wmWEV2Eh18lQu3tzaL/y6srH4L/ECXZBYe2g5Mxu5a73Gd13k7ebBmkB7BHkfVvQDwyuY5nArrFGJy2HGOMEkHuM5YOHk8loPiyPehn836VOmwB70EnOZZnpwWlwBZ19GvbTG3J6LteG08Sl5IeTAJp270UFnY43wVsUX8p8+kH2GyUm5GlFG8ApPNysiI7TWgufdo8dlE430F8vIfJBdDxYZYCnAx5IUF5j9kTR4Z/Ms4TPjacy2JP+nYu+c7HROcAWge7a1MzEnvewMHxEvy+lLc3Y7OxQvm4F4L9LPCxMmgsxixhzRxN+MnTt0BX6EZ8Vok2EIDyjrP+pZw50bVALBcZbXfriccuA9zK6eKmlsfdsZI1H1kWiAYcCRlh+IsgnADUeXqPcTsunXD5tSaiD8XhwG3pci85PQcs3OmvEv/mhta43DxMNvbU2jLP8efPm6XrvVWy3Gvhjo8dDxpGulXVy1Jh6i/bGbOig/Yn8m+PLJUuzbm0i72X6UHNac1xhI489urIISxcLT3NY+C8bok/hc+sX8E4yXd+JCd1lW3OGbzB+HhQ9CHnw3wt+ldKSgazvgI4Jfow+Hh0077VxUtBNxE7SY3Euz6HPHGy0jX4JN9Xk/4D8Au6CdSa0t3RHn4lknmcMBks794J5/Dm6nEn9rSQXXbTuXUybP7J6gFOpayHwA/IUatBmrUsrPJ4Q5apavudsEdR2wHDG3VilE4XsRETRKNyRxi8oKsKq3WfSQPn+ZOpa1AUGdriYG00Q+h+8dCvuu4dammcVfzcc2EnXoV5aA+HUIP2GRz+JurUj88NAJWRojLLAz0iEl3W96D3cq1fPT5Z5aYeyGM4Ded+jj/Lw8kZHU6F2rAr/iHeGBeSS/aXtu7HHH600eD8GvnOORhOEdjx5jYTTjy8JWqiE9nSq044naH93Fvzn6e/FEPPAv/B3sOTfRtROea+11yBjWTvmmZbGDs0MLy7kSlDz2ZVHr8n08SfxMqC/7dFyWNTNsXvkjKLLsceTSAwXZ0nXhpm2vmk1oVdbw4sJmxs/8rrrJTVLC1L3Z8i+FvRq4irRShC2xzlDJ0KOgDrDBRq8DWNcV8wuUO/lhgMLrZ2MCa0ZnxsPm4IjDY+HyMpnk9WBMsOp9+Ngw7A3GD+OnfpDW0A4Nl4G6/Svoendgcf9PNJlsZZpTfSdoauS/viQ+tZY/bQ5Yb+z/neGxzlDoObN2amcoeQldYhUqGN1+6IifDEnMwmNC+d76eXJFlHok+Bbb7z0XU/DtUMmHe7a2BGcZnkBdA6RzppI2pyKfnN0fByfOcRX4+gJk2VZr4752C487aJ70t0yfP6GoGUiR5GwARkkMrh03e3sJ7HoOy6D4p0odq1a9CzoueI5ljDI4B/i4aFDrGz2tDYI0s7lgJjF3s9PE19kfMirb3hxIfPsXCuDnNmG+5B+ilmkuMFIuCD5ZcoKR99wYUTfotaihGpQLlxbYGjVtGnT9zipxDgWFtKHWZwfJe5OKKR0xCfiijuHKB3QLbxpYT1L2B/YIOwP8FR9kV/UB/spH9qCun/LvB+pa0fTD2c0GRs86DuqfTH3/H5nLUo43uHxN9TL6MMJ1o5kUNdPycIaBJ6eLNOj65lSvIMKs5HRgXxLf2FIApgHbSkxJ8hrF8cjp/B/oiFzEOAx4TxTE39v4dCnAD4gtlYaxym+d4XTaW3Rww0uYFLnI964UCb1srC7ax6rC52S2oYOXwy/sepqSLZZGxLKB9G1RDhesG24AGeqel3HMQE1uVWXwnnEmJ0ofawrFeVNY1IuFKJQCe1ZoHgJ/mqBatSo0Ym0uSPFNdZbY5djA7toHoQTrrjikeGPy2PoDzfP4uQ0jEuXhZOIqyJxkraus3bDUTsxV2rqxo0b/8WNlE7mbcWJvD6A6TikCcy9MWzW3yRd2g2LRCcM1L+Y+sM8+rVpkPD7QmP8ZvpDJ52YgA36eoTS9oWcs51QNd/v4+3WnzHe9C+THg2uv73q9tncW2dK0F+hwzaaIM885+tNfYV050S4wLlSsX/W4lE/jSUVTjFowlNd4VxHCY/gKLUmCY8jk/+lDW5gUocI80l6uYQriF00eABpvZG5hQ7Tfbzq+6EEQpNDvEk4u9hTBQmraZcW3XRD6BApkLF6Az1DHdj9JbUNtvgyZARhkso2xWmDX7xEOLbUix1hWa5eVoSJDCLUo4ffziEC++s0zK7UOX82NZ2guU0NfC/61VY2e/q6p4tjCzm94fDrmVfMaYh0umKK4jvUY+gMrpgyMHaLWgNSli9NJk5iT2nKq6yuXlnHdJP1GnYMTxXggxhXetNxFnPuHsbhX0pbV6Lyqp86tMA3DvLtWbDfF3LUlyUq7/c9eKn6grVxHLbQOBtmdYHrrdnb+MnIjeQ9zQ3B3dyehfN/X8w99Cmy34NnntJTt3E1rT2pYHaqzEzkoYi/o6lRhMxdXn5VD8+SE2MRdKcoZNbDER4f5DtHB22iHCRBuzlnLGjdGWg2qOy6dDz5ae/2yqpe2uLbRQ47qW1oh28XTYwY2/h2KiucOm2yuiq2b9++rSzq4m3H55FrsnVt+h2rBxsNMZwFKsYhVjZ7WjvShSxEI1j8J2EPvfQgZ6gTzV04o1Npe3fiX9OVlYoPOf7ceBZenT5SRk5QGb8tSKVjWeQxz//H2qGbpnHE+FNWV2z/Z9aSh8grkzUTs9eydoFvFk4/+30h0gnElH3BvLhZjKUIeqaot19/hIx5vhz0qUm8nHn4EePxSMuDt8KuZehmj1UOMn1TwVQnxFTlipO3DGa3y8SYh6QqSL5dFeh0F+5AgjIaHK8Q3RtV5J8G/g7ROUTSb4Bn6YfCdJbeQOqnNHQ5Qn1vVSdJDbK0nh+KNwhlUi96LUMXq0OnvqS2gVc7NJ833jZhHrzfMIbU0iPot4FFIRTEj8abk1gcEjKE6A09+u9vtHdoIFLXpmMD/ExB2jidRXh+QHOgstnT170onIX4dHh+a3y09REWreGk84wGj1tELV1SiN3l3NwpiXqqakNYUlmVrVzwfO1SPiRwBz8n0TqjE5m/EbyWU/oSTooPZLJtvCR4EHav68lcKRz7L/LnPWndbi3w+MoMpZ4/IfwvjCv9dONa9DjJKgPX3P83efo3WrvJL5O1zOorDUTXX7B2vQDclY6cb1a4dLhLxuPvHtsgIlWddppTTQvjq8Pwur60cKKeC5JoLQINnmAZ4P/w8BMZxHom0IDyW/n9yUTLSxeWRb1c7/p20fMBtSVZ8O2SxZVFaBveCtzpF2L31shPZwrHpmt8WdSb66cziWPvcSaPevvrObEi+HEB/QXLN1jZ7Gl6pwOxx1nGB643pK8hnWe0DMNwXGJvnZgOuCDHyEI/irWiJY2/C5uHtmaehjcWmTIM8mPmPnZ/X7I5/Yd9oTR89mxPyfIIedhBX4PRYUK/x5zjVdoYR/NtpTM19zzZGUPR/ys2MB/ShiIf/6nSVM4pI0phxGmeoBx2Fe7k5tEcCr0bSGujU67QfT0Nexf6BvEwaHqw+J8S8M+m4cusLB003nD49RvF/kH6Lf97gsZTFCyLeoOH06usbvQ8x/AE8AyP9kGwk3Uk2r0RZIflY5dmhmcS4oQ/QUedll0AvdjwTEPsPQmZ5vSrcT1+JnEQNHdVzESMuS5V/ZXNntK5GOFbHu9SDy8RyhhJdTM0wxPamXmp02lZBPVllbIQXFyZtPFK4jvEkX5ZrRXMr9uw160e/Vi9v+ClS43yDO4SE8K8+h91urHPnFsCfZPloccNhpcFpP0Nif8MbNHErwOdpvCSytHQ1hudddWt5ZmaeyZ3X8Lssq58/fr1z9DJX1g94D8x3IfQr/DSc1kUJ3ppQ/eA2OlPk/qnyqCsnhuGgQe++rSRu1JjEHUg41xlQivudanJLKt6f2UVAE/gqvBwL+1QTrfNaYO7KhQBZ/BIPA/p0LGC+4unY+UkreuY7i5Rwj96iI4eH1tx8B+gb6ETBPrqFiDX+EoI6ar8p7yyZ5MeHKSnxl+XenyVxp6ezkWi2NpfFHVi1jPEMOiDxSRk93RD0ucpPEd7HCHaZFm4V98itYQP9Uk5Fs/OPq04OFeFDYvDX1a8jC0t9P2JFySpIzxdwLtD7yok4Ss2mb5sRv/6m8s7TIjqYb7/ztLwHcWcu9rS8ZA8PV8s8SaDujQudMjoz+n0+Hj56LOF9s8zOvhmw4GZmnueyNKhzIsG2OR24ofEnzNWqxclMdVOsaiyaeVrl8XXAn4Bs1vIg4V0FkdY0VxAUX3K6kolgDvpjPOFusy4P5R/GdJQkcGPCLJjHGKQp1Pi9UF+L+BeXgR5PUgXG5RFvbxu/TivW/8MZfQWVBXa/gbO6wR7gwu76Kr0n0TXkeS/wEah0MkZ+jsUbxs0ajhO6VPa+k+e8zWCpu8PjgZafsBWfEC/jGY3K30U9H3USeg4kvrfJl2HdH+g6orZXZIudmB3/Aw3AHciU28QDwa6ayvwQu034ZXNnqZ3GnAqPMcEfLV5vvUozmQMNyELefPvVGxzJ3kdipDjO7lz6bdX6c+d9KfKDcSujzEn39czePLuhyaZCl2oQy9RXE89H5LeRjl9VWogJwRtSLVAmm6gKYOvgx4T3EI79HxH3zKWjObokHDDnFJq5jK7MXdOZo79yxeJbS5BP0cC/s3PSxdHRk09K2Qz97WV0VvTjHGtU7VFg+dx2h8++hENG+l5pa7Ic5Sm/ofpn444rz/qP2jwk4iWlNM3j68h6mMWg9G/0HqossUJ1Hsp/+Xk38GP911RZGu9ldOVrvqGsdZiFzI190xeJmD9+vVvQsdRgSx97m8meMr+c72MgR+kfafB3AYB7jogaPBqaMuYAFfQkdMCwQ5QRt/rOwL+lhDMse6FtoL0dDr2LI+/GhPqHtIj4S8YWXwcFt5pJHUqclelpDVYhlLWToGeiAKUeuuArSUKKmiX0pgj/W6XCv4w+Poz2d8xGrInIbefpYsLy6re4Kv0L6JP+0AnnUanEPWwWp+l0u5f4ZUtW7Zc6A/QArL7vJO+0zrds61lGdxOvr6XOSwgrCM9C/xXmoD0zc/I0yZDp4wG4iFfn4VaDLqagXQ1k2y66NhBO8EbhScKlNtAuaXk9QjyF0FbvnXr1jMT6Z5IhtHQ6w1kaVy6gBxNwlz6epnR4mFFsGe8Tn6aNulnJd2hadzXVh7N+hraSlCN/695dnWuNpLKU2Ahas4CNQO0sSMU/rMNksaMux1A3nzwuci8xmxFv/0G2g3EhIEy+m8L/6fM3IL/rPAI5S9OyBwQKaMxMpY6rkzFZ3l6DowzX0UZt8YY3YN7+f5oq9q1a78Ej06ezgkE9SwBTkBHd0IKnIlelusInz9mxfcv+C6nzdpYjyRqXDtZQNl7CeAL4FUa1/TJU8gZBs0F6P8lrfGueXMcuHMCpBczF75FmS8KOFP/pd/0TdhXjQtZa5H1NnANtG7gxwHdOgbtQXRW/+w1foPI+TZynietDXLSgIyl6HceS/UnlOlHmbuhtaIetd/CQmhunEF4jjqftgzKtKHMEkvD9yVlJ5FWmUPAvwteP8jX96i1FoShNHOPPrgAQbdQhzZo5k+2gy+gTXdgc+fI4PsePLeij36C5cYR+FZwrVW/QadngC7A+y70fpaGL/z4udHiYXZA6EVB/YA+HKjgclzqgGNwLDFXNEEZfUIrF9yUF1mvycv4vZXwwh4Mr8mmD/xqYst5ycADgXKG+j96T7Lj1dfekzpD+PThbfG+JTwIE6HFOEPRGRT/gU8d7wJ4ODCNVhxYVvXyY3Tt/mUv/auWL4Gyp65wZF99eX8GA+IS6v9OModC3kz4BxNXEcNA2Q3El4m9kaWFZFOQqf9KIfm1gvRhwG5Et7CIRp7Ghpy0+BqLpkBdNwGGERcS/bCResZzsuuNvmO8jHaU78O/vrGx5mWlRpH3ZByHPu69LI4Wk6wg9ozRKS6hk1AvonOGysM+BwG6EI8nns73OasCw6AFGJsOgPCfkFiAyOavkdeH5F2Whzx36qMvrH/14sOvydfp3l9wNZfeJ/6En7uMtvJyxszDS0gPI+rxgzudWz5pOW99e7YX/ZGWM1RZrtzWU+anQXkTJ6g+fYzYk7ZsAcoBhQ6M9mjstCPKRi5Aa0g8ikT8mNV4E91+r9sTNJQlOvm5RDk6G9eyzd3EmegmJy9HpXbpVCxdNhO1+B+drjOEt1BA1sEQzwdeRzyZumoT3yIOwt4jyPP7JixPnZN4ftcTvr8TwzVNDKR3Ej8FHUkfdpIzFB3H1hTwLerxnaGy2kPTeqDxFNpTGZTROPsx8saT3ASPZJxL1L8AGwasT54+Gn4a/R7jDMnLKs3cQ2Zb6jgcMVr/LGiOaOPQzAjA3IDm+6q60LoS4zcMT0BzNkX+HGz4NOmUQU6v3IMeShMOR8kWdIKeTS3AwNvSVUTfTqScO1Uy0Vf4L5n4MthFdsWZux0NX6CfrVf6/fzi4uVRr54pYBt17i7atjhZ25LpznOddrItp/qVTI4Z8IWLGTvmJqT13yi2F9fmCerLRl5H6slB1lYm7UyvLt0I6HSbTxu+5gp4AXkJJ3sCuTEk6tAX/T9DVhVNVup5NoahiEQlsmcRLSnI1hhkTHfCJpuwhTZTZtdsbkX6kqdN1Gom/8JEz7qYE02ZO92Ji1mEF1E+HB/JFKAP6pCnDVN1+mAe1a5NxpsmXWOnD7KyMzEv06wzLTatTVxj5mIfOcsa2HIp82gFuG5uihX8EyJydNLRprUFsQ7DeSV1LGHd21gsoTDTz7n0c1vQryg/B1hs3dKpE/0PRsd26F4D3bUpWIItYhxyKjmlnXupZKebRxt0u6L/2KEblCLDPnGIRWoVMUQWCCzAwvkoqHbrX/GcoqW+6hEZJ7JAZbCA7xDRVz/lcJv4yqD7gaqjriKiEFmgQlqAU6auqy6TcuxSH4+cYYXspkip9CxQPT22iGtfWiByiPvS+lHdSS3A7lrPOF4i6pnCZq4AH0jKHGVEFogsEFkgAxbwH2BmQFwkIrJAyS3A9egLnAS78nxFL0EcYpJ4fjFCL2RYOoKRBSq6BXh+phcR/RdaqrPJO4LnWStL8tyword3f9EvOiHuLz25H7QDZ9gIZ6g3zUJnCO3nvMTx5H7QvKgJB4gF9OyQLyttxvk95DW5MenZpL9m4/eRR4/QCmSB6IRYgTojUiVLb/PprTv9TvJdnKN+d/ZiZJfIApXJAozdTUR9xCBhYFzPT5gRESMLRBaILBBZILJAZIHIAhXBAv8PMLEtGleGVEwAAAAASUVORK5CYII=;" parent="1" vertex="1">
          <mxGeometry x="333" y="410" width="152" height="12.11" as="geometry" />
        </mxCell>
        <mxCell id="UdND_uZvlZ35fAXCYIMh-28" value="thanks for your rate!&amp;nbsp;" style="rounded=1;whiteSpace=wrap;html=1;fillColor=#FFFFFF;" parent="1" vertex="1">
          <mxGeometry x="340" y="445.79" width="120" height="60" as="geometry" />
        </mxCell>
        <mxCell id="UdND_uZvlZ35fAXCYIMh-29" value="" style="verticalLabelPosition=bottom;html=1;verticalAlign=top;align=center;strokeColor=none;shape=mxgraph.azure.azure_alert;fillColor=#333333;" parent="1" vertex="1">
          <mxGeometry x="345" y="450" width="10" height="12.5" as="geometry" />
        </mxCell>
        <mxCell id="UdND_uZvlZ35fAXCYIMh-33" value="&lt;font style=&quot;font-size: 6px&quot;&gt;close&lt;/font&gt;" style="text;html=1;strokeColor=none;fillColor=none;align=center;verticalAlign=middle;whiteSpace=wrap;rounded=0;" parent="1" vertex="1">
          <mxGeometry x="440" y="490" width="10" height="10" as="geometry" />
        </mxCell>
        <mxCell id="UdND_uZvlZ35fAXCYIMh-36" value="" style="verticalLabelPosition=bottom;verticalAlign=top;html=1;shape=mxgraph.basic.star;fillColor=#FFFFFF;fontColor=#FFFFFF;" parent="1" vertex="1">
          <mxGeometry x="337" y="422.11" width="20" height="15" as="geometry" />
        </mxCell>
        <mxCell id="UdND_uZvlZ35fAXCYIMh-37" value="" style="verticalLabelPosition=bottom;verticalAlign=top;html=1;shape=mxgraph.basic.star;fillColor=#FFFFFF;fontColor=#FFFFFF;" parent="1" vertex="1">
          <mxGeometry x="367" y="422.11" width="20" height="15" as="geometry" />
        </mxCell>
        <mxCell id="UdND_uZvlZ35fAXCYIMh-38" value="" style="verticalLabelPosition=bottom;verticalAlign=top;html=1;shape=mxgraph.basic.star;fillColor=#FFFFFF;fontColor=#FFFFFF;" parent="1" vertex="1">
          <mxGeometry x="397" y="422.90000000000003" width="20" height="15" as="geometry" />
        </mxCell>
        <mxCell id="UdND_uZvlZ35fAXCYIMh-39" value="" style="verticalLabelPosition=bottom;verticalAlign=top;html=1;shape=mxgraph.basic.star;fillColor=#FFFFFF;fontColor=#FFFFFF;" parent="1" vertex="1">
          <mxGeometry x="427" y="422.90000000000003" width="20" height="15" as="geometry" />
        </mxCell>
        <mxCell id="UdND_uZvlZ35fAXCYIMh-40" value="" style="verticalLabelPosition=bottom;verticalAlign=top;html=1;shape=mxgraph.basic.star;fillColor=#FFFFFF;fontColor=#FFFFFF;" parent="1" vertex="1">
          <mxGeometry x="457" y="422.90000000000003" width="20" height="15" as="geometry" />
        </mxCell>
        <mxCell id="UdND_uZvlZ35fAXCYIMh-43" value="&lt;font color=&quot;#333333&quot;&gt;&lt;span&gt;Submit&lt;/span&gt;&lt;/font&gt;" style="rounded=1;whiteSpace=wrap;html=1;fillColor=#FFFFFF;fontColor=#FFFFFF;arcSize=50;" parent="1" vertex="1">
          <mxGeometry x="370" y="520" width="60" height="20" as="geometry" />
        </mxCell>
        <mxCell id="UdND_uZvlZ35fAXCYIMh-44" value="" style="rounded=0;whiteSpace=wrap;html=1;" parent="1" vertex="1">
          <mxGeometry x="270" y="650" width="260" height="370" as="geometry" />
        </mxCell>
        <mxCell id="UdND_uZvlZ35fAXCYIMh-45" value="" style="rounded=0;whiteSpace=wrap;html=1;fillColor=#FFFFFF;fontColor=#FFFFFF;" parent="1" vertex="1">
          <mxGeometry x="270" y="650" width="260" height="60" as="geometry" />
        </mxCell>
        <mxCell id="UdND_uZvlZ35fAXCYIMh-46" value="" style="endArrow=none;html=1;fontColor=#FFFFFF;exitX=0;exitY=0;exitDx=0;exitDy=0;entryX=1;entryY=1;entryDx=0;entryDy=0;" parent="1" source="UdND_uZvlZ35fAXCYIMh-45" target="UdND_uZvlZ35fAXCYIMh-45" edge="1">
          <mxGeometry width="50" height="50" relative="1" as="geometry">
            <mxPoint x="400" y="930" as="sourcePoint" />
            <mxPoint x="450" y="880" as="targetPoint" />
          </mxGeometry>
        </mxCell>
        <mxCell id="UdND_uZvlZ35fAXCYIMh-47" value="" style="endArrow=none;html=1;fontColor=#FFFFFF;exitX=0;exitY=1;exitDx=0;exitDy=0;entryX=1;entryY=0;entryDx=0;entryDy=0;" parent="1" source="UdND_uZvlZ35fAXCYIMh-45" target="UdND_uZvlZ35fAXCYIMh-45" edge="1">
          <mxGeometry width="50" height="50" relative="1" as="geometry">
            <mxPoint x="279.9999999999998" y="660" as="sourcePoint" />
            <mxPoint x="540" y="720" as="targetPoint" />
          </mxGeometry>
        </mxCell>
        <mxCell id="UdND_uZvlZ35fAXCYIMh-48" value="w&lt;font color=&quot;#333333&quot;&gt;&lt;span&gt;welcome to fitness app&lt;/span&gt;&lt;/font&gt;" style="text;html=1;strokeColor=none;fillColor=none;align=center;verticalAlign=middle;whiteSpace=wrap;rounded=0;fontColor=#FFFFFF;" parent="1" vertex="1">
          <mxGeometry x="320" y="730" width="160" height="20" as="geometry" />
        </mxCell>
        <mxCell id="UdND_uZvlZ35fAXCYIMh-49" value="" style="whiteSpace=wrap;html=1;aspect=fixed;fillColor=#FFFFFF;fontColor=#FFFFFF;" parent="1" vertex="1">
          <mxGeometry x="350" y="810" width="100" height="100" as="geometry" />
        </mxCell>
        <mxCell id="UdND_uZvlZ35fAXCYIMh-51" value="&lt;font color=&quot;#333333&quot;&gt;&lt;span&gt;some kind of exercie&lt;/span&gt;&lt;/font&gt;" style="text;html=1;strokeColor=none;fillColor=none;align=center;verticalAlign=middle;whiteSpace=wrap;rounded=0;fontColor=#FFFFFF;" parent="1" vertex="1">
          <mxGeometry x="280" y="790" width="117" height="20" as="geometry" />
        </mxCell>
        <mxCell id="UdND_uZvlZ35fAXCYIMh-52" value="" style="endArrow=none;html=1;fontColor=#FFFFFF;exitX=0;exitY=1;exitDx=0;exitDy=0;entryX=1;entryY=0;entryDx=0;entryDy=0;" parent="1" source="UdND_uZvlZ35fAXCYIMh-49" target="UdND_uZvlZ35fAXCYIMh-49" edge="1">
          <mxGeometry width="50" height="50" relative="1" as="geometry">
            <mxPoint x="370" y="870" as="sourcePoint" />
            <mxPoint x="420" y="820" as="targetPoint" />
          </mxGeometry>
        </mxCell>
        <mxCell id="UdND_uZvlZ35fAXCYIMh-53" value="" style="endArrow=none;html=1;fontColor=#FFFFFF;exitX=0;exitY=0;exitDx=0;exitDy=0;entryX=1;entryY=1;entryDx=0;entryDy=0;" parent="1" source="UdND_uZvlZ35fAXCYIMh-49" target="UdND_uZvlZ35fAXCYIMh-49" edge="1">
          <mxGeometry width="50" height="50" relative="1" as="geometry">
            <mxPoint x="350" y="890" as="sourcePoint" />
            <mxPoint x="400" y="840" as="targetPoint" />
          </mxGeometry>
        </mxCell>
        <mxCell id="UdND_uZvlZ35fAXCYIMh-54" value="" style="triangle;whiteSpace=wrap;html=1;fillColor=#FFFFFF;fontColor=#FFFFFF;" parent="1" vertex="1">
          <mxGeometry x="430" y="920" width="10" height="20" as="geometry" />
        </mxCell>
        <mxCell id="UdND_uZvlZ35fAXCYIMh-55" value="" style="triangle;whiteSpace=wrap;html=1;fillColor=#FFFFFF;fontColor=#FFFFFF;rotation=-180;" parent="1" vertex="1">
          <mxGeometry x="361" y="920" width="10" height="20" as="geometry" />
        </mxCell>
        <mxCell id="UdND_uZvlZ35fAXCYIMh-56" value="&lt;font color=&quot;#333333&quot;&gt;&lt;span&gt;Join now &amp;gt;&amp;gt;&lt;/span&gt;&lt;/font&gt;" style="rounded=1;whiteSpace=wrap;html=1;fillColor=#FFFFFF;fontColor=#FFFFFF;arcSize=50;" parent="1" vertex="1">
          <mxGeometry x="370" y="960" width="70" height="20" as="geometry" />
        </mxCell>
        <mxCell id="UdND_uZvlZ35fAXCYIMh-57" value="" style="rounded=0;whiteSpace=wrap;html=1;" parent="1" vertex="1">
          <mxGeometry x="570" y="650" width="260" height="370" as="geometry" />
        </mxCell>
        <mxCell id="UdND_uZvlZ35fAXCYIMh-58" value="" style="rounded=0;whiteSpace=wrap;html=1;" parent="1" vertex="1">
          <mxGeometry x="570" y="650" width="260" height="30" as="geometry" />
        </mxCell>
        <mxCell id="UdND_uZvlZ35fAXCYIMh-59" value="" style="points=[[0,0.58,0],[0.09,0.58,0],[0.36,0.39,0],[0.64,0.195,0],[0.91,0,0],[1,0,0],[1,0.25,0],[1,0.5,0],[1,0.75,0],[1,1,0],[0,1,0],[0.09,1,0],[0.36,1,0],[0.64,1,0],[0.91,1,0],[0,0.79,0]];verticalLabelPosition=bottom;html=1;verticalAlign=top;aspect=fixed;align=center;pointerEvents=1;shape=mxgraph.cisco19.wifi_indicator;fillColor=#005073;strokeColor=none;" parent="1" vertex="1">
          <mxGeometry x="580" y="655" width="20" height="20" as="geometry" />
        </mxCell>
        <mxCell id="UdND_uZvlZ35fAXCYIMh-60" value="" style="rounded=1;whiteSpace=wrap;html=1;" parent="1" vertex="1">
          <mxGeometry x="790" y="660" width="30" height="10" as="geometry" />
        </mxCell>
        <mxCell id="UdND_uZvlZ35fAXCYIMh-61" value="" style="pointerEvents=1;shadow=0;dashed=0;html=1;strokeColor=none;fillColor=#434445;aspect=fixed;labelPosition=center;verticalLabelPosition=bottom;verticalAlign=top;align=center;outlineConnect=0;shape=mxgraph.vvd.wi_fi;" parent="1" vertex="1">
          <mxGeometry x="760" y="655" width="20" height="20" as="geometry" />
        </mxCell>
        <mxCell id="UdND_uZvlZ35fAXCYIMh-62" value="" style="rounded=0;whiteSpace=wrap;html=1;fillColor=#FFFFFF;" parent="1" vertex="1">
          <mxGeometry x="570" y="680" width="260" height="50" as="geometry" />
        </mxCell>
        <mxCell id="UdND_uZvlZ35fAXCYIMh-63" value="" style="triangle;whiteSpace=wrap;html=1;fillColor=#FFFFFF;rotation=-180;" parent="1" vertex="1">
          <mxGeometry x="580" y="695" width="10" height="20" as="geometry" />
        </mxCell>
        <mxCell id="UdND_uZvlZ35fAXCYIMh-65" value="&lt;font color=&quot;#333333&quot;&gt;&lt;span&gt;Fitness-app&lt;/span&gt;&lt;/font&gt;" style="text;html=1;strokeColor=none;fillColor=none;align=center;verticalAlign=middle;whiteSpace=wrap;rounded=0;fontColor=#FFFFFF;" parent="1" vertex="1">
          <mxGeometry x="670" y="695" width="80" height="20" as="geometry" />
        </mxCell>
        <mxCell id="UdND_uZvlZ35fAXCYIMh-66" value="&lt;font color=&quot;#333333&quot;&gt;&lt;span&gt;Pass&lt;/span&gt;&lt;/font&gt;" style="text;html=1;strokeColor=none;fillColor=none;align=center;verticalAlign=middle;whiteSpace=wrap;rounded=0;fontColor=#FFFFFF;" parent="1" vertex="1">
          <mxGeometry x="570" y="803" width="80" height="20" as="geometry" />
        </mxCell>
        <mxCell id="UdND_uZvlZ35fAXCYIMh-67" value="&lt;font color=&quot;#333333&quot;&gt;&lt;span&gt;Fitness-app&lt;/span&gt;&lt;/font&gt;" style="text;html=1;strokeColor=none;fillColor=none;align=center;verticalAlign=middle;whiteSpace=wrap;rounded=0;fontColor=#FFFFFF;" parent="1" vertex="1">
          <mxGeometry x="590" y="750" width="80" height="20" as="geometry" />
        </mxCell>
        <mxCell id="UdND_uZvlZ35fAXCYIMh-68" value="" style="rounded=0;whiteSpace=wrap;html=1;fillColor=#FFFFFF;fontColor=#FFFFFF;" parent="1" vertex="1">
          <mxGeometry x="599" y="775" width="201" height="20" as="geometry" />
        </mxCell>
        <mxCell id="UdND_uZvlZ35fAXCYIMh-69" value="" style="rounded=0;whiteSpace=wrap;html=1;fillColor=#FFFFFF;fontColor=#FFFFFF;" parent="1" vertex="1">
          <mxGeometry x="598" y="823" width="201" height="20" as="geometry" />
        </mxCell>
        <mxCell id="UdND_uZvlZ35fAXCYIMh-70" value="" style="endArrow=none;html=1;fontColor=#FFFFFF;exitX=0;exitY=0;exitDx=0;exitDy=0;entryX=1;entryY=1;entryDx=0;entryDy=0;" parent="1" source="UdND_uZvlZ35fAXCYIMh-68" target="UdND_uZvlZ35fAXCYIMh-68" edge="1">
          <mxGeometry width="50" height="50" relative="1" as="geometry">
            <mxPoint x="710" y="800" as="sourcePoint" />
            <mxPoint x="760" y="750" as="targetPoint" />
          </mxGeometry>
        </mxCell>
        <mxCell id="UdND_uZvlZ35fAXCYIMh-71" value="" style="endArrow=none;html=1;fontColor=#FFFFFF;exitX=0;exitY=1;exitDx=0;exitDy=0;entryX=1;entryY=0;entryDx=0;entryDy=0;" parent="1" source="UdND_uZvlZ35fAXCYIMh-68" target="UdND_uZvlZ35fAXCYIMh-68" edge="1">
          <mxGeometry width="50" height="50" relative="1" as="geometry">
            <mxPoint x="609" y="785" as="sourcePoint" />
            <mxPoint x="810" y="805" as="targetPoint" />
          </mxGeometry>
        </mxCell>
        <mxCell id="UdND_uZvlZ35fAXCYIMh-72" value="" style="endArrow=none;html=1;fontColor=#FFFFFF;exitX=0;exitY=0;exitDx=0;exitDy=0;entryX=1;entryY=1;entryDx=0;entryDy=0;" parent="1" edge="1">
          <mxGeometry width="50" height="50" relative="1" as="geometry">
            <mxPoint x="597" y="823" as="sourcePoint" />
            <mxPoint x="798" y="843" as="targetPoint" />
          </mxGeometry>
        </mxCell>
        <mxCell id="UdND_uZvlZ35fAXCYIMh-73" value="" style="endArrow=none;html=1;fontColor=#FFFFFF;exitX=0;exitY=1;exitDx=0;exitDy=0;entryX=1;entryY=0;entryDx=0;entryDy=0;" parent="1" edge="1">
          <mxGeometry width="50" height="50" relative="1" as="geometry">
            <mxPoint x="597" y="843" as="sourcePoint" />
            <mxPoint x="798" y="823" as="targetPoint" />
          </mxGeometry>
        </mxCell>
        <mxCell id="UdND_uZvlZ35fAXCYIMh-74" value="&lt;font color=&quot;#333333&quot;&gt;&lt;span&gt;Login&lt;/span&gt;&lt;/font&gt;" style="rounded=1;whiteSpace=wrap;html=1;fillColor=#FFFFFF;fontColor=#FFFFFF;arcSize=50;" parent="1" vertex="1">
          <mxGeometry x="663.5" y="870" width="70" height="20" as="geometry" />
        </mxCell>
        <mxCell id="UdND_uZvlZ35fAXCYIMh-75" value="&lt;font color=&quot;#333333&quot;&gt;&lt;span&gt;OR&lt;/span&gt;&lt;/font&gt;" style="text;html=1;strokeColor=none;fillColor=none;align=center;verticalAlign=middle;whiteSpace=wrap;rounded=0;fontColor=#FFFFFF;" parent="1" vertex="1">
          <mxGeometry x="659.5" y="897" width="80" height="20" as="geometry" />
        </mxCell>
        <mxCell id="UdND_uZvlZ35fAXCYIMh-76" value="&lt;font color=&quot;#333333&quot;&gt;&lt;span&gt;Login with facebook&lt;/span&gt;&lt;/font&gt;" style="rounded=1;whiteSpace=wrap;html=1;fillColor=#FFFFFF;fontColor=#FFFFFF;arcSize=50;" parent="1" vertex="1">
          <mxGeometry x="638.25" y="920" width="120.5" height="20" as="geometry" />
        </mxCell>
        <mxCell id="UdND_uZvlZ35fAXCYIMh-77" value="" style="rounded=0;whiteSpace=wrap;html=1;fillColor=#FFFFFF;fontColor=#FFFFFF;" parent="1" vertex="1">
          <mxGeometry x="570" y="970" width="260" height="50" as="geometry" />
        </mxCell>
        <mxCell id="UdND_uZvlZ35fAXCYIMh-79" value="&lt;font color=&quot;#333333&quot;&gt;Don&#39;t have account? &amp;nbsp;&lt;u&gt;&lt;b&gt;CREATE AN ACCOUNT&lt;/b&gt;&lt;/u&gt;&lt;/font&gt;" style="text;html=1;strokeColor=none;fillColor=none;align=center;verticalAlign=middle;whiteSpace=wrap;rounded=0;fontColor=#FFFFFF;" parent="1" vertex="1">
          <mxGeometry x="563.5" y="990" width="270" height="20" as="geometry" />
        </mxCell>
        <mxCell id="UdND_uZvlZ35fAXCYIMh-80" value="" style="rounded=0;whiteSpace=wrap;html=1;" parent="1" vertex="1">
          <mxGeometry x="860" y="650" width="260" height="370" as="geometry" />
        </mxCell>
        <mxCell id="UdND_uZvlZ35fAXCYIMh-81" value="" style="rounded=0;whiteSpace=wrap;html=1;" parent="1" vertex="1">
          <mxGeometry x="860" y="650" width="260" height="30" as="geometry" />
        </mxCell>
        <mxCell id="UdND_uZvlZ35fAXCYIMh-82" value="" style="points=[[0,0.58,0],[0.09,0.58,0],[0.36,0.39,0],[0.64,0.195,0],[0.91,0,0],[1,0,0],[1,0.25,0],[1,0.5,0],[1,0.75,0],[1,1,0],[0,1,0],[0.09,1,0],[0.36,1,0],[0.64,1,0],[0.91,1,0],[0,0.79,0]];verticalLabelPosition=bottom;html=1;verticalAlign=top;aspect=fixed;align=center;pointerEvents=1;shape=mxgraph.cisco19.wifi_indicator;fillColor=#005073;strokeColor=none;" parent="1" vertex="1">
          <mxGeometry x="870" y="655" width="20" height="20" as="geometry" />
        </mxCell>
        <mxCell id="UdND_uZvlZ35fAXCYIMh-83" value="" style="rounded=1;whiteSpace=wrap;html=1;" parent="1" vertex="1">
          <mxGeometry x="1080" y="660" width="30" height="10" as="geometry" />
        </mxCell>
        <mxCell id="UdND_uZvlZ35fAXCYIMh-84" value="" style="pointerEvents=1;shadow=0;dashed=0;html=1;strokeColor=none;fillColor=#434445;aspect=fixed;labelPosition=center;verticalLabelPosition=bottom;verticalAlign=top;align=center;outlineConnect=0;shape=mxgraph.vvd.wi_fi;" parent="1" vertex="1">
          <mxGeometry x="1050" y="655" width="20" height="20" as="geometry" />
        </mxCell>
        <mxCell id="UdND_uZvlZ35fAXCYIMh-85" value="" style="rounded=0;whiteSpace=wrap;html=1;" parent="1" vertex="1">
          <mxGeometry x="860" y="990" width="260" height="30" as="geometry" />
        </mxCell>
        <mxCell id="UdND_uZvlZ35fAXCYIMh-86" value="" style="ellipse;whiteSpace=wrap;html=1;aspect=fixed;" parent="1" vertex="1">
          <mxGeometry x="975" y="990" width="30" height="30" as="geometry" />
        </mxCell>
        <mxCell id="UdND_uZvlZ35fAXCYIMh-91" value="" style="rounded=0;whiteSpace=wrap;html=1;fillColor=#FFFFFF;" parent="1" vertex="1">
          <mxGeometry x="860" y="680" width="260" height="50" as="geometry" />
        </mxCell>
        <mxCell id="UdND_uZvlZ35fAXCYIMh-92" value="" style="triangle;whiteSpace=wrap;html=1;fillColor=#FFFFFF;rotation=-180;" parent="1" vertex="1">
          <mxGeometry x="870" y="695" width="10" height="20" as="geometry" />
        </mxCell>
        <mxCell id="UdND_uZvlZ35fAXCYIMh-93" value="" style="shape=image;verticalLabelPosition=bottom;labelBackgroundColor=#ffffff;verticalAlign=top;aspect=fixed;imageAspect=0;image=data:image/png,iVBORw0KGgoAAAANSUhEUgAAAmwAAACaCAYAAAAUwRQIAAAAAXNSR0IArs4c6QAAAERlWElmTU0AKgAAAAgAAYdpAAQAAAABAAAAGgAAAAAAA6ABAAMAAAABAAEAAKACAAQAAAABAAACbKADAAQAAAABAAAAmgAAAAA7exRgAABAAElEQVR4Ae2dB7xdRbX/k5tCeq8khAQSAqQXAqFoQEAp0sQKoiA+u/gEywOxguXJ30oRRX0URVBEBEQRMIC09EoIBFIIkF5uev9/fztntnP22fv0c+65N2s+n31mZs3MmjW/aWvK3qdZMzOGgCFgCBgChoAhYAgYAoaAIWAIGAKGgCFgCBgChoAhYAgYAoaAIWAIGAKGgCFgCBgChoAhYAgYAoaAIWAIGAKGgCFgCBgChoAhYAgYAoaAIWAIGAKGgCFgCBgChoAhYAgYAoaAIWAIGAKGgCFgCBgChoAhYAgYAoaAIWAIGAKGgCFgCBgChoAhYAgYAoaAIWAIGAKGgCFgCBgChoAhYAgYAoaAIWAI5ItA83wjWrzaRmDs2LGD9+3bd3w2Kffs2fP0nDlzFmeLY2HpCIDrceB6RDo1w/fYzJkz38ygGsEQMAQMgRpGgPHtXYxvvZJEbN68+Z4ZM2bcTfjepDhGrx4CLauXleVUSQToWCfwXJQtj7q6utcJN4UtG0iRMDCdwHN2hJzmZcCbD8EUtjRUzGMIGAK1jgBj22k8I7LJOW7cuH9Mnz59TbY4FlYdBJqcwjZy5Mj+LVq0OMSHjwa5hVXCHJ9m7uohQIdvtXv37jEojC0KyXXXrl2vzZs3b2W2NGPGjDmU8INdHPJ5ae7cueudP84ePHhwp44dOw6LC4uhdYmhGckQMAQMgUaPAIvNbcyPNV0O5o/DkXMUQnbH7oa83XF35tmnuR371b17977M/PIyiuUy/E3WNDmFrVWrVl+gtkZGamzX0KFDP7Bw4cJNEXqT8W7fvv1Byv6sKxCN90oa82HO35A2nenoli1bXleoDK1bt/4ZaR7Klo4yfppnjIsDBnfgvsv54+zOnTt/FHrWXTOXjmPkmbg/4/zg+mPya+38ZmcikDpmGRQJ2cGx8W8iNPMaAoZAAyKwY8eO7zNm9pUIbHRoQa0xt8HN6NGjuzDWnoIgp/McxpgbyOTsiIAjiBuQUO60MfOzpqq4NSmFbfjw4dpZiyprqshW7du3n4T9oDxN0cyfP38d5dITGCbN7c7dVO2BAwe2oQMPj5TvOPxZFTYUyJaug0fSZnjhvwdF4xUXAK6rcfdz/qZiszPdnoG7baQ8Wxn4tkZoWb3Dhg3rAGaf42kVjcgg/PSsWbNCLKPh5jcEDIHqIsC8sZkcXZ+sQ+GprgAJuTE+f58xpJgNh5Hswv2Ck5dfM27fl8C+0ZKblMLGhHNWUk1Q+acS1mQVtqRy1wh9A53oSScL7n50yMHO72zo9bi1oyWDd9+M/c743y5duowlJKoYDBkxYkTXbMei5L0Q3qFyQtt4u58DCt3T0IJLtsR7xg9rqm4W1x+jbNFdx3uh3VZImQ866KChxI/WScAC3LUT6iaHQthaXEPAEDiwEEg7p2Uc3k3x/8iVl8nsCq5hnNnLmHUUY8oxhJ3HeB3Gxym95uPMA/OZB15qSrA1GYVN96SoOCllSeaoUaNG9Zs9e/YbSRGMXhkEWOkshfP1jjt1pUuu/8/5nU1He5wdnVucP5dNhz0mGkcdF8V9AvR/RMOcnzwexq2nGTtC3dq0aRMqbLSh5cj7HRfX7MIQQNlts/9kJTMd2PbJpBrFEDAEDIGcCGziHvpvI7Gm4Z/Gzv0Cxpwv4Q4XikwDdcwDX4T2aR4pe03C7D/4bQJFYaJ4G5XUSUVhYtjD83q0WFTqaVGa+auPAArTi9TPtmjO0HSxNG9D/AyFTYlpB8fmy4SVWtrLB/CclW9ai5eJANgvzqTupxCmOzJmDAFDwBAoGwJcs5jM/H9PlCHjzUCusGTbxIkmqXl/k1HYqJzwOJRJ92WQfyEG/XfE0IxUfQSkUM+OyXYQL4d0jKFnkFhVDaTOk74fpKPSvHaPkSNNYYOnO5LNyNMIuRFgd1KfN9GLIi+B7XI/BYNqmt8PM7chYAgYAsUisGnTpr8w3uyISX94DK3RkpqEwqZPOzDR+pfPp1N5c6O1QpzexC1oFyfKo0B/HZ+QOKjANAVH1+V7HQkXnLABE1A/06PZUz/N27ZtOzJKT/DH7q6l4rbj+FvHrjkNWYYKGzLtq6+vj1Mkc/LJFqEKbaBlLdU/O6h6S+vzO3fuDI/BhQ873Muy4ZQU1hjbd1JZCqFzXK+3kZvEGF1IuZtS3CrWYU2NAa4Oi+27jMvrWeCtdg/+tY5nnL1o0SLdf44buwfExW+stLx2IWq9cFw8PNOXkU8xzNi6desyPt/gkwM3cU/FEVexGXFFYCI8j3l8UGwgRBqSvv0S3IdSHBSFMUxM5+I8lKc34S3Zlt2CvQI+K7D/Tvy43T8lz2m4SHkkn7s4El4Diaw8pKx2UEJk3QV9Fc9CaEeLVquGy6MzwClDPGhS2J7JCIgQdNk0QkrzEq5j0ay7ZRpMiDPYJQSz11Id35GKsqmHsQw0Z8JPby33wW4LTW9bvgX9Tfx/4j7GgiKYt2DBoQ/5atXYF7sP/MS/B/7mtLMduNdBm8Pzd+5rzk/KAz4Tias3agODO1RcHY12dAw8k3Y8X6QMifcExYM7JG/3eK1HGc7ruJk89e8SpyJTf9KrnMELItD1IsgGHmG4iH4+e8OGDdOXLFmy3eVTqA0OH4BX8FmDfNKuW7fulmh+1G0P5P1wtvSEv8Xu4x+S4sBjAOUZQfvXBHMo8dWvu1Pmffi38GzE/zL0mdTt8xwDCYdYo0UpcU+JDYRI+sWk/0tcuN4W5hM8/xUXJhp8d6xcufK3y5cvT7vSgPx5j5Pqd926dbsEdu39fLZs2XJbuT+9pPKA2SG0xZ7k5Z52fr55ut+gvd+bLW456zBLPmUbA7LkUXRQufouc+RXixDirZg06k9NxjR6hU0rGDqkvtYcVAruev5+SZPhHhrPy9CPiNTWSex43MjEHLd9Goka3Ic7Bh7HZASkCAx+GnQeTl1evxp3xg4R6RXncGxNtCcg1xTcN9Eo4xoYUTKNjgr5NMmnSCeFUwNnZiTmSOj99MQF1hKND+K+Dg6rkDXtWJP6y7kDqgGfdKGCQR3cioL2Cb98hEth+4VPi7q7du06lHih1kjeWRW8aPqonwH7cGS5Evpg5IkGa5I4HLo+Aqk28CCT/6+jk380kfy0rT7ctTsD5zuRt5sfx8+HMO3m9oUmJec08riHSeZ2aFJ0omYIccQz0RCuhYqeOCP8ExU2lIaDSa+FS2DA5e5cfY7JdTjKgj4JMojHJQ1taAJV5dczHOXmPCb+7WB4ThipQAdYTSTJUfkmQ75fEzdNQeQDzx1RCLJiSZoXeTIUtv79+7ft2bPnR2kT51CesC268mMLCC3I9Khvn4zMO9R+UHDuTlBwpOwlykP69fCKVdjYFW2Tqyzdu3d/EoVtPjxCg/x5jZPUcS8w/A7yZbSrdu3a3QXDTSHTEhzKh3JciFzvIi8tzEo1GqtjFbYK1WGavBUaA9LyKMXTEH03Rt6dURp13ylKa8z+jFmlsRWGTvl2KiXYYZLsuJ/A2pMqh9xR065Tp04nRIml+NWZeNPwx/DIUNbi+CLjBAaSbxGWOSvFJOC+1iSUtV+TLlDW/CjwWYX/X9iP8DzLxLjUD/fdhOeVn5+mkm7kmRHDP+c9NhStMaQLjoDhUc/OxQPY+p5QaMCqn94KDgkxDtKESp+C2eGYFRMtLxJ1pNfLf8RkODhXAmSr4zmXclyUKy5tqwPK2u3E/yBPmrJGftpl0USyK8qHuMrjgyhOWkRU1aS+h/hD8m+rjJFzIbrIw9mEoK6OoC9fR5pB0Xik38mjneP6aBj+kq4C0F+EYUkGHto9zaiDXExpM8ejrN1GmzmfcofKWqq887BfhrfuBKYZ4h7Ec2GHDh1uTGGdFo4nV5kSZaWedpBv2u5ZlHmx/iOPPLI7ytrP4+q4WJ5x6Wjzl5HP7YTpcw/lUNbisgloFazDMM9aHwMaqu+GAKUc1HXcTvmyaLzG7G/ZmIWX7Ax2Z0XKEK76+V7LZCa7/6Ii0xRTBiQpPnHKXIQVZxFbtnyfzh9MCvB6L7zeE4nUCvq3oQWNBd5aIc7Bfh3ZOmAfQZroLp8Uy4E09NM4tno0wi/Ny66NyndFGhEPfGeyGv5R3F83aRDn2PTb5NEvmq7G/LrH9i5fJmR299gSj0XBNdzxJLp47AaPGbjf5vNi8tEu2599mu+GT6iwkX7P2rVr5/rhBbi1c/ZR8g/6E7y2kFY7KkuhacKQIj+AJ80Qdg4D/n3Zjrc4Om7OYiBN0WYS/zt1/3s+erkixbCOFe4Q2umX4alj2NDgP0ntQTuaIXG/4w3knOrRtCuTttupsEgcL3qz1b7Hudn5+W/cp8MrUEBIPw/319hNTlQSiF9HXX0HW7uQoSHtLJTo2+gjLzsik5c+w3I9/sMdrRSberuOfwnpSH/Rru0tPIGS6Xgiw2uMI6HSyy5hxg6Q+qD+SUXjBHx+Ds+eSk/axaT9H7mpx7Tyo1S8g3hfUZhvqNu7WID8Hlr4KQLaiL76fhayfcSPi7sv+f2YE4PL/KN80j/F1Yn3w6s54YeR9rt+OuQKeft0ufUhVdrSh8Bdu7XNGNt+G8VE9KjJNU4iQx33U6+CV9do2nL6wfUSsvpAhKewv586eIr8V9Hf6mlH7Vgg9CDuGPA4DTu60JoLPdxJxb0uwrNZJevQz6uCY4CfTbHuBuu7UYFp74dQj1HyoiihMfsbtcLGQDaQDni0qwA61WscAb3q/Pr6PxOI7qtpRyY0pBmrgV/hITHB4R85kN86Jpa0mDSQiSKQ916eB5hI79Sg50eiY59Dnp/hSZt44XUJ8aQ4xg6gKGud4XlZJJnuoDxPvt9hokibBFyempwp90b8/RxNNnx0H6ZmDG/2zGS3cy9ypfUycJGCk6iwgYmOX4JygEWgdOCXnaaw4c+msIlB2HZwL4zey4GWlyHvyxURuaQ4/pU2cFe0DVAfUqZO9Rnib0s9vhfar3x6Hu4F8HfKmqLv5RrAQtr0FUywd8K3veOBW5P2OfhvcjTZTOqPY+kJDG3080Q92/lT9r30p9sitFze7vBpAQ712H/n3tqduY5CyftI4qZN5KRfjrLzNcq5088Q/zr64T20kVCJ8sMLdacUyWAcoI4eJX14jCteyHUY+HUEr6XZeGucoBw9qc9AWVNcyvAvyRtNp+sN8P2ETyeuxo+fks8jPl3ulEL/O8YDfYBa9RSOIzg7cVf3YqLd7KdzH44Gq+4+XW5kjB1vXDza0hbcepqBiXYP05RY0aMm1zhJ/BPJN0hGGbbx6Fg2NJKJJ8gzJBbo0HwAD2ERGvLZx5H1ldEPqFIvGqP1LGHhrP+h1AlJaEimueSmkBBxVKMOI1lGvSWPAVGGxfgbsu/68jL26S5v2nyXCg/1AT9+Y3WnTZSNrRB0srMiMmvATTNUYjgpuQBodUxsaZOnCyvWpoNrsL0lNRCksYH+V8LvSSPiQY5eDIhDonTPfzlx0i59w+d1+H0rx46Fx6J2naldgUVRCSnjqCjN+bVbBCa95SeezDS5eckksOX2zAgmubRdGxfG4K4dpVCxgV70cah4IocUi2upm1/EtQEG/xtQLuMm/eOUvhxG+SKHFgBRMyBKqJQfTH+CDF+nvB+gjd6WS1lLySEFPWpeojzCNMOQx94MYhkI7GToaD1jUUN+UUU2NjfinegHoLhP9v3OzV0t7fp3cX7ZZPsMbSdDWfPjgOfDxPs/nyY3tLOZOA+O0uUnn1Yx9NiFXky8spOQVUe9l1PWj/oPZbucR8ph0YaynhFNDG1yVFmLxmEHdwEybYvQtfOfOD9Wsw4jcmX1NsAYUBN9l0WVFjJpG1CqUxZ9z2UFrJEFJjbIWi9H6lMJodJF5exhQoybrP5NWNzAH6Yttazwvy/XYIts4VGtnx9pYxU2Vn3DCDvdj5tyP4S9J4beWEk60oyaxHtsdMxjvMiL3HHiSy+9tBa8FnthmqzUgcf6NOdmh2aYc8sm7UzfX6ib+v0uSkpcWRwrKRlPO49n9yvzZz+0oxw1abtX0cBy+pl014DD8/DcXQDfcMfIpaE+jkbZjlM2XJSy2+wsLYfp1BjGpw7c/0ZxTFAa6STPF90BCYJ0OZt2Gdev/+qlTXSyMHkIbNLGM7VzFq+XxyWKTmKKQ/pC6iaObVE0+sgC2sZVjJWri2KQIxFlHRONQp75LMTUN3UXNDTwOohF3YCQ4DmqXYde1vk6qzkGNHjfZbFyDu1/fBQc6v43uq4QpTdmf6NV2DhKm0SnCndIGISmuMnbrxCt2gjTBJJmSKuvIA9OIxbhgfc2jn3uzpWUVZzuDKUpFKk0PePS0gD1RmBaZyA9C4Yd/4yL31hplGlGVHaVO+l7bMT3O2ba5EqyNH+K77FR/vLDZ5ij494J3i86f6E2A8NztL1nc6UjXlw7rOvYsWPGsZXjxb0oXQK/w3/YuUlULrl7lHEER9qwnzi+tWSD/YqoPNAORu5r4nZIoevzKA/qwX1bNG2J/vuj6WlX7XlB5OQo3ffr/2vxh0fsyDXZD3duFgoZ/ZqwZSgxcZOsSxbaOnqE979DQsoB7YQEBTdO6a26woZ82sH6AY+Uo0qZzlHGqXyj5Aw/dbwjSqQNHhalyV/tOqzlMaAh+66uNTGHfwMZPhtTT3MZkx+IoTdqUsvGKj0d7Cxfdjrmo77fdxP2BP63+TS5oZ+GtShKL9A/I3W0lzMZMr9BpEGRiLFHdjTCUZF4kveFuOO2aLzG5Geimk+n2w42bXy5GRS11f6MT9NOFPHCLXiUkzQFDf800r3PTwNmE3y/5x7uueej2Bd9TEQe2vXMaThye5PBNyMedd02g5gipI4F70oKj9JRYjZGaWBW0zuymzdvnsZb0BltALmPpzw30z6uY2cm7KcMxK9QRj1lN9olRfFZBuO03RVk0bFo4pElF9hPIE6wAKY97GVh9WSccMQZHaVTxryUNZcOHlq0neL8sqFpcdeXR7KHBnJGg4NWSaUpzNt3kOd0sH3Tp5XbTR56IaSrz7eAsmYsnKmXWJzgWdU6rOUxoNp9VzvdXbp0GcuYqYW4/o4yYzFK/5tJ/9PioMmZYIBpbKXiHpPeEDvSk3sjg3jG7oULZxKfSiVudn5nU9mTcJeEAXwLmQw3uLydjQwZk7UutBKuwTdq0rbto4GN1K/V/pyo7OCaobAyqeuDoK0VV/Wpuyd+OtqA7sdoJR8a4nfVa+chAYdWZtD7OBppZjp3MTaDR+zAHuWVul+S0V64FJ3RBqJp8/WjEKa/FbM/YUae+fKrRrzUhfV74vICW93N+jnHHl/kyZhU49KUSqM9/CXKg/YyhKOwoVG68xN+onNjz6WuM3Y6UQQ7E6+3Fy9wQsuIG43j+4kfq/ggt7BKMyxiMhQ24uXVXtMYlehJUn5KZBtNnqasKhCsDolGivo13oJJxi43MmeMtw1Rh1F5c/mrOQZUs++ycDuObwDex3z+Ter1DJ6osraLOruVhcFX4vpfLtwaQ3hGZ24MQrOaTdtdo5IWMJgOSJKdCVFfXV9OuK/kqTN3pRFMoIITlb0knkXSM3Y/GCi0Mk4zyNoljZDyEHdtHL0J0HT3K7oTFtxj898+o6OG99fAYgZpohOP3tKcRb1O9DFh0tfF/pcdjXtw/u6a3pqb5cIqbSObFg5pRzfUd0YbyCUHSmcH8OhC2g5Myh0pgyadDtgDo2mhSymuaUMf/B19sQv4nBsVFFoLnndRjlOI8wDu35V6QT2ah+/ng8aP8UFevZ3dwaeDtXbZFvo0uVMTvhYTQRDj0eTAEflh1d+Jl50i1GDxUZDCxmdI1vJpkww+EDIUNmSKG+Oj/SaOV6Oj0T5mUl5fcVYZ3s3O/J+yvfzCQlD/dpHWB+G1XG9eR0FoiDqMyuD8tTIGVKvvUicdqKaMI37oO6E/wzz/B+os7tqRg6zR23GduaYLpS1RJqVTfCHxH6fHp+XrprJPJW5VFDYm1l1MsjlFI06nuEjQ18TRGzuNOpgRGS+DI57UPbbwWJQ4oVKHO+041GEAfRruNIUtle4OFwd7mHOT9xYGnFCZc/RK2eS3A3kKZs/Kvh2KwETSakLSZzDCHQHXppL40jeKPu4tWNASElAPN6GQ6d86zoxjA127q+8Fw3ew23Ybx+mPxcUrlcY/J2xHYXtEefm8yHcSk+St2in16XzAVu0t6NjE2bNt27an/HDnph7SFHVHp1zrnTsfm/x3gtMW0kV3GPrGpM8Y45GxSSpstJ+/0U+k8IeLdzDqxmdPvoJS/WN/8edw4sWC03BnLBKg3e/i+HYD1WEgQi2PAdXuu+pnPLfzvLRmzZqiP8nk121jcNc1BiF9GRlIJ+GPvfflx8vXTYc+TiuVfONXIx5b2pnLcDLmDtSWauRf7TyYeJeSZ4YyiiIy0snCDmp/3OGExEo3VmFLoA+hjrs5XtS5r7DNhV7TExjKyTsYmO5hsvgKsuuuVKisuTJhb0WhW028jLJAq+kjUa8MzRj4f8LC5hpoGcdRLh7l7wYWX2YC+zq03Csgl7AAO/WJjzTcyJcNsoNOj2FzkkebHqcYKJwdurTjepeG+pEiWqjZHpMgqsBp4ZOhsEHLaCMxvBojaQ+7LD9E8OhJxonsot1Ge7kCRfcCnnfxfBT/DYwxXwKPNPypjwdohw/GAdAQdSg5GsMYUOW+u4t54w9cg5lV7Pcz4+q31mmNTmED0LN9UJmkltLBFub5ZBwpqrPSCd/u82xoN2WKG4x1dBe789bQ8pYpfx2LphnqdJQjUPbxzg39taQ7CtBXEP6GiyubOtZMG+zOaYcW0uEunKCqHYe6PAuw65hY/iulqKUp8ZSxHj4Po9x8eePGjRdyRHgeA9hFKBpXxfBvFDtsTm7G4Kkc+32cfnAn5YxVclJxTwSfa3FnKCWOV7E2Ryv6n9vnYtKf5dO064GMYxwN92TnjtosJtJ25rzwjGMeLyzJ2TkagLybYmhlxyaaRy35dYxJ2/kcMr3qywU2ehlB/xbxSZ4v8nwIf7ggVFzqbj396VfaLZI/zjRAHTaqMaAW+m5cvTUVWqPqzGxf6w+rj3Dg08E2M5l9Ot83/BjcdWz6bZfe2fA4FffDzt/QNuXaGicDcmrQaapmBgV7Z6Rw6FcD2+iIirL7CtvUSLw0L21E4f18IpiOxv93dmj1V2HhrgwKzkw/Xi25WVVfiqwXRmWiLH9iUvkN9N3RsAR/2k5RQpyaIuvYD4HupM8/CAYf5tEl44zxCtrx4PRplNWfVaAAOhbTEXRoyO8QZBrNxBQo+kzwE9ilCXZoqBd9HubZMHLEwTehVqHgSXlOU9DgGbdjGkn9H6/uzMVhQf5S4tOMFn/IlEbDU7aXXKKMa8GvRRtyfIqXjcZwWvGDbDKBmT42rfj6u7e/p9pdYpJq12FjHANqpO8m1mFjDsjoybVcGAbG6N2WJ/JV1lQuJrkpdM710TIy+A2jY2Rc2I3Gq5afbf2MgVd5I3vGG2ZJMhG38ItSScyqQGfim4nM+/ysqJc67p8cznGmJsRRLgx6VoUNXhnhpBmu9GRxtOODvbFWL6mqzMgcbe/6W7LHace/RPZ8lTWVuVHtsHn1E/wtE8rYzyn3FdBjj0nB6V3+kbefvhQ3Y8tc0i+K8iC/cJcfd3gcinsKaWIXWykeat8ZZSBdQQobX9nvFpVJfupZikeagXeacpgKbJ8WKbunUY0jflGYL453frDRfaeraEdXQ/sq9sdXrlx5Ln3pAtqXFP6/5lLWUryqVoeNfQxgTbOhzH2XKgz+wk1H+hn9yNV1U7YzVqy1Wtj+/fu3pbJOYQDyRfy778nDrf/rmwyP82Piapftjhh61UkMHPoPVP0XY/QI9ASEuTWXQNqVIu3AaDzKngZeNLwh/erc7D7oGGOwLwflGMKRdTvsg1L0rQyy8/04UTffBprDh5X15lCw86Fw3L1QynviPMrFZ9Ce7dy1ZrMzMBCZO0blgvZYlJaHP2/lLsIrxC9CL6uXetGXyrUD2gxlW/9e8ftoBtBe4R7jp5mEr/F3WxUPTICrpdrNlGi6Uv3swP4F3mnHzOR3QkpB3Iz7GJcH7WmycyfZxHkT+Qf44fRLHdff4tOyuYnfPy4cvhntmfy2g1k0enRciYYHfj4GrJdbYpXD2AQ1RFSbQvZzJRJ47WbM0Gdjiu0HaSWrVh3WyBiQVvaop5p9F+XvcfLXc8CaRrPD1qNHDylr/lb+IjrhokJrjkHt0bg00N8RR29AmpSXNEP5+zBpBTtFaQERD9+q0duEPlaRGLXpZSDMuMfGZDOYugnun0lqBt+ZWHuylUCv8BNvTjQOtGHgEipsKV7RaDXhR04plxkGjNZmED0Cg3wHzxs4i20L5JXXxB7Nrwi/lK0T9VDX/g5oGit2Q7dwbPVd6i1jB5p2UpHrAuD5L/Jb7wsCni24EzmJhYQ+5aE7kWqX25DteT9egvvFKB0e/VigjYvSk/zEf2c0jPwXs7u3JkoHlwysSN9d/8kbjRv1U/b3RmmNxU8ZQ9lxt0SxCHfbylCGqtQhcjf4GJAHVjXbd/OQvdFFadlYJKbxnuXLymRS6O5akJxB7VUGx8XwG+Tzw92XHZ4RhOsYpMENA/AUZBwTFYQBWAPRfJ6040MXL/W/lBc5fyE2V3POYsJ8VzQNcrwJLt+L0svtp05nkP/7fb7goHuLwaQoOnGm+eFJbtIoXnjvTfGgnc7TxaXBLeWvsZl+CLwkTmgdoUC/LBoGhlujtBj/higNfHpFaQ3tZ/d5M/1UsqYpk7SL1yohG+1+F5P9w2BxcYT/WPpiuPsExs/mc6S2fv36v3CP8lz4pR2Dkv4c+GcsWCJ56m3BnqSdEKWzM/mLKE1+LuAviftmG8qmduv/EJdGNMbIk8jnpKTwGqfrJCFNgWdc+Rrt5i1wnkJbmULd6d9N8ukXGUWtdh1mCLD/fu6SGLo+Cl7KGBDHsmy0UvoudTeAutPfup2I3RV7GvX4LLtuTyCgjkgPCNModtj0pXo6nDT5wFBhLGZ3qqKKMqT/Z1xC6KfG0RuChiyP82TsJIHDRBrv5xNkasGdr88RNiAhPCuZQex9dISh0Qc5JqHMhYpOViYlBLKi1z8V7PBZIIsU6/BzHvjzOvaifWTcYwO7UIEjn1V09jf9vGrJTV28FicPdCnjGf1WAzXmm+AzMCZd3D2mtGhgsyKNsN9zdOo/MtOCaH+daQ+T0ojl87TLxood5vbUXVTZ2cyRacG77dny8cNoS/rD9d0+DfcIJoyxjgZ+k507m60XaOD162gc6u04lKT3RelRP/Eu4kmrf+R4nH/9iF186HoF+a2M4XMhdTgkSpef+h2BlXYMHBevhmkUOfP/VpG3L9idSx+6nvD7wfu3lPV/UILfg533mFmtOqz2GFCG+qxU362jjX+butNmhepQC3jtxn+ZuosupMpQjNplkdbxa1VMGm7a7hoV9oy09WLllbJHh81QhuD3ttQKpVjWZUunO10wuz+B4Vk01G+hyJ7OBNYLmfsw+J7AAHQz8U9XGso3LyFtLFkTIQGhYuRHAm+ZkT6tEm7tZiB3th1O/Un26nzy5m2u1+G1Kiku5ZmVFFYLdLDQbsCmGFkGU88/0qRKvXegHRyM/50c0f1GCikDWwY+lLVjDJ80EnllKGykq0MJ1B+w9yBynf4SjrzeT9z/o09ejfu4NCZl8JDncPj+V2qnOI2j2jk7Q98jjtpqaPA/gyd2xzmMVIIjpfQ86bMgz7bgHSwiwaOe+spr51c8aMOPkWZhhB8sm19OfX7Kp3vu5oR9jjhnejT1c/0Z/K0+LeqmTWTspMGnE/L/Lzzfo2sWmN6MIaOp6yvgdwPhujO8lueRKL9G4r8D2RPHQMono93qk8HhE9i30e7u4Pls9K/s4spbjTqs9hgQV85CaOBZkb5LGz2JOjo4ThbyPDmO3lRpzWuxYFr5UUH/j8oIbsvS8Vrijsq6y5P9PE32nj/DSaV/AJ4f9gJidx3IazdZBYM/br1ZpAv8Rygddh+stJUY4eugudX9/dyrSzvWYAAYR/j5PDL94KFBIjSkX4vnVREI09GjlK7AaNLi8rxwCPJ39Fw2PDUhrKC80dXHq8qPZw9K6y1MROEknZqUf5/EmyOXm1Ei/5IUXi66JhDk1gCaYZBbn7P4ZUZAAkGTD0FnxQUzif2vBt24MJ9GHVAFnb7s0UZSH1rhhQa5NPluhL6FN89+Ev2QI2XSt5/6pxKMxt06TLzfsQAegXKGXA+A81SRkV+yqwx5GXjIXA//K3hCJQ3aNhgEijDuxZQ7Y4eH8DryE7Zp7dtlLMbwjPbBubTXK12cYm3w+SJ1/i4/PdlpZ0h/NbQK+yDCBuAey5O2yASvObTlq2nLO/305XZrEmcH+MY4vsj3CO3yx3FhSTQpnxxVfonwEdE4lOlNyqlrDwt43sJ/GPjoXupwPy75auy4ITrm+HFS7hbU7W9wxy7IYuJLEdRO4FfJ81ieD/pxoGvcWCYasj1Ge51MHV5CvHzHSSV9Grn/IUe5DWVtxXh1Apjpu2ujxB+Z9+JOaztJ+SouYX/mm2v/l61dVaMOKz0GMD9p0fHRFBZA9J+XaFI0Yfcy7g2E7QPXO6jvV1xYNfouebydurzG5enbyFZPO7rQpzVld8taLBwNQ28FhpMi7jgxQ4WLexqxESKJpCiFaSJhoZe8QkxoDHX4dUR4TBgh4iBM91gmiEz8t7Cmy+2Z2DsnLpz03XHrUXoNwKHClvr/uy/QqS6FfiFxc5YTHrNowD+ikaetxMUfczgs9Oir6//Cr4E3MEy8a8lnG2GxLytA7+jiVtJG/ih+YXbIkPcuhhIxuEyL7s46ZgwAee2wccQs5SqoX5c2aiPXUEfj5Zi7UdiWOL9s8joa60ifFnEfBY+AhC3lL1DYqJOHqcfhpM/5Qgy4SaH6GXX/FPV4ETzC+oKuOnVtNOxXQYb/+dEb1LcQ93v/If3HBT2t7RH3Rd6g/MF/YpTk0sevtVAK+x7ubjxBuSNZhxmRZsrq1auvB++KKmvKkCPHl8H1RWRRXaYZlBb1pYJMarF0JYvT86jfy+Ab1gv+g2Gm5zQxpQ3LCg3lVl09TLxf00a2hgHJDrrCnhuJ/z/k0yE52v4QeG+mTN9jYn4R+YZF84eHFq561LalVGqxmfc4qfjksVR2uQ11pP+cvRyZO4k37u1YN9MvHuV4/wjGPZ0USIkb4WOOPzTQpdhdyK71cfS/r7HAeTMM9BzVqMMqjAGdKW+u8S1QxFV04j6JFSpsuCved8nzDeUdZwh7Io7eVGl5rTiqXXgqoZABeBcdRyuishvk2Fwq00J4JJRbr6T/igH0Kww+L/PEYgN9C4Pyr+ChlchuHh2pFmI04Wdb8a4phFmxcZkkllAW7VqmGWjhLlFaQBYPg7a+7ZZx9A1tOQNhXuVhMaCdBuFZtKHu8m5H0TbAZPED0l+HDKFyHRWEsCl8u+8KDe4Kwy/FP9bAf1NsAETa2XT4fJH0r8XFgS5FYZbkIe4X9G8AcfEKpVHG+9jNuJh0v+PRUXBifyZsN89jxPsUMnwtuptZaN6FxCff+6Pxoa2jzc6O0vP1k/Yv1MknwFR3VhP7LGFE2fsm9rPE/wKY/TxPZS0QhXymkv4y0v8zSTbCdhPnofr6+o8qvuKRV9a2S/ys4VnySmyHSWly0VGuPoW8X+RxyppOSr5LO/k79t65c+e+hPtenmt4LqC8V/H8iUdjS4aBT38U0iszAiKEStdhJccA5oxC6yFt/qlG36WuFtHObqWewvEG906eKXzC6c5IdTRpb9qquUmXtOkUro6BqQ+NdRCDST8NmLiXrl279rVyTl7kcSr8v+xgIx9NEi86v9lVR0B3yPpxLDdA9U7uWxls38D/er7KZwES13EE2Bfe/an33uS3nbw0WC5hckpUKgrgnzWqjrRQHJVvX57eRN5N/iuRZwVllRwZSnhWhmUOZBfnt0zmqgOZe5Hptv3O0n/Z0RoIF+3Kd6ZfazdsA2Vfxl1C1fOu0nNopjcJO4DlweRxMIuaLvDfwm7pa+woLStXHuWQsxAetNcJlOm6SJq8juzBvAtY6N80zuRJ386EIYuJD3MndmWEd6K3gnVYzTEgsXzZAirdd8FW16W6r1q1anY557tsZaqlMFPYaqk2akgWFLZP0jEu8ETSPcF8jl+8JOY0BJoWAigGw1AMgvtqKFQyl7KQiT0ya1olr+3SoCj8DxKeHJHyd4xZt0doiV4U8XejsH0uGoFFy9XU8bQo3fyGQLURqMkj0WqDYPmlI6AVOAPX6Y7KpDTTlDWHhtkHMgIsYtwLRDouZB43Za0W2gNj1MCoHNBijzqj8Zyfozd9viXjOJ56Dl5Cc/HMNgQaCgFT2BoK+RrOl6ORyxmkdByj+1B7OZ66tYbFNdEMgaogwC6OLqqf5DKjb/zFuc1uWASolx0xEhwHrZBTJMXNiM+RaOKl95g8jWQIVAyB8K2siuVgjBsVAhwLfJTB70wnNO5HuKwbewndxTHbEGhqCOj7hhx9Xo5SFi5qcUthCyZ0jskWsLv2fFMrd2MtD3WjT8Ac6cuPX98Fu4qdsxug59wlI+4HXf16fOam3gb1SOY0BBoGAVPYGgb3mstVH0XlYvNnGbCGOeGYlB5nUrrR+c02BA4UBFDWhtMXJvHEFhkF4bexAUZsEAQ4BXiST3acT32Fn0eRIPhPQxE7mvp6iO/1/QvlK/oGekvCRxFP3zw8MSL8W/AN7itG6OY1BBoEgfjRqEFEsUwbEgFeMgg/WMvgtofnTyhrcR9YbUgxLW9DoCoIMImfwiT+1bjMWMg8Qd/4flyY0RoOAcawo6mz63iC6xwJkujfVNYRZwd2F+J0xJ0xDxKmb+59g7u7GxP4GNkQqDoCtsNWdchrM8NNmzY9xBf9T0a6OQxW9zMhra5NSU0qQ6DhEKBvrOIzGD9vOAks5yQEGLNeRGnTKcGZ1NPx2P1j4raCrk/FaPctLZg0+hal/g3mn9gPoayV5TMqaZmYxxAoAYH0FlsCI0tqCBgChkBTQYDvPR3DG6Ef8cvDJL6ZC+g/LuSbXH56c1cXAa55HMI1j/HUW3d2RTthazetIwrZQTz6YKz+Tm4D7o08K/DzmcHKf2ewuihYboaAIWAIGAKGgCFgCBgChoAhYAgYAoaAIWAIGAKGgCFgCBgChoAhYAgYAoaAIWAIGAKGgCFgCBgChoAhYAgYAoaAIWAIGAKGgCFgCBgChoAhYAgYAoaAIWAIGAKGgCFgCBgChoAhYAgYAoaAIWAIGAKGgCFgCBgChoAhYAgYAoaAIWAIGAKGgCFgCBgChoAhYAgYAoaAIWAIGAKGgCFgCBgChoAhYAgYAoaAIWAIGAKGgCFgCBgChoAhYAgYAoaAIWAIGAKGgCFgCBgChoAhYAgYAoaAIWAIGAKGgCFgCBgChoAhYAgYAoaAIWAIGAKGgCFgCBgChoAhYAgYAoaAIWAIGAKGgCFgCBgChoAhYAgYAoaAIWAIGAKGgCFgCBgChoAhYAgYAoaAIWAIGAKGgCFgCBgChoAhYAgYAoaAIWAIGAKGgCFgCBgChoAhYAgYAoaAIWAIGAKGgCFgCBgChoAhYAgYAoaAIWAIGAKGgCFgCBgChoAhYAgYAoaAIWAIGAKGgCFgCBgChoAhYAgYAoaAIWAIGAKGgCFgCBgChoAhYAgYAoaAIWAIGAKGgCFgCBgChoAhYAgYAoaAIWAIGAKGgCFgCBgChoAhYAgYAoaAIWAIGAKGgCFgCBgChoAhYAgYAoaAIWAIGAKGgCFgCBgChoAhYAgYAoaAIWAIGAKGgCFgCBgChoAhYAgYAoaAIWAIGAKGgCFgCBgChoAhYAgYAoaAIWAIGAKGgCGQE4HmOWNUIMKYMWPOqKur67dv3751M2bM+HMFsjCWhoAhYAg0OgTGjRt3MkIf3rx58y3Tpk27u9EVoMYFzjb3ZAvLVqzhw4f3Puigg96tOHv37v3nzJkzl2aLX4mwYmWvhCzGs3IItCwHaxpLzxYtWhyxZ8+e7gw03eC5m2cDStl6aC/TgFf7+RBnAs9R0JbzmMLmg2NuQ8AQOJARGKPxkcVsPSCYwlZgSxg6dGjHDh06fBb8WvPcXMjcU+y81KpVK817p0pU7HlYVVfYipW9QHgtegMjUJLCNnbs2JE0lLPoGCMpR3OUtoziiEa8RShud8+ePXt+RgQjGAKGgCFgCBgCZUCgffv2o5mTRvFot+tEWN5fBrbGwhCoCQSKVdiao4S9jxKcR8eQ8QuzkY6yD0JndtiCAOzBxNnkRzK3IWAIGAKGgCFQTgR27969vnXr1gFLNhLWlZO38TpwERg/fvxltKdDp0+f/o2GRKEohY17Fh9DAQu2gCU8BZm9a9euB9lFWzJ//vzNqQK1RKk7mngnKAoFXZaim2UIGAKGgCFgCJQdgTlz5sznis4NzEmtZ82a9ULZMzCGBxwCgwcPPohCn4wu06qhC1+wwoamOQahA2WNTrGb5x5eHHgwpiC7oc+BrseMIWAIGAKGgCFQaQT2cW9tWqUzMf4HDgLcidSVrwZX1oR4wQobCtqlaJpBbeH+c4KyFoQX8jNq1Kh+XN4cAs+DedaRx6qNGzfOX7Ro0Y48+DQfOXJkP45eB/AcQnwdyS7bsWOHdvxW5JFeUUriQf7DW7Zs2Q+5uyN/HfZ6ntW457G7uDWLDHWsCA9B7sM4Su6fSreUbf1Fzz333LYs6dKCyL8/9wX7iLh69er5y5cvz5a2BXlK8W7GEcK6uXPnvia3Z4rC4sgjj+zetm3bQeKzadOmuUl1xw5tK8o6SvEo9xLwWSO3M+zMDga3Luzavj5v3ryVoo8YMaIr+I4Fn76Ebdu6deujCxcuzHrMTj7tyOdo4u9mtT1LfCh2T3gcTr4D2RHehb0Y+zWCNyg8ahqiTK78yLWMHYNVwot6GoSshyNfD+R/A2yWUG9L8e+JyhzjL6o+HZ/Ro0d3Ie8R+JV3JzDdjL0+JUO07bhksotu2yXk6ecfdbcAyyHI35u+0hNbK2e1vVcZxxZFI8sf14Z0sR2jNqpHl9tXgI/a8atxPKI0jXW05UGkO5Rnk9ofd69eVX8HV41deRsW0ENJ35F0O1ML5Iy0yg/5+ipg586drzEmxh0VhmMC/FbQ7pZHGbHT0InJ6zB4DSK/tsj+Ou1ycVzcaFrfX0mZXX0pP+R8hTrZ6OddLffEiRPbMv8MIb/BPK3A6i3kURvJ56Sp6H4TV74KjCdBNmWec5rBrz3taiA4DUj1z5X4l65du3YJZntc2co1PsfxFo32NADrbBfO/DHeuWUntbFiyuLzTXIXpLDR8Y8AwF5iRgNcR4N8KIlxPnR47AGAgyn0Vx1fbL1pEyTv3LnzOsLvZMX0XBK/1AT8aXjordM0g/LQjMHhBQapXzKobEkL9Dyl8GBiGULj+iQy93Msnfwp/x46zFQG05+4cGcrX+T+IvEDJQc+LqgZk+FGeN/iFI0wIMFB2hE8H1Fwz549b0dheyQhql4CGU2+VymcNH/DCifdUrBg0hlHWS4T33bt2v0P1mK5Y0wP8g3yJ+wOHsngm4sIPwpef4Z4H53mC7SV8ci8v2FARKF9wk8Q52ZCHqh8sPcNHDjw0q5du74X/1kuLu7Aib2bcv+OdpaBWQOVKSg/5f3rMccc8zRl/wqLmR5Obtl8RkBt+1XCfhxVeP14pdSn+JCH7m6cQl2EY4XDLSXDGvrXL+hf86L5Ftu2i83Tz993a/JExvMpx9soRxcnP/KF0egTC1gE3PjSSy+tDYk4XBsSjXYoLM4m3QXywyscq+SHx3Ti/ypJ+dfRSqdOnT5F+uNcetmSB/m2U1c34t0lWr4Gec4n/WjsvUwSH48b5wj/CHlql6BZmzZt1MZvj/JH9iOIE/RJ4v+JcD2hoezqNx+izOEgpfLrvhhp/71q1apf51gkhrwqKbNfX7g15j4fZlwFB8ruXtrvB5kbzwHPcLxyWYPV8/X19b9hMau3gDOM+ivpyjIneMzLNp54PNVuyzLniCft63TaxcWUff8FRGi4g+y6d+++GV3gl7y0OCUgeD9lHJ89rvud1OPHcJ3mB1DmoI84GguWn+F+1vllF1sWn0eS+z8jVlIMj86qcKLzAu4DrNR2On8xNhWixvltOn4v+O3gWcwzn44W7HZA70b452jEh8bxB5gjAfAHxAmUNdJu53mFZwmPPi0icyyT3f8SN1hh7if957cUHtKiyf8LyBkoa8of2Rdgz+NZpVwIa4E7o3OmlN/vEx4oa0Rdk0r3Ojy0ytZLG1+h7G8Tn1yGgeIp0gX1Ac9JOeKf5MLJc7Jzl4KF41Fmuyud5lOU5xiwaI6sWmVpR2Qru0vr881Laen036Cu9EbzXp6VPK947awlYR8B68vy5VlCvELKpM87fIu8evBsRV7t4CyD5tr24fi/h9wHY2eYUuuTyUXfljod/ANljXxX8MzkeY1nhzLE7sLzhp95KW272Dz9/BPc76QddFEY8q4Cyzk86qvByp2woxj8L09IG5DB4RriXUA69U/11/k8GmuCXU7CxtGOYnlIWWPSuZ44gbKmNDzC8UWeeni34bkS9+hsMkTDSDNHNGxY1x0dDU+t9EM6/MdH48hP2mGOzmIx4On8tKPPw//DPC0o+06eRSnsNqfSnti7d+/rcAftxKVLsqshc1LelaYzR15MHueCp5S1uDZyHEq7FIEMU0q/yWAWTyhpPImyLMecI560rytpE5eBWaCs0UZX8ahfBGM8YR2Yw79IvA9FZaiwfxcySJ8IT3JSftHck7aDW+my5NXBPFAOcW4GplecuwS7HQXfR4Voh+Vudgrc6lJbwu8jD72FSj3WfYDwH0TyUYdQw9exl9g8wA7JPfg1mDYbNmxYa1aTl5Neq2odU14Cuaw8WF2+B57ivRf7BuSfiR3kj62G2Je8JzAAZqzy6NiXEtaeaLto+P+H7I8rjQyT1kh4fp5yd8C+uH///lNzrV61sibdCyQ/iXSHMlAPgrY4YOj9pLbqx4oE78XeFn058PRyKotzElykqKnj3oys87BDfHHnbcBaR1Cvk+DnXpl1RDqRMO16tMY+DdweBbfleTMuPOIkkuRVJuTpg8xqW/ch833YcgdHB7S9L+AcQZyOyP5e3D9VmGdKqk8d+8H7/eJH/5rDSvKn/u4NbVvHtPqEQueo8lxs2y4lT6/cGU4dNdI3HkZWLZ4mg+VbLhLjRDfGiasJ03WEMZRrgN8+XLyUfTjpV9Bfb2bH/GUXRpvpz4TyZdL34hlPXoOjR6wcob5TeSgNeC5lTPi+jxvtUB8Tv4g4HRzffGx25uZol0uG9FK6pgae1A91oWsE4ThPnJ7s3A9kF3CJH49yqS2JtJWdjHBsR67x0I9XgJQ0fxeSXes2LIQ+Qbj6UD8WV2fxsd8HFDebqbTM2fKudBg49FIboW/cDI6xbYQ6OJZ2djjtTAuw0BTbb0IGORzIVsp4ksG9DHOOG3+PEXPhhvUjv/+hxA6jb30eemfC3w1uL0RxU9pKGNryHeLr77SR97VJeaXmkoqWpaAdNgQNVqgSmC3flUmCF0KnET0vYADCKWtKvlfKFxXkJs5DozwBR8c0gQJJvL8R/w/ECSdz7f7B82YGGSkxWoGOkSLk8ymVB/kGx8Pw3EheM7DD/JUPtLc0gLl7WKLJpCp2kNzId7+vrImmuyjQNUFL7k59+vQ5Xe5choHgMReHQfxk5/ZtBsvjiOdWMpNdWKlYOD7ltJFTis1mZL4aLOfCOw3fQvKCz17arJTqZX46sH+OsNtEU34MDhf44eV2F1Gmp5H5j8gRKGuSRwMl7ep7OJ3icSwDWz+FOVNqfXKdQB8DDSZ68HnBV9aUBzLtYtKfCn5hmxO9lLZdbJ7KN5ehT90LZloUOsyCJLrPRfn847/YnXhFpk/uYyL+oT8Riw42ywm7W24Z+KWNV9pdo97PToVtpx1+x1fWRAfHR0j3oNyFGOVNunVKQ30Nj6aFNkE04ryMjDvlRjFI22WTfJC1Wyvj9zOtlrVYVvp6yn6Df2Sculd0M2HBTgj2+URtofjZTIVlzpZ1xcPURlDGbyi0jZTSbwosVFHjSVIetI+w/xc658CzJek/KN6ptvmN6PgMjtrFvl64ElcriksUvwZNVcpSrMK2NTqAFwsgk3HSIEU97QtWKNhdtWPm50HlOU2WcWT3Q36Y76ai7/f8Ez23JuiSeCBXMPkzKHZFGXynzzubm53DkxSuRkra2PLz4sBkx4N8Bjp3NpsJaSFxAyUX3idoFyQm/omiEW83E8czLrxULByfCtj3Rie3IvOYHlWcHR8my2fAY23Kn6bUuzhltgsp08MJeUuBC+7+0YbqaFMj/Hil1ieTzptqI+IJ/9P10ofPP8ldStsuNs8kWfKl0w+WeHF7eO6ocwYTSNrxr4vAGPSSc4N9b+eWze6a/mqqk9zYT6MkbpY7aij/o2Cuei3UuGPR/vT5zi6xFDH4jZKffOfwBOMpY0Mw7rl4vEig+6KBcs7uYXgcSp0Pgt5f8Ujzj7gxX4o7Yc8qDnHbsHDoI3cepiIy55FvRaNQ9zOlkMZl4rcRsErDqZR+E5dXFlpR40kSv1LmHObMgeAQbHrQTrXzvTEuHylxxJumMOyhetEgLl5D0qpVlqCT5ltQwNpO3A500ILSJfGHzz4m46VJ4eQXrNzoBM05tmhLvGCFmIrvGvzybBO6tv4BU3+Tpd1Bl8Zl6fxF8UB+XYLUJeTWPJcyWE6A9ggKgHbbEgdeGmdvyiaFsZ4BcgirKydPmq3Bm3hSqhNX/WkJ8JD/43R+XTLWcatW16FSpoYOT30bTwrb9MjEURIWUTnK5WcSC+UvkWfazlqE1x7883l0fN6BI+i2uY6gI+kL8uZbJtU/g1Xs4K8MWezMdsdhxO0ZEaKk+tQONe1Zx2sTaUuHsvN4A/3oUfB5HJnWRPIKvchRdNsuNs8w8/wddfz/o/5OT8pNK8oXKFNKTv/JtkOUOFYxBm3g6CSQAIw0VvkmrBv4z/IDfLfGMXisg5ZNafSTBG7y067YJHngr/tqz8ndpUsXKWvBQpc2N4dy7qTMw1WfjDk9GadWKx7+cGcO92zRZNiJCxVP6LqmEt6F2x9j/69fXqJprIpVaiNpKiKzn0dDuMF/SVK+2dpIKf0mKb8ovcTxJMou9FPmouYc2krYvmAWLhRCxp5D/Ya2e4xIvOyksc0tsL1YDeesVlkKUryocL1m2wPhWuu1e5ShDSVCJI1ak2WsIa+kIzApMcGghkz5VJwmGClsvuJTMo+UMngDMvy3Bi2eYTSqYUx0+qTH46yoHovBiKD9qwqVgfhfx85q4C/Z8zIogE/B/4OqIxJM4gkVHo6cToCubWUN0pNlp0zJWDhGZbY3xq3qi8kjVztROLgFrPv27dsDhU333SphCimT+lei4g82a1GigqMC2pE/yZelPlHMbqIttwIXvaGrBYDetDwX2mza2T9o27MiABG1tLZdRJ4REeK9yNyXQV/3xEYSQ592yaaYxTKh7FKmkkzSWKW36UKFjTEhGw8tpDR2+HWZlF9I5xM6c3hhImgHpJXyFShs2O44tJ6dwVd443gb/D+USjge+xG5STNMNvi8ydFxqIyDVTihEuc9lOM9ipfD5DVWVUrmHLJVPLjINgK8pfWbPAtW7HiSlX2Rc04z0vWhTQW8wS1sd3GZER7O87RLKWzz4+I1FK1aZdHAnrcBtPDeGu5gKzPvxDERaaRbYsg5SRyPtiOtUzb9u29JabcqgDRtXIRy8BAv3TfbvHnz5xns7udRh1A+XbEupGH9jFXpGaI5wwXldrhbPti+2QAAKEhJREFUOT841ud64FPv4ueypeCQf/CSA/IM10rapaFzBMehkpOt7HCyLRcWLp9cNpNWXu0OXDbl4pVvOLyC472k+IRvc2HgI+WkIFOhMmWVGQG12AnaP/J3cAKXsT53o0DdQNm+D//Z4KIXhOp4xrD78lWUoG+xUxVO6mVq2wXl6cqczWbX6lzk/xHtX2+8arCXZq43+HSva7rKli29CyPtZucuxCaPsG5Il3XMQ5a8+7qTQd8jRLYl8mMHyhdOzYRjRYPnNFlTp059HXcwhjOmSGELXmDBcnfu0nY5iBsqX7j1Fn8+Y9V28c1lKiVzrnyrEJ61fuPyL1O/iWMdpRU1nkSZRP3FzDniQVvt6Hjh9k/PHDm0aXvBHC4CcaM72GG8JEe+43NS+lz0apXFKT255AnC6eShwsYRiVaqwZ2IvBLHR0pclcZH30/l6GQLk0VwXIhMOSdXwJQCJRMoVHKUg4f4yKQ+4HoPzj+x83gsE8MZ5DkE2bTL9RFk7crE93vFVePGv53wNgzkc1D4vit6OQ2N8zHq523k3xzN/23wvo/V9SE0+gHKh7yfwgqxLycW4p/LIJeOoqptwsknLmPqLAzn+CjrLkhc+kqUifoKZYrLk3akhYvamEy4Ai13faZ20mZJOeNqgu5qTuJR3kM5kv0ud52u0nFeOdt2vnkiR1ZDfzyGCNpxluIiZejulStXPu8feafK9dOsjEoIJO/gaodYoOh2wlqVxA5MfeUuKVoGnXRStgZh99HVB76DqJdQtDjUztkU2TJgMJU4Z+M8Su2HsWIY/mABhZxRxTVsU8S7PnqRPmBYwg/5VkLmEiQqPSllCsfVfLmVs99ky7PY8SQbTxdW6JyjdMgTLsgZf0PlzfH0beazcCwE4w1+WD7uSozPfr7VKkteOx1OMIRa6LnP1mv4zl9lW50iGASRKddOH/XbvHtKPr027Ew5eDhezt7DRPMsytm1EH6EbG5Fc7ZegXeRsAM5kCvtzT4vvCSnBlbyDo70aKjHixkd6gTHFPeTzp2yy44F+SYuBgjrFsm/4l7ydEp7Ul7aedEgspcBNJyo/MjVLhP5tWb1nbgg4Q5bIHNKxtWerGWvT/HWSxvszN6xYcMGfch4pmjI2B6l7Qy5U6asbTvPPF3eGTYTwXGOSLvXW8L/8pU1haGEhrvQLm45bRZNoYLmjUVJWeRqp7HpdEfNBfASwZG4x6b8WxmT5row8tdumxZtdShyR4NPsCOnsYp6fdHFkw3tLedH0Sz7WFUJmZ28jdAua7+JK38J40kcuzRaEXOOxo5wYUxbzDqP++G0ywCrNAHwwK/B5pxylyVaNucvSGFjsHsJsGYpMR2+DQPD+x2jatvIEQxQyNGbezxHJeVP2LGEBStN4r7pxysHD5+f72Zim0J+T4iGXce/D/iTQiAH9O7sAIz205XLTdkeT+Xdj2PRQ2lQE+Wn4S+ic2VcCi4HFpQnXPngznYPR7uz1TZjyHD/JbVIznoDkvI7mdYQHN6rbOgyMaGOi4gbeplEJzkP9RrufotWjvp0vKO2vtK+ffv2X5FHsCABo/BYlLgVads58oyKGPqRcZA82NuTdojAbkiYoAIO8AmVaeQI+mFcNqnrC9n6TVyygEbZ9Ib4Dnmw9dZnMK5QthmQwvbMGK549YpHnOE8R8uNWRj9KznGDH+cOGV/tPL9VkLm8klXdU4V6TfRUhQ7nkT5xPlpVwXNOcgSLjJoh5PieDoa4W+Xmzz2svAKFxLQqzHnaAEcmKRNqnKUxeWRzS5IYRMjVkV3CTS5AetU7of8d7ZdAMWrhGHV+m+P7/vY3g/vhTm6tvwZdC6QH5l3b9u27VEXJrsMPPbfmPSZem74a/IPDJ8OCCsdWf7GQBr4ke8SXr/v5OKVy6ZRP00ewb0A6ul8nmBSJb/o7lqQZRmwEJ6h0kADDnc2/DIxKR2MP9zt88Mq6ab8fWirwW5jNB+2299LeLA6o27+5Yc3dJmQ66y4tq3vrlGXOu5W297MZ2CmRuQuuX/AL7F9c+y6EdmC9uXackqWUtt2wXn65Y66kTE4dsFuwzgVKG9+HLDV/6Oe69PK7ebag/5CbLn4ktcE8gyuJkTzIewCnoLH5BQfKc8LUm59LDfYfaVuXojkgyj7potG+9E9tmDnjHjR49DgO5LEDXZS4ae32c+I8CrVW3aZSxWoodKDc6n9Ji/RqceixpN8mBc650yZMmUt7S5os8g1jPFZi+oMA30S4YekAp7SEbKLVI3xGRmD0zzlyVWDsS5v3y5HWXx+Se5gkkoKjKMD1nIAfJAwN8jpr58Gs5OlD5Auo3D6I2T91U8//Pojdw0IbzFo/TaOX7E0VmfzyfN58tKHYI8in+8g110cEy3ma9wt+BuYwfC+hCcYuKjwR5lk0rZSS+VB/p+Dv96afZJ8F9B4VpHHTmnhmOPA4sJU+daAW7haBYtFpJ1M2MmkPRhZb0D2P9LgX4G2gXT6K45e2PrPz/HYN/IKftpxRYpvoqVGzcTwPBF0ly1QnuCj7749E5eoVCzEk3z07a515NEN77GU6RL8f2NVv06fUaBMw2kXFxGWOCmLT6UMsnwGmfqy6HiO3alV1JeUHn2W5UTlSfjmdevWPeLn39BlIv9Dked66vJOXm5ZItkYNPRpho+Bcxv5kfvh6DFfqfWJctOfo85vw/tZ8Hoe+w3dUyO7OmSR4vM+nmDnGjtcKZfStovNk/wTDW1+KW1uqCLQ/i6m3z2AjC+yq9qR8mkX6oMOx0QmpQfsQ477kOMK8pJC9k3k+C20udTpNt7e7senCjSeHltKVvBWPejfJ9T/1C52kOesKE/CpdyfzCNl1QVnKGwKYCf1duQbjrMVvD6C3EfC9wn8b9IG9SHhbtAHwWcCz15OFq5XunwNacouc75511K8UvpNIeUodjzJJ49C5xzxpP5/S3v6LnZL7C/Rvv7IuDxF4zPBfaGdRD/RGK32vJ159h5fFugVn3PII5y7cZ/N+LeJOW0m41U7xpR9uLeWoyx+uZLcBStsYkSnvJsV/quAqr9+6sSjr6KfrTA6r6zAQFOFCOhwS96FlcNmsPgVMug/N3UEMBCeX2MQDv6QOML/hRUrVvwxQgu8JfLQl8ClGA5WvjJU5m5kCXAlLCg75Zeyui+IkPoh37uQvRNxxhFfO2wfw+9HCbEE06JW3eQRvHzgmJLPNNe4HM23S8Qi+Po9q/A7kfeKFN8zyfNMlCQ/Gx3LPiQ6T1HlSmOWp4c6mEbUsTwX0skCRdrHm/BthN2c+np7yBW8djVgmd5CLrWnATzXsAgI5XIOsJzOn0n/zfl9u9T6hJdeLDiVtn2q+KptI08LaOEsT/4L8D4dybeUtl1Unn7+vhsM7qePHY+MHXh0wV4reT+K+uhkCBpDeqcFlNHDgut5JqORyCJFSTv/n+HRt9L8XII3V5EjdifYjxjnZjIL/6ZK4ZRrForArpi4cwkLXnxSGHW4AfmWxsTTy1krkPsmZNJY3wGZpVSGiiV9KUwGz4WhJ09HJWTOM+uai0ZbLaXf5FOeksaTfDKgDAXNOYyvy+iPt8D7k7QvfULo/bSx97u88AdO2tZmnltSi0YXXJU5B31nGn1AC5SDkUc7fV92Ywh953f4tYElWUoqi3jkMkVPmKzgp8D8S4D4GM9rCB4cj/gZQteffL5GIXWPIjT496Y8aUpMGCHlgKeL14yVaOh28aTRMyBdh0b+e2jh8aPCU3m/Qdgt4P3j6A5EOXgg3r/IRzuLmx0/yhZoXcof8wKVfC0yBkcQLo7slOw/JM5NxNXfy2QotYSt5nmIsNf9tPm6qSO9fLDcxcc92bnj7HLgycAvPP4XuYM7GS4faGoL+mP7X4LHXdCDcPwZ5c63fTje+di0g8eIp2/m6dMGflvSl9oXEKa/v0prp45vQ5UJubauXbv2WuR9iic42nMy4ddxwj1g+cPo3SMXp5T65Lte4n8/+SzGDvqp2jbt2SlrUi7u5Kj/e1JqXZ6yi23bpeTp5++7NcAj/3d4VMehUZkw+l/Q25H/Vsqm3W3tEqe1R/xhW/HdISPPAb8gLrzDNH4wdXUr/l8QL7w6kArfCm0mWF6L3x1hpsnh8Ul0gnv4N1WKhLwaozOM6ovy+jtqczMieQTkfh6crkJG9e16LyhwQpMir5282IVDNL7vL7fMfh35bpdntrElW5hLH2f7+fjuuLjglNhGiu03yicf2WmWJY0nceWJ0gqdc5Se+fkZFPevg81Uh4/ji38zcr9A+JdohxnzqOKVY3x2+SXY+iKF5uq0MSQVN23sK7UsCfmHZDf4hoQSHM059urFG1ddKNwu7ottYTt9Q9JkUkI+SUmbT5gwoRsafleA3c0uzxvRiSQpoUcvlkdzdh8OIV+t4mlbOzfxdtta+OqORr6mBVusfUnfjh2NbfCqR/6N+SZOiNeclcHPGER60vDXwu+zxMuqJHt8isUiZEF52pP3wQz2e2gPb1SxLQQysDOmt+C+Lg94/kQTj9x8p6w1OwMHE+b+SSBuglXUDFONMlFn3wA3HfMvp86uckJQHn3wtfOWLVtWpj4l44LysYuuT92xRJnqw45kHVW5nbpcW2D+BbftMuSZgQn13oHj5F4c8e5lAfhWtdujLxDjhXbZ+jBebWfCSVvc+PFq0Y3s+iPu4CUq5K+nL62nnaZNXLUodyOUqeB+E1fGCo0ncVmJVsqc02wgX1Po3r17L8aZg3jWRHfUkjJ19EqPz7ru1KlTp57M8QyHLdfR7tM2ipwcsksti8/LucupsDmeZtcIAnRUHcFcLXFo/H9hYvhDjYhWFTGSFLaqZF5CJkkDbAksLakhYAgcoAhUczw50OecSjexoo9EKy2Y8S8ZAV0mvEhcWA3vQXHTkaAZQ8AQMAQMAUOgEgjYnFMJVD2ewX0rz2/OJoIAlyL1Ft+hqeI8nW3rtokU2YphCBgChoAh0EAI2JxTeeBNYas8xlXJgbd2h3GX5Fh207Rrqrchuylj/PXc1Yp9Q1bhZgwBQ8AQMAQMgUIRsDmnUMRKj28KW+kY1gQHlDXtpunPrUN5UNY2cSlYf8ejFyDMGAKGgCFgCBgCZUHA5pyywFgQE1PYCoKrdiPz5tsi3lp5DIWtG29E6kvQy/gY52Moa9tqV+rKSsaLFvXc3Qs+X4B7XWVzKx936vAVlG19Jmd1+bgaJ0PAEDgQEajUeGJzzoHYmqzMhoAhYAgYAoaAIWAIGAKGgCFgCBgChoAhYAgYAoaAIWAIGAKGgCFgCBgChoAhYAgYAoaAIWAIGAKGgCFgCBgChoAhYAgYAoaAIWAIGAKGgCFgCBgChoAhYAgYAoaAIWAIGAKGgCFgCBgChoAhYAgYAoaAIWAIGAKGgCFgCBgChoAhYAgYAoaAIWAIGAKGgCFgCBgChoCHwH/+x8gjmvPARmDs2LEjQWAE/xLQj39N2IX9Ov5Xp02bNrMWkBk3blxn5HivZOEr3k8j18J85RozZswZKhf/JLBuxowZf843ncUzBA40BGp9HHD1MXz48N78q8u75We8+ufMmTOXujCzDYGmhID9NVVTqs0ylAVl6JMoQZMcK5QbOfWn8jMHDx78aqdOnT5LuNrNzfzt1RoXr8p2Z2Q4NZWnBue8FTbSTeA5ijTLeUxhS4HYUNbQoUM7dujQ4bO0r9Y8NzPZ2t9xZakMlKjBtN+hYNWLaFj7VtJHZ9EX38qSrOCgbOMAzKq+cMvWTvhPy+5uPMCeh3yhwpYtXb6glINHvnlZPEMgGwKmsGVD5wALYzI4jgFvkorNRLCO1epzTAYH4R6E/e+OHTuOwdbum8wJPA8ELvsxBIpEoH379qNpc6N4tDtyImzuL5JVk07GYumgzp07fw6cxqugwssZ+udFKFgPoLT90dFKsXONA6XwLjZtse2k2HS+nOXg4fMztyFQLAKmsBWLXBNMxyRwporFxLlzx44dX5s/f/46v5ipI5KARJy0MD+euSuDwPjx4y9jcj6UifkbxeYwevTogS1atPgY9fcYu1lPFsunXOl27969vnXr1gE7LRLKxbep8enSpcvHKVOgrIHTXtyv8HSgz/bj0Tj+nlGjRi2dPXv2FNwlmVzjQEnMi0xcbDvJlS6f/pCLR5FFsmSGQMEImMJWMGRNOsHBKh0D9qyosiY6d77mMin8iF22Fkz2JU8M4mkmPwS0w0LMk6mbVvmliI9F3elIeAhK2+z4GNWlzpkzZz73Cm9ACWk9a9asF6qbe+PIrX///m3BZyL1pp3vzTt37vzS3Llz10t6sJtIXV4hN/bbscrRL7OOA8qr2qbYdpIrXT79IRePamNh+R24CJjCduDWfVrJpRAwIXQQETvpbtq+cqzg0zI2T14IcM9LR9ElKWupjMbllWH1Iu1D+Z9WvewaX07du3c/hD7ZQpKjsP3bKWvyg91zHIdeTLjucR0iWikmz3GglCyKTVtsO8mVLp/+kItHsWWydIZAQQiYwlYQXE02cgvup41wpeO4rDsr9+D4RbRNmza9vGjRovqRI0e2ZxWvC/shTW4ZJo12pDuaCWU3OyWzRNNlXcxgaHp0qXwFK9olHOm9qvBsZuLEiW23bNlyeMuWLQcRrzPPUtK/ygT1Jjxw7suWPGcY6fekIrUYMWLEoeRzGGXrQhlWYi+ZOnXqcsJzZsIE1wll6jBkGsSEqZ2Q1zlCWcyqXOmzGvAcTr460upOujrs9Tyrcc8Do60uMdgOwH228/t1Ixp5v0L8jS48zoZHK3hPIuxQhVPO/hE+W8H2RYW5ugSHPd6bwXXEPxLa0aRtw7OQap6q+M5MmDCh+65duwYRpxfhXZFrB2HLaD8LFi5cuMnF822Xl2jRcrgw8ChLm1IWlOEQ8jlM5U/hvZQj2UXPPffcNl8u59Ylf/LvQrlenzdv3krRaS9dqbexpO9L2LatW7c+6pePY7Yu5KH+1IM4nchrs/KCxxKUrdcc73xt8gjbAml2++lUr/jbp2jCuxST1zjgZ1BMnfvpU2PKoeAzAMx67dmzZwu2jsZfpU0vc3FdW5Cf8JztPVc64Uaek4iXd38Qzxx5F9y+xFOm3G1mP1f7bWoImMLW1Gq0wPJwL+oDJDmdp51LyqB0LG49geHS7Y9wTGFik/J0lYjcqQlocsswKeluVBDGYKi7VmfD5wKFMTCmXZJmEpxO/F8x4W9QeNQwqY7i2Odz5Bfs+Pnh8J7J/bp73b0nP6wQNzLtTN1f+TLubi4tMmsXQ0rLQmT4ib+b4eI4mzhn4f4Q6YPdD9FVVslGGf+9atWqXy9fvjxDESBfHUnqbdx+jpfSeWYP6adyBP0T6udj0E/zwnT0FeDsaCiIP8P9rPNHbY6xlc83eTq6MMp5HG49gaE+3sTxRXlcXWJLYb2Y+hhOfF14D+pDGGHUXgKFTfWFTGcjx3DsoCCpOIrXDIV2O1j9ngn40YDg/bi8RML9E6znXbAfRvpS21RPZPoiZVAbFoYum2YoUhupk1vcQiMM2O+4iLhHke7PeO9Dji/QPsbDK6ww6vsJlyZ1z/AU4odjq8uLT080I3wN7eoXKPTzXJpcNnHfIt/t8GzDc8ywYcPu5crCTqUDo+Ph30Zu5HpZdjGmkHFA/EupcycfbfyduC8Cy/2XGPE4rBQHme5mwRC82OS3hWg7UdwkE5eu2P6gPJLyBo9i25fKqbZd1jaThIfRGzcCwcjbuItg0peCACvadgwWb/AscXwYlDbgf8U97CbUu7B8bCaVaxiEL4CPJvw18Jkv/jzBrhZh4xiYL4/jxcR0MuFfgUegHEgWnjmkXc6zG/oYXuP/UlzaAmkDkOGb8OsG3+2kfRV7CXkFEyH0oUzEP2By7BPHFzk/T5wP87RQGp5FPAvgsVnxKcOJvXv3vg5nOHGLntpR+ALpAmVNeafSzcO9SnHEE7fDfBdu1UW4Q5Xyh/WDP+vuGuFSLlZgLxF/GfJMq2PyXLw/5D+/lKE5E5HeDP5vwoP6gMdaYmjHJ/yMBGFD8eu7fc0Jd1jOJA8pgSpPG+iXMkEPlr8YA4+i2xQT9BGk/z5PoKyRv9qk8H4dGdVGOyP7Vyjq27LI1pWJ9VPwOMYr5xrib3VKPeV7N/7TiRPUOfyF+Uye13iC3S/sLjxvZMknLmgPaf6pAHj3btOmzSflJr+TkOXjchO+necvchdjCh0HkKOkOkf2LyH7pTyBsib5qQvtogd381QG8phbTFlypSGPovpDEt9S2lcF20ySuEZvxAikTSaNuBwmepEIcAz2GyXV0R67Zr+Um4HycXZD/ih3keZwBsUVTAI3s0sUrvpRVvqjbGlHqxfPeAarwYQvcnno/gzuDxKmM8+9PLcT/g8XrlUsYVcwyBc98Tte8DlIkzW2PodwD/S9CkMRawX9E+RxImGdmBz1gd6fK8wZ5BhP2PHyE3cBR2I3vvTSS1Jkmg0cOLANd44+Qbguifdjkj/L7RIoHCXwPVg6AlV+N5D3TGwpDYEh/76km8CuT7DTRNo7FACfcKeNNNfuj53fb+p49lp462j5VqWifI/B+0+5OCDLlTzNKecTHFHf7R/9ubQEP4F7IPX9NO1Ju27hsR1yn4n/EvKTMncObu3MFmOKalPKiAXHpcjYHucuZPw/ZHzcCUAbHIlcn0e+DtgXc8F/atyuKPEn8agMUij0DULtkIX1puN/8ng/NLWJOew2/hTct8gvo3YFTZ8w6ewUvP0h+f2uW7fuPtqVjmF1hH48uEr57KvUyLSD5weUa3V+3DJjFToOIEPRdU7/mQje4yQFWG3AfWMKz0AwxoleLKaOQqbXMiUtnVJKf4jLvdj2Vek2Eyer0Ro3ArbD1rjrryalZxDex+T0Q15QCJU1CaqBkrC7ndBMMoc6t2w+yqvdiU5yY//VV9ZE04QE3++RTrs4JRvyeBalRfJIeQoME8cu8r2RPJzsE1NHKC5KcyaYD8hDnHrkucEpa6ItWbJEst1MWLBTgH0+/vD8DX8vxcNsJK8Z2OGkLyK0t6TguftSojWkoazajXgATH4Zp6xJNmReg8z/S/08hzdU1hQG/W+U+XW5MYGCsd9Z2G+xbUrKAfUc7KzB435kDJU1SUC55kC/T261vT59+pwud9QIB8qhNzSvprza+Umrt7Zt2+rSv9tZe8FX1sSLNLt054/8H4vyzsevdoUMN3lxnbL2Gm3wasqxwAuruLOEOm/h9Z/dYHotbSTteBjsVoHTkxUvRBkyKKV9VbrNlKF4xqLGEDCFrcYqpImIMwNlLfbYh8nlJVdGBu7ezi2bCW+MbAbxPdxT+4fcUaOJkHhPR+nF+JElNg/xYifm77LJq47V/nC5ZbhwPghaf7mZ6P8RnZhF1+RM2LNyE7cNCl8fuWUo2zLZ0Luyu/NOuWvc6Pgw505ctjJQ1qWp8J7Z4uUIK6pNUXcniS/1sRM5HozLY/Xq1ZMdnbIOdO4Y+96k3TF2RN8kbaCsks/pejEhJn3RJHbUhtMm/zvKgDznJ/U1dvUOJ91Q7dpG01Xan1TnyDKQMNfv/41iVvSuYKXLkA//UtpXpdtMPvJbnMaFgB2JNq76aizSugk6Q14mvA1MIgGdgbutH4HJR0eeIi1LmhgVyMS1iIEy7SK+6IUaJrrEIxcG05c46nAsQ0UDmptsdKyot8KOdpF82y8b0TRhBgosisMU3HohozXPpUxgE6A9wsSl3bZwp8/n1ZBuZJvG7s2uQmTQPT3i9+L4W/+S0RoebSmrlNVSFojFtqnealPkX0+7GUJ9xRYF2fYST/IlKje0iWdiE0PUSwDU5VScOu47lLLfgEL+KDx1vUB33Yo28DkJ+T4F3wA/3NNgNhzebSC9m/7Ugl2qO/wMkKUz8a4jjjrUZJ5f+OHldudb59RBb9evcE8vtxzV5gfGRbevSraZauNg+VUHgXBGqk52lsuBgACD2Los5Uw7SvLi1TG3dJM/R3pFiX27VAH5GvLQywFpx3d+WgbTDUyU+5gQdQQaKmy4Q4UNed+D4qg7ablMFxeBY7El8L2B/HWRvy3PMHgMY4LVJz0eZ9fvsaS3Zx2PatqUN3anNCJDC8qkO316003fDOvgwnE7Z0l2jjaR1KbIvrk7gu4Bzl/PJQT5hHUVibsxbjfVj4NidhP1qM9F6C1SKa3nw+9caLNRTv6R8BaqzyLDnbrQrpcddK9TF/NvRLmfBs8j8evlHC16zsTfmvx/jTvAgrBxyBCATxodVZfbFFXnfv8Bk+DeZ7kFqyI/4C+tfVWizVSx/JZVlREwha3KgB8I2TGISRkqyPA2ZjvSBXe9sLdkS8xAX8/kmy1KzjDy2J4jkna7tLOk78eFCgjuLqQNkuLegUNPVsMklZaX7k1x4fjzfC5FF/L1Vqx46gjtQtznsAt0N5PyI1mZVimQyX5Ttqx09MeLFN9E/lCRJf5WsFnLIyVUZR+SKl82VlnDSF9wm2LXpx1MWznGyOPevHWkDBv8Y+OQNisOKUa7mYBv4BMho2mfZ5BmJPy0KzaGXaUxKFULOeq/uZD7iaR7D2UPdtaoi1ulrCkv8nkJJfl6wq7Gq75zakppuwW/XqY5WfEkN2nmyl0uU2Kd68WXwCBb1n7u4tWqXab2VfY2U6t4mVylI2AKW+kYGocyIMCO1mYmoJ3Mb3rNP3jxIIktCoJ2L0oyTH5Z8xjI254pWZSPvxMQutkNuz76YkW+QqUu8Ovt1D8xvx+rCZ5Jdkgqz48w+XZlUv59vvwaKh5Hf19F7kBZYwJ+jkv5D3KcnXbUTL1+hjjBXbJqyqkdMXAMvl9Gfc9BUf5uNfJP7aTNGj58uD7BoXuKk3ikVOlTMd9F4bkq25G/J6NedDiKdFK8FqN4pe2UUZ5FKA3foQ6uIY7+V/RtYK2j9vnwGJLi82/ssh61l1LnlCPcfafNS3lbmZKz0VnlbF9lbDONDkcTOH8EgpVb/tEtpiFQUQTWpLh3z5YLO2zB0Wm2OLnCpBil7t3ERuWN1R5ewGrnZsJ5y7nZ/Qi+peb8Rdp7GKyfRTm7lvQ/gr87pj1bSmORPKuSDGWoLzgeqsyQezZl+GlUWVMYioQ7lpS32maFMkSGctRVQbJrJ013yzZs2KCP7c5UYvBqj9J2Rj6MtIOjdqq4pI89mkZpWEzwtwkPdgaJfxz+j6XSrCOve+Uulym1zpEvVNDoPw3ZLsoFSVnbV6ltplyFMj61iYApbLVZLwekVEyqq1Rw7EOYrII3MeOAYNA/Oo5eKI0V/rikNEwmupMVGHZnwkmGvP2J8xQXpxw2k/sUyv6EeGHX9cR4fMN7Wvp+k0fP27lx48aQB0pv1h3GfJiCy0Av3hzPHTpT/015SEiovuNNZQme3XVUWf3smzXT37pt3779VyhV7i1S//g4USSUMX0M1ynwiYsYFOVl7PZ+i7hpx8b470j6y63ETHMElFrnpA8UnFQ2k3JkV9HgMvWHirSvYttMRQEz5g2OgClsDV4FJoBDgMH8Sefm2OUC5/ZtHTPhP9GnFetmEj+LHYPwjpPjw7yui+eBMqZJkM8+6O2/wDA5vgUt2C0hvd46zGu3xKXHznr5DkXK7TI2475TqGCBzXrHo127dmOduxCbSWATsgcKAMpqUTz8/OCxyfnhG6tEs1P5QeK0c/GqbSPX38AuwBFl+xJ9ILqCMiTWLUf+G2kvO5W3kycPOfQPB26BcCRtbVRCGn3bTDtrbf1w8js19TFqn1ySu9Q651h3KWV6RUIg33COcBMXTSUJmkficvSHMrSvcreZPEpuURorAnaHrbHWXBOUm8H8eRQoXbLWH3Mfj7sln1K4H+VtOcXtzEQ3jInpYsLK0m7hdSh8ryefOzdv3ryE/3rcyxHSEdB0pBS8LciA/HD0y/fsltzORy+HE6cVE9hHmHT0xp52xoI/pme3oxv0Qcg5gWcvO2fXExYY4n4ORw/yfpL7XgtQ0Fbp9X7tmmGOo4wXpqKuYYfFTdY6SvPdZyPzJpTHmTo2A599uLem0mWzpLjoSFc7Xj34HMQH9L07jjE3wK87PEJlMRsTF0aZX8cdfA6DcqJPBMrrNGTdQLn6gYHq8hgXvyFs3fMC88nkrZc7Du7cufMNlPuP1JGUBv3tWQfw05/VjyZ8PLbewnyxUFm1I0zb0dHks7TZ57HfSN1TqwPbQfB7H49TXGN3IxPyVLu6FNn0bxNXIvvf4D8DXHeCrz4pcQh5HYfdX+lx677aVvy60zYchfmrHK3/IPVBZ0UpycC/5DpHrrsQ4lsSBPeV1M8DtBf9ldlq/O3Z3R6kuqB//JM+MK8kgbMnLrk/lNK+KthmspfaQhstAmWZ+Bpt6U3wWkOA+WDfL3iuYsDWm5MTmAQnOCGZoJxTX88P/7PREQuxSa9dsz7kMYDnGpSljORMINPr6+v/Fg1AwVrBJHMT6S7n6YCsxxJHT2BQAJxTE+jC0LPf0Zz4g3EOpmwBhQld/5Ea9EXClEY7K78lUBNKYFD6ppGnFMKDiSuF68tM3kEYcv4Ox4OBJ8cPfP9K+s+kop2Hknoe+WuS38XzkRzJ04JR8DaS9iGI58BTHxhW+oAHk24QF9n0JuATyP3ugNAAPyhndyFPJ2QYh5zaYfuYk8+J49oWdimnDsHbmtTrqeKregXvFuTZ3OUDHgvwPu38uWwUgn9Qz9pZG4v8ajDn0b7O89M59uS1Dv43btu2bWWHDh2+RhzdMTyKv7S6pm/fvt8tx/FoOeqcprwQ5f73yPY+ZG/Jcz7u8/0yyU1dPB+lldtfjv5QYvsqe5spN0bGr3YQKGVwqp1SmCQlI6DdJceEQT90O5psVsEh3XcrjAE3DPPdCosaBskgblw+WrEygH+FsOnECz+HgX8fj+6L/JoB/w7s4PJ/VI5oXlE/vIO8SffU2rVrryWPp3jCoz3Fx7+WvO5Blh9ybBL72Q7CnofHVcR9jqc+mg80TdazoKcpfPD9F3Sl2ezSaNKSGxrBe18Av2vhP92Fp2ztZP2Q8AURurxStvIy8H2afO7kCbGFr8aB4LhOTPz6891xGTCB3wP9bp+f4uHfxjMT3l9jF+9x0XCHbUR+GZ+/784VFiT2fsgrsU2xS7NFdQl2NxFvOc8eL2ngJGw1z0OEaQcpNJ7MofIcBnoOPtGiNnM/6RdjB3FJ25IyOWVN/xhxJ1h8D8zyri9lQXv/IW3tFsnoZRk44VnPo7dC1Seu0O6g/ioN2jd5grIgxxD9pVY0bZw/n3Gg1DpXvsj5V3YK1f8WUq6w7SkM2ipoz4Odv6sctp1C2okf13crH5ly9Idi21cl28z+0tlvU0PADSZNrVxWnqaBQHN2KfpQlHbsWrxZjh2CJFhY8etfFjrzB+crk/4zMymt6MipL8sHLwmw4q5nF2R9jolZZTuEiUlHV8ynOzfxhthaWAV3zLLlpeNTjrp6koaNopbryKego8wU7xaUuTe7GB1RBrYzgWpyzJl3Frnq+JZer9RO1nr4ZSgXWdJWO6gFx1F9wV3taht1UA+GG8slhO7JMRn3AYs6YcuO19pi2lScPPw5fdsePXr0RvloWWxbjeNbJK1cdd6cttMbZbFDA5apnP2h4PZVyTZTZN1aMkPAEDAEDAFDwBAwBAwBQ8AQMAQMAUPAEDAEDAFDwBAwBAwBQ8AQMAQMAUPAEDAEDAFDwBAwBAwBQ8AQMAQMAUPAEDAEDAFDwBAwBAwBQ8AQMAQMAUPAEDAEDAFDwBAwBAwBQ8AQMAQMAUPAEDAEDAFDwBAwBA4EBP4/+SkCPwWTeakAAAAASUVORK5CYII=;" parent="1" vertex="1">
          <mxGeometry x="910" y="737.65" width="180" height="44.71" as="geometry" />
        </mxCell>
        <mxCell id="UdND_uZvlZ35fAXCYIMh-94" value="&lt;font color=&quot;#333333&quot;&gt;&lt;span&gt;Fitness-app&lt;/span&gt;&lt;/font&gt;" style="text;html=1;strokeColor=none;fillColor=none;align=center;verticalAlign=middle;whiteSpace=wrap;rounded=0;fontColor=#FFFFFF;" parent="1" vertex="1">
          <mxGeometry x="950" y="695" width="80" height="20" as="geometry" />
        </mxCell>
        <mxCell id="UdND_uZvlZ35fAXCYIMh-95" value="" style="whiteSpace=wrap;html=1;aspect=fixed;fillColor=#FFFFFF;fontColor=#FFFFFF;" parent="1" vertex="1">
          <mxGeometry x="880" y="800.5" width="65" height="65" as="geometry" />
        </mxCell>
        <mxCell id="UdND_uZvlZ35fAXCYIMh-96" value="" style="whiteSpace=wrap;html=1;aspect=fixed;fillColor=#FFFFFF;fontColor=#FFFFFF;" parent="1" vertex="1">
          <mxGeometry x="960.5" y="800.5" width="65" height="65" as="geometry" />
        </mxCell>
        <mxCell id="UdND_uZvlZ35fAXCYIMh-97" value="" style="whiteSpace=wrap;html=1;aspect=fixed;fillColor=#FFFFFF;fontColor=#FFFFFF;" parent="1" vertex="1">
          <mxGeometry x="1040" y="800.5" width="65" height="65" as="geometry" />
        </mxCell>
        <mxCell id="UdND_uZvlZ35fAXCYIMh-98" value="" style="whiteSpace=wrap;html=1;aspect=fixed;fillColor=#FFFFFF;fontColor=#FFFFFF;" parent="1" vertex="1">
          <mxGeometry x="880.5" y="875" width="65" height="65" as="geometry" />
        </mxCell>
        <mxCell id="UdND_uZvlZ35fAXCYIMh-99" value="" style="whiteSpace=wrap;html=1;aspect=fixed;fillColor=#FFFFFF;fontColor=#FFFFFF;" parent="1" vertex="1">
          <mxGeometry x="961" y="875" width="65" height="65" as="geometry" />
        </mxCell>
        <mxCell id="UdND_uZvlZ35fAXCYIMh-100" value="" style="whiteSpace=wrap;html=1;aspect=fixed;fillColor=#FFFFFF;fontColor=#FFFFFF;" parent="1" vertex="1">
          <mxGeometry x="1040.5" y="875" width="65" height="65" as="geometry" />
        </mxCell>
        <mxCell id="UdND_uZvlZ35fAXCYIMh-101" value="" style="endArrow=none;html=1;fontColor=#FFFFFF;exitX=1;exitY=0;exitDx=0;exitDy=0;entryX=0;entryY=1;entryDx=0;entryDy=0;" parent="1" source="UdND_uZvlZ35fAXCYIMh-95" target="UdND_uZvlZ35fAXCYIMh-95" edge="1">
          <mxGeometry width="50" height="50" relative="1" as="geometry">
            <mxPoint x="650" y="980" as="sourcePoint" />
            <mxPoint x="700" y="930" as="targetPoint" />
          </mxGeometry>
        </mxCell>
        <mxCell id="UdND_uZvlZ35fAXCYIMh-102" value="" style="endArrow=none;html=1;fontColor=#FFFFFF;exitX=0;exitY=0;exitDx=0;exitDy=0;entryX=1;entryY=1;entryDx=0;entryDy=0;" parent="1" source="UdND_uZvlZ35fAXCYIMh-95" target="UdND_uZvlZ35fAXCYIMh-95" edge="1">
          <mxGeometry width="50" height="50" relative="1" as="geometry">
            <mxPoint x="955" y="810.5" as="sourcePoint" />
            <mxPoint x="890" y="875.5" as="targetPoint" />
          </mxGeometry>
        </mxCell>
        <mxCell id="UdND_uZvlZ35fAXCYIMh-103" value="" style="endArrow=none;html=1;fontColor=#FFFFFF;exitX=1;exitY=0;exitDx=0;exitDy=0;entryX=0;entryY=1;entryDx=0;entryDy=0;" parent="1" edge="1">
          <mxGeometry width="50" height="50" relative="1" as="geometry">
            <mxPoint x="1025.5" y="800.5" as="sourcePoint" />
            <mxPoint x="960.5" y="865.5" as="targetPoint" />
          </mxGeometry>
        </mxCell>
        <mxCell id="UdND_uZvlZ35fAXCYIMh-104" value="" style="endArrow=none;html=1;fontColor=#FFFFFF;exitX=0;exitY=0;exitDx=0;exitDy=0;entryX=1;entryY=1;entryDx=0;entryDy=0;" parent="1" edge="1">
          <mxGeometry width="50" height="50" relative="1" as="geometry">
            <mxPoint x="960.5" y="800.5" as="sourcePoint" />
            <mxPoint x="1025.5" y="865.5" as="targetPoint" />
          </mxGeometry>
        </mxCell>
        <mxCell id="UdND_uZvlZ35fAXCYIMh-105" value="" style="endArrow=none;html=1;fontColor=#FFFFFF;exitX=1;exitY=0;exitDx=0;exitDy=0;entryX=0;entryY=1;entryDx=0;entryDy=0;" parent="1" edge="1">
          <mxGeometry width="50" height="50" relative="1" as="geometry">
            <mxPoint x="1105" y="800.5" as="sourcePoint" />
            <mxPoint x="1040" y="865.5" as="targetPoint" />
          </mxGeometry>
        </mxCell>
        <mxCell id="UdND_uZvlZ35fAXCYIMh-106" value="" style="endArrow=none;html=1;fontColor=#FFFFFF;exitX=0;exitY=0;exitDx=0;exitDy=0;entryX=1;entryY=1;entryDx=0;entryDy=0;" parent="1" edge="1">
          <mxGeometry width="50" height="50" relative="1" as="geometry">
            <mxPoint x="1040" y="800.5" as="sourcePoint" />
            <mxPoint x="1105" y="865.5" as="targetPoint" />
          </mxGeometry>
        </mxCell>
        <mxCell id="UdND_uZvlZ35fAXCYIMh-107" value="" style="endArrow=none;html=1;fontColor=#FFFFFF;exitX=1;exitY=0;exitDx=0;exitDy=0;entryX=0;entryY=1;entryDx=0;entryDy=0;" parent="1" edge="1">
          <mxGeometry width="50" height="50" relative="1" as="geometry">
            <mxPoint x="945" y="875" as="sourcePoint" />
            <mxPoint x="880" y="940" as="targetPoint" />
          </mxGeometry>
        </mxCell>
        <mxCell id="UdND_uZvlZ35fAXCYIMh-108" value="" style="endArrow=none;html=1;fontColor=#FFFFFF;exitX=0;exitY=0;exitDx=0;exitDy=0;entryX=1;entryY=1;entryDx=0;entryDy=0;" parent="1" edge="1">
          <mxGeometry width="50" height="50" relative="1" as="geometry">
            <mxPoint x="880" y="875" as="sourcePoint" />
            <mxPoint x="945" y="940" as="targetPoint" />
          </mxGeometry>
        </mxCell>
        <mxCell id="UdND_uZvlZ35fAXCYIMh-109" value="" style="endArrow=none;html=1;fontColor=#FFFFFF;exitX=1;exitY=0;exitDx=0;exitDy=0;entryX=0;entryY=1;entryDx=0;entryDy=0;" parent="1" edge="1">
          <mxGeometry width="50" height="50" relative="1" as="geometry">
            <mxPoint x="1025.5" y="875" as="sourcePoint" />
            <mxPoint x="960.5" y="940" as="targetPoint" />
          </mxGeometry>
        </mxCell>
        <mxCell id="UdND_uZvlZ35fAXCYIMh-110" value="" style="endArrow=none;html=1;fontColor=#FFFFFF;exitX=0;exitY=0;exitDx=0;exitDy=0;entryX=1;entryY=1;entryDx=0;entryDy=0;" parent="1" edge="1">
          <mxGeometry width="50" height="50" relative="1" as="geometry">
            <mxPoint x="960.5" y="875" as="sourcePoint" />
            <mxPoint x="1025.5" y="940" as="targetPoint" />
          </mxGeometry>
        </mxCell>
        <mxCell id="UdND_uZvlZ35fAXCYIMh-111" value="" style="endArrow=none;html=1;fontColor=#FFFFFF;exitX=1;exitY=0;exitDx=0;exitDy=0;entryX=0;entryY=1;entryDx=0;entryDy=0;" parent="1" edge="1">
          <mxGeometry width="50" height="50" relative="1" as="geometry">
            <mxPoint x="1105.5" y="875" as="sourcePoint" />
            <mxPoint x="1040.5" y="940" as="targetPoint" />
          </mxGeometry>
        </mxCell>
        <mxCell id="UdND_uZvlZ35fAXCYIMh-112" value="" style="endArrow=none;html=1;fontColor=#FFFFFF;exitX=0;exitY=0;exitDx=0;exitDy=0;entryX=1;entryY=1;entryDx=0;entryDy=0;" parent="1" edge="1">
          <mxGeometry width="50" height="50" relative="1" as="geometry">
            <mxPoint x="1040.5" y="875" as="sourcePoint" />
            <mxPoint x="1105.5" y="940" as="targetPoint" />
          </mxGeometry>
        </mxCell>
        <mxCell id="UdND_uZvlZ35fAXCYIMh-113" value="&lt;font color=&quot;#333333&quot;&gt;&lt;span&gt;Submit&lt;/span&gt;&lt;/font&gt;" style="rounded=1;whiteSpace=wrap;html=1;fillColor=#FFFFFF;fontColor=#FFFFFF;arcSize=50;" parent="1" vertex="1">
          <mxGeometry x="955" y="960" width="70" height="20" as="geometry" />
        </mxCell>
        <mxCell id="hNaM7XkKlE0wfAMFbM8I-1" value="" style="rounded=0;whiteSpace=wrap;html=1;" vertex="1" parent="1">
          <mxGeometry x="1130" y="650" width="260" height="370" as="geometry" />
        </mxCell>
        <mxCell id="hNaM7XkKlE0wfAMFbM8I-2" value="" style="rounded=0;whiteSpace=wrap;html=1;" vertex="1" parent="1">
          <mxGeometry x="1130" y="650" width="260" height="30" as="geometry" />
        </mxCell>
        <mxCell id="hNaM7XkKlE0wfAMFbM8I-3" value="" style="points=[[0,0.58,0],[0.09,0.58,0],[0.36,0.39,0],[0.64,0.195,0],[0.91,0,0],[1,0,0],[1,0.25,0],[1,0.5,0],[1,0.75,0],[1,1,0],[0,1,0],[0.09,1,0],[0.36,1,0],[0.64,1,0],[0.91,1,0],[0,0.79,0]];verticalLabelPosition=bottom;html=1;verticalAlign=top;aspect=fixed;align=center;pointerEvents=1;shape=mxgraph.cisco19.wifi_indicator;fillColor=#005073;strokeColor=none;" vertex="1" parent="1">
          <mxGeometry x="1140" y="655" width="20" height="20" as="geometry" />
        </mxCell>
        <mxCell id="hNaM7XkKlE0wfAMFbM8I-4" value="" style="rounded=1;whiteSpace=wrap;html=1;" vertex="1" parent="1">
          <mxGeometry x="1350" y="660" width="30" height="10" as="geometry" />
        </mxCell>
        <mxCell id="hNaM7XkKlE0wfAMFbM8I-5" value="" style="pointerEvents=1;shadow=0;dashed=0;html=1;strokeColor=none;fillColor=#434445;aspect=fixed;labelPosition=center;verticalLabelPosition=bottom;verticalAlign=top;align=center;outlineConnect=0;shape=mxgraph.vvd.wi_fi;" vertex="1" parent="1">
          <mxGeometry x="1320" y="655" width="20" height="20" as="geometry" />
        </mxCell>
        <mxCell id="hNaM7XkKlE0wfAMFbM8I-6" value="" style="rounded=0;whiteSpace=wrap;html=1;" vertex="1" parent="1">
          <mxGeometry x="1130" y="990" width="260" height="30" as="geometry" />
        </mxCell>
        <mxCell id="hNaM7XkKlE0wfAMFbM8I-7" value="" style="ellipse;whiteSpace=wrap;html=1;aspect=fixed;" vertex="1" parent="1">
          <mxGeometry x="1245" y="990" width="30" height="30" as="geometry" />
        </mxCell>
        <mxCell id="hNaM7XkKlE0wfAMFbM8I-8" value="" style="rounded=0;whiteSpace=wrap;html=1;fillColor=#FFFFFF;" vertex="1" parent="1">
          <mxGeometry x="1130" y="680" width="260" height="50" as="geometry" />
        </mxCell>
        <mxCell id="hNaM7XkKlE0wfAMFbM8I-31" value="" style="pointerEvents=1;shadow=0;dashed=0;html=1;strokeColor=none;labelPosition=center;verticalLabelPosition=bottom;verticalAlign=top;align=center;fillColor=#505050;shape=mxgraph.mscae.oms.log_search" vertex="1" parent="1">
          <mxGeometry x="1150.5" y="695" width="21" height="20" as="geometry" />
        </mxCell>
        <mxCell id="hNaM7XkKlE0wfAMFbM8I-33" value="" style="rounded=1;whiteSpace=wrap;html=1;fillColor=#FFFFFF;arcSize=50;" vertex="1" parent="1">
          <mxGeometry x="1215" y="695" width="110" height="20" as="geometry" />
        </mxCell>
        <mxCell id="hNaM7XkKlE0wfAMFbM8I-34" value="" style="endArrow=none;html=1;entryX=0.5;entryY=0;entryDx=0;entryDy=0;exitX=0.5;exitY=1;exitDx=0;exitDy=0;" edge="1" parent="1" source="hNaM7XkKlE0wfAMFbM8I-33" target="hNaM7XkKlE0wfAMFbM8I-33">
          <mxGeometry width="50" height="50" relative="1" as="geometry">
            <mxPoint x="1240" y="740" as="sourcePoint" />
            <mxPoint x="1290" y="690" as="targetPoint" />
          </mxGeometry>
        </mxCell>
        <mxCell id="hNaM7XkKlE0wfAMFbM8I-35" value="" style="shape=image;html=1;verticalAlign=top;verticalLabelPosition=bottom;labelBackgroundColor=#ffffff;imageAspect=0;aspect=fixed;image=https://cdn0.iconfinder.com/data/icons/solid-line-essential-ui-icon-set/512/essential_set_menu-128.png;fillColor=#FFFFFF;" vertex="1" parent="1">
          <mxGeometry x="1355" y="695" width="20" height="20" as="geometry" />
        </mxCell>
        <mxCell id="hNaM7XkKlE0wfAMFbM8I-36" value="" style="rounded=1;whiteSpace=wrap;html=1;fillColor=#FFFFFF;arcSize=32;" vertex="1" parent="1">
          <mxGeometry x="1151" y="741" width="219" height="59" as="geometry" />
        </mxCell>
        <mxCell id="hNaM7XkKlE0wfAMFbM8I-37" value="" style="rounded=1;whiteSpace=wrap;html=1;fillColor=#FFFFFF;arcSize=32;" vertex="1" parent="1">
          <mxGeometry x="1150.5" y="810" width="219" height="59" as="geometry" />
        </mxCell>
        <mxCell id="hNaM7XkKlE0wfAMFbM8I-38" value="" style="rounded=1;whiteSpace=wrap;html=1;fillColor=#FFFFFF;arcSize=32;" vertex="1" parent="1">
          <mxGeometry x="1150.5" y="881" width="219" height="59" as="geometry" />
        </mxCell>
        <mxCell id="hNaM7XkKlE0wfAMFbM8I-39" value="" style="rounded=0;whiteSpace=wrap;html=1;" vertex="1" parent="1">
          <mxGeometry x="1130" y="940" width="260" height="50" as="geometry" />
        </mxCell>
        <mxCell id="hNaM7XkKlE0wfAMFbM8I-40" value="" style="pointerEvents=1;shadow=0;dashed=0;html=1;strokeColor=none;fillColor=#505050;labelPosition=center;verticalLabelPosition=bottom;verticalAlign=top;outlineConnect=0;align=center;shape=mxgraph.office.concepts.home;" vertex="1" parent="1">
          <mxGeometry x="1140" y="946" width="39" height="38" as="geometry" />
        </mxCell>
        <mxCell id="hNaM7XkKlE0wfAMFbM8I-41" value="" style="shape=image;html=1;verticalAlign=top;verticalLabelPosition=bottom;labelBackgroundColor=#ffffff;imageAspect=0;aspect=fixed;image=https://cdn1.iconfinder.com/data/icons/common-version-3-0/1024/calendar-128.png" vertex="1" parent="1">
          <mxGeometry x="1207" y="946" width="38" height="38" as="geometry" />
        </mxCell>
        <mxCell id="hNaM7XkKlE0wfAMFbM8I-43" value="" style="pointerEvents=1;shadow=0;dashed=0;html=1;strokeColor=none;labelPosition=center;verticalLabelPosition=bottom;verticalAlign=top;align=center;fillColor=#505050;shape=mxgraph.mscae.intune.user_group" vertex="1" parent="1">
          <mxGeometry x="1339" y="949" width="40" height="34" as="geometry" />
        </mxCell>
        <mxCell id="hNaM7XkKlE0wfAMFbM8I-44" value="" style="shape=mxgraph.signs.food.restaurant_1;html=1;pointerEvents=1;fillColor=#000000;strokeColor=none;verticalLabelPosition=bottom;verticalAlign=top;align=center;" vertex="1" parent="1">
          <mxGeometry x="1280" y="950" width="30" height="33" as="geometry" />
        </mxCell>
        <mxCell id="hNaM7XkKlE0wfAMFbM8I-45" value="" style="endArrow=none;html=1;exitX=0;exitY=0.25;exitDx=0;exitDy=0;entryX=1;entryY=0.75;entryDx=0;entryDy=0;" edge="1" parent="1" source="hNaM7XkKlE0wfAMFbM8I-36" target="hNaM7XkKlE0wfAMFbM8I-36">
          <mxGeometry width="50" height="50" relative="1" as="geometry">
            <mxPoint x="1190" y="800" as="sourcePoint" />
            <mxPoint x="1240" y="750" as="targetPoint" />
          </mxGeometry>
        </mxCell>
        <mxCell id="hNaM7XkKlE0wfAMFbM8I-46" value="" style="endArrow=none;html=1;exitX=0;exitY=0.75;exitDx=0;exitDy=0;entryX=1;entryY=0.25;entryDx=0;entryDy=0;" edge="1" parent="1" source="hNaM7XkKlE0wfAMFbM8I-36" target="hNaM7XkKlE0wfAMFbM8I-36">
          <mxGeometry width="50" height="50" relative="1" as="geometry">
            <mxPoint x="1161" y="765.75" as="sourcePoint" />
            <mxPoint x="1380" y="795.25" as="targetPoint" />
          </mxGeometry>
        </mxCell>
        <mxCell id="hNaM7XkKlE0wfAMFbM8I-47" value="" style="endArrow=none;html=1;exitX=0;exitY=0.25;exitDx=0;exitDy=0;entryX=1;entryY=0.75;entryDx=0;entryDy=0;" edge="1" parent="1">
          <mxGeometry width="50" height="50" relative="1" as="geometry">
            <mxPoint x="1150.5" y="824.75" as="sourcePoint" />
            <mxPoint x="1369.5" y="854.25" as="targetPoint" />
          </mxGeometry>
        </mxCell>
        <mxCell id="hNaM7XkKlE0wfAMFbM8I-48" value="" style="endArrow=none;html=1;exitX=0;exitY=0.75;exitDx=0;exitDy=0;entryX=1;entryY=0.25;entryDx=0;entryDy=0;" edge="1" parent="1">
          <mxGeometry width="50" height="50" relative="1" as="geometry">
            <mxPoint x="1150.5" y="854.25" as="sourcePoint" />
            <mxPoint x="1369.5" y="824.75" as="targetPoint" />
          </mxGeometry>
        </mxCell>
        <mxCell id="hNaM7XkKlE0wfAMFbM8I-49" value="" style="endArrow=none;html=1;exitX=0;exitY=0.25;exitDx=0;exitDy=0;entryX=1;entryY=0.75;entryDx=0;entryDy=0;" edge="1" parent="1">
          <mxGeometry width="50" height="50" relative="1" as="geometry">
            <mxPoint x="1151" y="897" as="sourcePoint" />
            <mxPoint x="1370" y="926.5" as="targetPoint" />
          </mxGeometry>
        </mxCell>
        <mxCell id="hNaM7XkKlE0wfAMFbM8I-50" value="" style="endArrow=none;html=1;exitX=0;exitY=0.75;exitDx=0;exitDy=0;entryX=1;entryY=0.25;entryDx=0;entryDy=0;" edge="1" parent="1">
          <mxGeometry width="50" height="50" relative="1" as="geometry">
            <mxPoint x="1151" y="926.5" as="sourcePoint" />
            <mxPoint x="1370" y="897" as="targetPoint" />
          </mxGeometry>
        </mxCell>
        <mxCell id="hNaM7XkKlE0wfAMFbM8I-129" value="" style="rounded=0;whiteSpace=wrap;html=1;" vertex="1" parent="1">
          <mxGeometry x="576.5" y="1050" width="260" height="370" as="geometry" />
        </mxCell>
        <mxCell id="hNaM7XkKlE0wfAMFbM8I-130" value="" style="rounded=0;whiteSpace=wrap;html=1;" vertex="1" parent="1">
          <mxGeometry x="576.5" y="1050" width="260" height="30" as="geometry" />
        </mxCell>
        <mxCell id="hNaM7XkKlE0wfAMFbM8I-131" value="" style="points=[[0,0.58,0],[0.09,0.58,0],[0.36,0.39,0],[0.64,0.195,0],[0.91,0,0],[1,0,0],[1,0.25,0],[1,0.5,0],[1,0.75,0],[1,1,0],[0,1,0],[0.09,1,0],[0.36,1,0],[0.64,1,0],[0.91,1,0],[0,0.79,0]];verticalLabelPosition=bottom;html=1;verticalAlign=top;aspect=fixed;align=center;pointerEvents=1;shape=mxgraph.cisco19.wifi_indicator;fillColor=#005073;strokeColor=none;" vertex="1" parent="1">
          <mxGeometry x="586.5" y="1055" width="20" height="20" as="geometry" />
        </mxCell>
        <mxCell id="hNaM7XkKlE0wfAMFbM8I-132" value="" style="rounded=1;whiteSpace=wrap;html=1;" vertex="1" parent="1">
          <mxGeometry x="796.5" y="1060" width="30" height="10" as="geometry" />
        </mxCell>
        <mxCell id="hNaM7XkKlE0wfAMFbM8I-133" value="" style="pointerEvents=1;shadow=0;dashed=0;html=1;strokeColor=none;fillColor=#434445;aspect=fixed;labelPosition=center;verticalLabelPosition=bottom;verticalAlign=top;align=center;outlineConnect=0;shape=mxgraph.vvd.wi_fi;" vertex="1" parent="1">
          <mxGeometry x="766.5" y="1055" width="20" height="20" as="geometry" />
        </mxCell>
        <mxCell id="hNaM7XkKlE0wfAMFbM8I-134" value="" style="rounded=0;whiteSpace=wrap;html=1;fillColor=#FFFFFF;" vertex="1" parent="1">
          <mxGeometry x="576.5" y="1080" width="260" height="50" as="geometry" />
        </mxCell>
        <mxCell id="hNaM7XkKlE0wfAMFbM8I-135" value="" style="triangle;whiteSpace=wrap;html=1;fillColor=#FFFFFF;rotation=-180;" vertex="1" parent="1">
          <mxGeometry x="586.5" y="1095" width="10" height="20" as="geometry" />
        </mxCell>
        <mxCell id="hNaM7XkKlE0wfAMFbM8I-136" value="&lt;font color=&quot;#333333&quot;&gt;&lt;span&gt;Fitness-app&lt;/span&gt;&lt;/font&gt;" style="text;html=1;strokeColor=none;fillColor=none;align=center;verticalAlign=middle;whiteSpace=wrap;rounded=0;fontColor=#FFFFFF;" vertex="1" parent="1">
          <mxGeometry x="660" y="1095" width="80" height="20" as="geometry" />
        </mxCell>
        <mxCell id="hNaM7XkKlE0wfAMFbM8I-150" value="" style="rounded=0;whiteSpace=wrap;html=1;" vertex="1" parent="1">
          <mxGeometry x="576.5" y="1390" width="260" height="30" as="geometry" />
        </mxCell>
        <mxCell id="hNaM7XkKlE0wfAMFbM8I-151" value="" style="ellipse;whiteSpace=wrap;html=1;aspect=fixed;" vertex="1" parent="1">
          <mxGeometry x="691.5" y="1390" width="30" height="30" as="geometry" />
        </mxCell>
        <mxCell id="hNaM7XkKlE0wfAMFbM8I-152" value="" style="rounded=0;whiteSpace=wrap;html=1;" vertex="1" parent="1">
          <mxGeometry x="576.5" y="1340" width="260" height="50" as="geometry" />
        </mxCell>
        <mxCell id="hNaM7XkKlE0wfAMFbM8I-153" value="" style="pointerEvents=1;shadow=0;dashed=0;html=1;strokeColor=none;fillColor=#505050;labelPosition=center;verticalLabelPosition=bottom;verticalAlign=top;outlineConnect=0;align=center;shape=mxgraph.office.concepts.home;" vertex="1" parent="1">
          <mxGeometry x="586.5" y="1346" width="39" height="38" as="geometry" />
        </mxCell>
        <mxCell id="hNaM7XkKlE0wfAMFbM8I-154" value="" style="shape=image;html=1;verticalAlign=top;verticalLabelPosition=bottom;labelBackgroundColor=#ffffff;imageAspect=0;aspect=fixed;image=https://cdn1.iconfinder.com/data/icons/common-version-3-0/1024/calendar-128.png" vertex="1" parent="1">
          <mxGeometry x="653.5" y="1346" width="38" height="38" as="geometry" />
        </mxCell>
        <mxCell id="hNaM7XkKlE0wfAMFbM8I-155" value="" style="pointerEvents=1;shadow=0;dashed=0;html=1;strokeColor=none;labelPosition=center;verticalLabelPosition=bottom;verticalAlign=top;align=center;fillColor=#505050;shape=mxgraph.mscae.intune.user_group" vertex="1" parent="1">
          <mxGeometry x="785.5" y="1349" width="40" height="34" as="geometry" />
        </mxCell>
        <mxCell id="hNaM7XkKlE0wfAMFbM8I-156" value="" style="shape=mxgraph.signs.food.restaurant_1;html=1;pointerEvents=1;fillColor=#000000;strokeColor=none;verticalLabelPosition=bottom;verticalAlign=top;align=center;" vertex="1" parent="1">
          <mxGeometry x="726.5" y="1350" width="30" height="33" as="geometry" />
        </mxCell>
        <mxCell id="hNaM7XkKlE0wfAMFbM8I-157" value="" style="shape=image;html=1;verticalAlign=top;verticalLabelPosition=bottom;labelBackgroundColor=#ffffff;imageAspect=0;aspect=fixed;image=https://cdn2.iconfinder.com/data/icons/freecns-cumulus/16/519584-081_Pen-128.png;fillColor=#FFFFFF;" vertex="1" parent="1">
          <mxGeometry x="803.5" y="1090" width="30" height="30" as="geometry" />
        </mxCell>
        <mxCell id="hNaM7XkKlE0wfAMFbM8I-158" value="" style="shape=actor;whiteSpace=wrap;html=1;fontFamily=Helvetica;fontSize=12;fontColor=#000000;align=center;strokeColor=#000000;fillColor=#FFFFFF;" vertex="1" parent="1">
          <mxGeometry x="598" y="1140" width="40" height="40" as="geometry" />
        </mxCell>
        <mxCell id="hNaM7XkKlE0wfAMFbM8I-160" value="" style="whiteSpace=wrap;html=1;aspect=fixed;fillColor=#FFFFFF;fontColor=#FFFFFF;" vertex="1" parent="1">
          <mxGeometry x="598" y="1190" width="65" height="65" as="geometry" />
        </mxCell>
        <mxCell id="hNaM7XkKlE0wfAMFbM8I-161" value="" style="whiteSpace=wrap;html=1;aspect=fixed;fillColor=#FFFFFF;fontColor=#FFFFFF;" vertex="1" parent="1">
          <mxGeometry x="678.5" y="1190" width="65" height="65" as="geometry" />
        </mxCell>
        <mxCell id="hNaM7XkKlE0wfAMFbM8I-162" value="" style="whiteSpace=wrap;html=1;aspect=fixed;fillColor=#FFFFFF;fontColor=#FFFFFF;" vertex="1" parent="1">
          <mxGeometry x="758" y="1190" width="65" height="65" as="geometry" />
        </mxCell>
        <mxCell id="hNaM7XkKlE0wfAMFbM8I-163" value="" style="whiteSpace=wrap;html=1;aspect=fixed;fillColor=#FFFFFF;fontColor=#FFFFFF;" vertex="1" parent="1">
          <mxGeometry x="598.5" y="1264.5" width="65" height="65" as="geometry" />
        </mxCell>
        <mxCell id="hNaM7XkKlE0wfAMFbM8I-164" value="" style="whiteSpace=wrap;html=1;aspect=fixed;fillColor=#FFFFFF;fontColor=#FFFFFF;" vertex="1" parent="1">
          <mxGeometry x="679" y="1264.5" width="65" height="65" as="geometry" />
        </mxCell>
        <mxCell id="hNaM7XkKlE0wfAMFbM8I-165" value="" style="whiteSpace=wrap;html=1;aspect=fixed;fillColor=#FFFFFF;fontColor=#FFFFFF;" vertex="1" parent="1">
          <mxGeometry x="758.5" y="1264.5" width="65" height="65" as="geometry" />
        </mxCell>
        <mxCell id="hNaM7XkKlE0wfAMFbM8I-166" value="" style="endArrow=none;html=1;fontColor=#FFFFFF;exitX=1;exitY=0;exitDx=0;exitDy=0;entryX=0;entryY=1;entryDx=0;entryDy=0;" edge="1" parent="1" source="hNaM7XkKlE0wfAMFbM8I-160" target="hNaM7XkKlE0wfAMFbM8I-160">
          <mxGeometry width="50" height="50" relative="1" as="geometry">
            <mxPoint x="368" y="1369.5" as="sourcePoint" />
            <mxPoint x="418" y="1319.5" as="targetPoint" />
          </mxGeometry>
        </mxCell>
        <mxCell id="hNaM7XkKlE0wfAMFbM8I-167" value="" style="endArrow=none;html=1;fontColor=#FFFFFF;exitX=0;exitY=0;exitDx=0;exitDy=0;entryX=1;entryY=1;entryDx=0;entryDy=0;" edge="1" parent="1" source="hNaM7XkKlE0wfAMFbM8I-160" target="hNaM7XkKlE0wfAMFbM8I-160">
          <mxGeometry width="50" height="50" relative="1" as="geometry">
            <mxPoint x="673" y="1200" as="sourcePoint" />
            <mxPoint x="608" y="1265" as="targetPoint" />
          </mxGeometry>
        </mxCell>
        <mxCell id="hNaM7XkKlE0wfAMFbM8I-168" value="" style="endArrow=none;html=1;fontColor=#FFFFFF;exitX=1;exitY=0;exitDx=0;exitDy=0;entryX=0;entryY=1;entryDx=0;entryDy=0;" edge="1" parent="1">
          <mxGeometry width="50" height="50" relative="1" as="geometry">
            <mxPoint x="743.5" y="1190" as="sourcePoint" />
            <mxPoint x="678.5" y="1255" as="targetPoint" />
          </mxGeometry>
        </mxCell>
        <mxCell id="hNaM7XkKlE0wfAMFbM8I-169" value="" style="endArrow=none;html=1;fontColor=#FFFFFF;exitX=0;exitY=0;exitDx=0;exitDy=0;entryX=1;entryY=1;entryDx=0;entryDy=0;" edge="1" parent="1">
          <mxGeometry width="50" height="50" relative="1" as="geometry">
            <mxPoint x="678.5" y="1190" as="sourcePoint" />
            <mxPoint x="743.5" y="1255" as="targetPoint" />
          </mxGeometry>
        </mxCell>
        <mxCell id="hNaM7XkKlE0wfAMFbM8I-170" value="" style="endArrow=none;html=1;fontColor=#FFFFFF;entryX=0;entryY=1;entryDx=0;entryDy=0;" edge="1" parent="1" source="hNaM7XkKlE0wfAMFbM8I-162">
          <mxGeometry width="50" height="50" relative="1" as="geometry">
            <mxPoint x="823" y="1190" as="sourcePoint" />
            <mxPoint x="758" y="1255" as="targetPoint" />
          </mxGeometry>
        </mxCell>
        <mxCell id="hNaM7XkKlE0wfAMFbM8I-171" value="" style="endArrow=none;html=1;fontColor=#FFFFFF;exitX=0;exitY=0;exitDx=0;exitDy=0;entryX=1;entryY=1;entryDx=0;entryDy=0;" edge="1" parent="1">
          <mxGeometry width="50" height="50" relative="1" as="geometry">
            <mxPoint x="758" y="1190" as="sourcePoint" />
            <mxPoint x="823" y="1255" as="targetPoint" />
          </mxGeometry>
        </mxCell>
        <mxCell id="hNaM7XkKlE0wfAMFbM8I-172" value="" style="endArrow=none;html=1;fontColor=#FFFFFF;exitX=1;exitY=0;exitDx=0;exitDy=0;entryX=0;entryY=1;entryDx=0;entryDy=0;" edge="1" parent="1">
          <mxGeometry width="50" height="50" relative="1" as="geometry">
            <mxPoint x="663" y="1264.5" as="sourcePoint" />
            <mxPoint x="598" y="1329.5" as="targetPoint" />
          </mxGeometry>
        </mxCell>
        <mxCell id="hNaM7XkKlE0wfAMFbM8I-173" value="" style="endArrow=none;html=1;fontColor=#FFFFFF;exitX=0;exitY=0;exitDx=0;exitDy=0;entryX=1;entryY=1;entryDx=0;entryDy=0;" edge="1" parent="1">
          <mxGeometry width="50" height="50" relative="1" as="geometry">
            <mxPoint x="598" y="1264.5" as="sourcePoint" />
            <mxPoint x="663" y="1329.5" as="targetPoint" />
          </mxGeometry>
        </mxCell>
        <mxCell id="hNaM7XkKlE0wfAMFbM8I-174" value="" style="endArrow=none;html=1;fontColor=#FFFFFF;exitX=1;exitY=0;exitDx=0;exitDy=0;entryX=0;entryY=1;entryDx=0;entryDy=0;" edge="1" parent="1">
          <mxGeometry width="50" height="50" relative="1" as="geometry">
            <mxPoint x="743.5" y="1264.5" as="sourcePoint" />
            <mxPoint x="678.5" y="1329.5" as="targetPoint" />
          </mxGeometry>
        </mxCell>
        <mxCell id="hNaM7XkKlE0wfAMFbM8I-175" value="" style="endArrow=none;html=1;fontColor=#FFFFFF;exitX=0;exitY=0;exitDx=0;exitDy=0;entryX=1;entryY=1;entryDx=0;entryDy=0;" edge="1" parent="1">
          <mxGeometry width="50" height="50" relative="1" as="geometry">
            <mxPoint x="678.5" y="1264.5" as="sourcePoint" />
            <mxPoint x="743.5" y="1329.5" as="targetPoint" />
          </mxGeometry>
        </mxCell>
        <mxCell id="hNaM7XkKlE0wfAMFbM8I-176" value="" style="endArrow=none;html=1;fontColor=#FFFFFF;exitX=1;exitY=0;exitDx=0;exitDy=0;entryX=0;entryY=1;entryDx=0;entryDy=0;" edge="1" parent="1">
          <mxGeometry width="50" height="50" relative="1" as="geometry">
            <mxPoint x="823.5" y="1264.5" as="sourcePoint" />
            <mxPoint x="758.5" y="1329.5" as="targetPoint" />
          </mxGeometry>
        </mxCell>
        <mxCell id="hNaM7XkKlE0wfAMFbM8I-177" value="" style="endArrow=none;html=1;fontColor=#FFFFFF;exitX=0;exitY=0;exitDx=0;exitDy=0;entryX=1;entryY=1;entryDx=0;entryDy=0;" edge="1" parent="1">
          <mxGeometry width="50" height="50" relative="1" as="geometry">
            <mxPoint x="758.5" y="1264.5" as="sourcePoint" />
            <mxPoint x="823.5" y="1329.5" as="targetPoint" />
          </mxGeometry>
        </mxCell>
        <mxCell id="hNaM7XkKlE0wfAMFbM8I-178" value="Text" style="text;html=1;strokeColor=none;fillColor=none;align=center;verticalAlign=middle;whiteSpace=wrap;rounded=0;" vertex="1" parent="1">
          <mxGeometry x="650" y="1140" width="40" height="20" as="geometry" />
        </mxCell>
        <mxCell id="hNaM7XkKlE0wfAMFbM8I-179" value="" style="rounded=0;whiteSpace=wrap;html=1;" vertex="1" parent="1">
          <mxGeometry x="863.5" y="1050" width="260" height="370" as="geometry" />
        </mxCell>
        <mxCell id="hNaM7XkKlE0wfAMFbM8I-180" value="" style="rounded=0;whiteSpace=wrap;html=1;" vertex="1" parent="1">
          <mxGeometry x="863.5" y="1050" width="260" height="30" as="geometry" />
        </mxCell>
        <mxCell id="hNaM7XkKlE0wfAMFbM8I-181" value="" style="points=[[0,0.58,0],[0.09,0.58,0],[0.36,0.39,0],[0.64,0.195,0],[0.91,0,0],[1,0,0],[1,0.25,0],[1,0.5,0],[1,0.75,0],[1,1,0],[0,1,0],[0.09,1,0],[0.36,1,0],[0.64,1,0],[0.91,1,0],[0,0.79,0]];verticalLabelPosition=bottom;html=1;verticalAlign=top;aspect=fixed;align=center;pointerEvents=1;shape=mxgraph.cisco19.wifi_indicator;fillColor=#005073;strokeColor=none;" vertex="1" parent="1">
          <mxGeometry x="873.5" y="1055" width="20" height="20" as="geometry" />
        </mxCell>
        <mxCell id="hNaM7XkKlE0wfAMFbM8I-182" value="" style="rounded=1;whiteSpace=wrap;html=1;" vertex="1" parent="1">
          <mxGeometry x="1083.5" y="1060" width="30" height="10" as="geometry" />
        </mxCell>
        <mxCell id="hNaM7XkKlE0wfAMFbM8I-183" value="" style="pointerEvents=1;shadow=0;dashed=0;html=1;strokeColor=none;fillColor=#434445;aspect=fixed;labelPosition=center;verticalLabelPosition=bottom;verticalAlign=top;align=center;outlineConnect=0;shape=mxgraph.vvd.wi_fi;" vertex="1" parent="1">
          <mxGeometry x="1053.5" y="1055" width="20" height="20" as="geometry" />
        </mxCell>
        <mxCell id="hNaM7XkKlE0wfAMFbM8I-184" value="" style="rounded=0;whiteSpace=wrap;html=1;fillColor=#FFFFFF;" vertex="1" parent="1">
          <mxGeometry x="863.5" y="1080" width="260" height="50" as="geometry" />
        </mxCell>
        <mxCell id="hNaM7XkKlE0wfAMFbM8I-185" value="" style="triangle;whiteSpace=wrap;html=1;fillColor=#FFFFFF;rotation=-180;" vertex="1" parent="1">
          <mxGeometry x="873.5" y="1095" width="10" height="20" as="geometry" />
        </mxCell>
        <mxCell id="hNaM7XkKlE0wfAMFbM8I-186" value="&lt;font color=&quot;#333333&quot;&gt;&lt;span&gt;Fitness-app&lt;/span&gt;&lt;/font&gt;" style="text;html=1;strokeColor=none;fillColor=none;align=center;verticalAlign=middle;whiteSpace=wrap;rounded=0;fontColor=#FFFFFF;" vertex="1" parent="1">
          <mxGeometry x="947" y="1095" width="80" height="20" as="geometry" />
        </mxCell>
        <mxCell id="hNaM7XkKlE0wfAMFbM8I-187" value="" style="rounded=0;whiteSpace=wrap;html=1;" vertex="1" parent="1">
          <mxGeometry x="863.5" y="1390" width="260" height="30" as="geometry" />
        </mxCell>
        <mxCell id="hNaM7XkKlE0wfAMFbM8I-188" value="" style="ellipse;whiteSpace=wrap;html=1;aspect=fixed;" vertex="1" parent="1">
          <mxGeometry x="978.5" y="1390" width="30" height="30" as="geometry" />
        </mxCell>
        <mxCell id="hNaM7XkKlE0wfAMFbM8I-189" value="" style="rounded=0;whiteSpace=wrap;html=1;" vertex="1" parent="1">
          <mxGeometry x="863.5" y="1340" width="260" height="50" as="geometry" />
        </mxCell>
        <mxCell id="hNaM7XkKlE0wfAMFbM8I-190" value="" style="pointerEvents=1;shadow=0;dashed=0;html=1;strokeColor=none;fillColor=#505050;labelPosition=center;verticalLabelPosition=bottom;verticalAlign=top;outlineConnect=0;align=center;shape=mxgraph.office.concepts.home;" vertex="1" parent="1">
          <mxGeometry x="873.5" y="1346" width="39" height="38" as="geometry" />
        </mxCell>
        <mxCell id="hNaM7XkKlE0wfAMFbM8I-191" value="" style="shape=image;html=1;verticalAlign=top;verticalLabelPosition=bottom;labelBackgroundColor=#ffffff;imageAspect=0;aspect=fixed;image=https://cdn1.iconfinder.com/data/icons/common-version-3-0/1024/calendar-128.png" vertex="1" parent="1">
          <mxGeometry x="940.5" y="1346" width="38" height="38" as="geometry" />
        </mxCell>
        <mxCell id="hNaM7XkKlE0wfAMFbM8I-192" value="" style="pointerEvents=1;shadow=0;dashed=0;html=1;strokeColor=none;labelPosition=center;verticalLabelPosition=bottom;verticalAlign=top;align=center;fillColor=#505050;shape=mxgraph.mscae.intune.user_group" vertex="1" parent="1">
          <mxGeometry x="1072.5" y="1349" width="40" height="34" as="geometry" />
        </mxCell>
        <mxCell id="hNaM7XkKlE0wfAMFbM8I-193" value="" style="shape=mxgraph.signs.food.restaurant_1;html=1;pointerEvents=1;fillColor=#000000;strokeColor=none;verticalLabelPosition=bottom;verticalAlign=top;align=center;" vertex="1" parent="1">
          <mxGeometry x="1013.5" y="1350" width="30" height="33" as="geometry" />
        </mxCell>
        <mxCell id="hNaM7XkKlE0wfAMFbM8I-194" value="" style="shape=image;html=1;verticalAlign=top;verticalLabelPosition=bottom;labelBackgroundColor=#ffffff;imageAspect=0;aspect=fixed;image=https://cdn2.iconfinder.com/data/icons/freecns-cumulus/16/519584-081_Pen-128.png;fillColor=#FFFFFF;" vertex="1" parent="1">
          <mxGeometry x="1090.5" y="1090" width="30" height="30" as="geometry" />
        </mxCell>
        <mxCell id="hNaM7XkKlE0wfAMFbM8I-215" value="" style="shape=image;html=1;verticalAlign=top;verticalLabelPosition=bottom;labelBackgroundColor=#ffffff;imageAspect=0;aspect=fixed;image=https://cdn0.iconfinder.com/data/icons/education-340/100/Tilda_Icons_1ed_calendar-128.png;fillColor=#FFFFFF;" vertex="1" parent="1">
          <mxGeometry x="877" y="1140" width="32" height="32" as="geometry" />
        </mxCell>
        <mxCell id="hNaM7XkKlE0wfAMFbM8I-216" value="Text" style="text;html=1;strokeColor=none;fillColor=none;align=center;verticalAlign=middle;whiteSpace=wrap;rounded=0;" vertex="1" parent="1">
          <mxGeometry x="915" y="1140" width="40" height="20" as="geometry" />
        </mxCell>
        <mxCell id="hNaM7XkKlE0wfAMFbM8I-217" value="Text" style="text;html=1;strokeColor=none;fillColor=none;align=center;verticalAlign=middle;whiteSpace=wrap;rounded=0;" vertex="1" parent="1">
          <mxGeometry x="877" y="1180" width="40" height="20" as="geometry" />
        </mxCell>
        <mxCell id="hNaM7XkKlE0wfAMFbM8I-218" value="Text" style="text;html=1;strokeColor=none;fillColor=none;align=center;verticalAlign=middle;whiteSpace=wrap;rounded=0;" vertex="1" parent="1">
          <mxGeometry x="877" y="1220" width="40" height="20" as="geometry" />
        </mxCell>
        <mxCell id="hNaM7XkKlE0wfAMFbM8I-219" value="Text" style="text;html=1;strokeColor=none;fillColor=none;align=center;verticalAlign=middle;whiteSpace=wrap;rounded=0;" vertex="1" parent="1">
          <mxGeometry x="877" y="1265" width="40" height="20" as="geometry" />
        </mxCell>
        <mxCell id="hNaM7XkKlE0wfAMFbM8I-220" value="" style="rounded=1;whiteSpace=wrap;html=1;fillColor=#FFFFFF;arcSize=32;" vertex="1" parent="1">
          <mxGeometry x="945" y="1175" width="160" height="30" as="geometry" />
        </mxCell>
        <mxCell id="hNaM7XkKlE0wfAMFbM8I-221" value="" style="endArrow=none;html=1;exitX=0;exitY=0.25;exitDx=0;exitDy=0;entryX=1;entryY=0.75;entryDx=0;entryDy=0;" edge="1" parent="1" source="hNaM7XkKlE0wfAMFbM8I-220" target="hNaM7XkKlE0wfAMFbM8I-220">
          <mxGeometry width="50" height="50" relative="1" as="geometry">
            <mxPoint x="925" y="1205" as="sourcePoint" />
            <mxPoint x="975" y="1155" as="targetPoint" />
          </mxGeometry>
        </mxCell>
        <mxCell id="hNaM7XkKlE0wfAMFbM8I-222" value="" style="endArrow=none;html=1;exitX=0;exitY=0.75;exitDx=0;exitDy=0;entryX=1;entryY=0.25;entryDx=0;entryDy=0;" edge="1" parent="1" source="hNaM7XkKlE0wfAMFbM8I-220" target="hNaM7XkKlE0wfAMFbM8I-220">
          <mxGeometry width="50" height="50" relative="1" as="geometry">
            <mxPoint x="896" y="1170.75" as="sourcePoint" />
            <mxPoint x="1115" y="1200.25" as="targetPoint" />
          </mxGeometry>
        </mxCell>
        <mxCell id="hNaM7XkKlE0wfAMFbM8I-223" value="" style="rounded=1;whiteSpace=wrap;html=1;fillColor=#FFFFFF;arcSize=32;" vertex="1" parent="1">
          <mxGeometry x="945" y="1215" width="160" height="30" as="geometry" />
        </mxCell>
        <mxCell id="hNaM7XkKlE0wfAMFbM8I-224" value="" style="endArrow=none;html=1;exitX=0;exitY=0.25;exitDx=0;exitDy=0;entryX=1;entryY=0.75;entryDx=0;entryDy=0;" edge="1" parent="1" source="hNaM7XkKlE0wfAMFbM8I-223" target="hNaM7XkKlE0wfAMFbM8I-223">
          <mxGeometry width="50" height="50" relative="1" as="geometry">
            <mxPoint x="925" y="1245" as="sourcePoint" />
            <mxPoint x="975" y="1195" as="targetPoint" />
          </mxGeometry>
        </mxCell>
        <mxCell id="hNaM7XkKlE0wfAMFbM8I-225" value="" style="endArrow=none;html=1;exitX=0;exitY=0.75;exitDx=0;exitDy=0;entryX=1;entryY=0.25;entryDx=0;entryDy=0;" edge="1" parent="1" source="hNaM7XkKlE0wfAMFbM8I-223" target="hNaM7XkKlE0wfAMFbM8I-223">
          <mxGeometry width="50" height="50" relative="1" as="geometry">
            <mxPoint x="896" y="1210.75" as="sourcePoint" />
            <mxPoint x="1115" y="1240.25" as="targetPoint" />
          </mxGeometry>
        </mxCell>
        <mxCell id="hNaM7XkKlE0wfAMFbM8I-226" value="" style="rounded=1;whiteSpace=wrap;html=1;fillColor=#FFFFFF;arcSize=32;" vertex="1" parent="1">
          <mxGeometry x="945.5" y="1255" width="160" height="30" as="geometry" />
        </mxCell>
        <mxCell id="hNaM7XkKlE0wfAMFbM8I-227" value="" style="endArrow=none;html=1;exitX=0;exitY=0.25;exitDx=0;exitDy=0;entryX=1;entryY=0.75;entryDx=0;entryDy=0;" edge="1" parent="1" source="hNaM7XkKlE0wfAMFbM8I-226" target="hNaM7XkKlE0wfAMFbM8I-226">
          <mxGeometry width="50" height="50" relative="1" as="geometry">
            <mxPoint x="925.5" y="1285" as="sourcePoint" />
            <mxPoint x="975.5" y="1235" as="targetPoint" />
          </mxGeometry>
        </mxCell>
        <mxCell id="hNaM7XkKlE0wfAMFbM8I-228" value="" style="endArrow=none;html=1;exitX=0;exitY=0.75;exitDx=0;exitDy=0;entryX=1;entryY=0.25;entryDx=0;entryDy=0;" edge="1" parent="1" source="hNaM7XkKlE0wfAMFbM8I-226" target="hNaM7XkKlE0wfAMFbM8I-226">
          <mxGeometry width="50" height="50" relative="1" as="geometry">
            <mxPoint x="896.5" y="1250.75" as="sourcePoint" />
            <mxPoint x="1115.5" y="1280.25" as="targetPoint" />
          </mxGeometry>
        </mxCell>
        <mxCell id="hNaM7XkKlE0wfAMFbM8I-229" value="" style="rounded=0;whiteSpace=wrap;html=1;" vertex="1" parent="1">
          <mxGeometry x="1130.5" y="1050" width="260" height="370" as="geometry" />
        </mxCell>
        <mxCell id="hNaM7XkKlE0wfAMFbM8I-230" value="" style="rounded=0;whiteSpace=wrap;html=1;" vertex="1" parent="1">
          <mxGeometry x="1130.5" y="1050" width="260" height="30" as="geometry" />
        </mxCell>
        <mxCell id="hNaM7XkKlE0wfAMFbM8I-231" value="" style="points=[[0,0.58,0],[0.09,0.58,0],[0.36,0.39,0],[0.64,0.195,0],[0.91,0,0],[1,0,0],[1,0.25,0],[1,0.5,0],[1,0.75,0],[1,1,0],[0,1,0],[0.09,1,0],[0.36,1,0],[0.64,1,0],[0.91,1,0],[0,0.79,0]];verticalLabelPosition=bottom;html=1;verticalAlign=top;aspect=fixed;align=center;pointerEvents=1;shape=mxgraph.cisco19.wifi_indicator;fillColor=#005073;strokeColor=none;" vertex="1" parent="1">
          <mxGeometry x="1140.5" y="1055" width="20" height="20" as="geometry" />
        </mxCell>
        <mxCell id="hNaM7XkKlE0wfAMFbM8I-232" value="" style="rounded=1;whiteSpace=wrap;html=1;" vertex="1" parent="1">
          <mxGeometry x="1350.5" y="1060" width="30" height="10" as="geometry" />
        </mxCell>
        <mxCell id="hNaM7XkKlE0wfAMFbM8I-233" value="" style="pointerEvents=1;shadow=0;dashed=0;html=1;strokeColor=none;fillColor=#434445;aspect=fixed;labelPosition=center;verticalLabelPosition=bottom;verticalAlign=top;align=center;outlineConnect=0;shape=mxgraph.vvd.wi_fi;" vertex="1" parent="1">
          <mxGeometry x="1320.5" y="1055" width="20" height="20" as="geometry" />
        </mxCell>
        <mxCell id="hNaM7XkKlE0wfAMFbM8I-234" value="" style="rounded=0;whiteSpace=wrap;html=1;" vertex="1" parent="1">
          <mxGeometry x="1130.5" y="1390" width="260" height="30" as="geometry" />
        </mxCell>
        <mxCell id="hNaM7XkKlE0wfAMFbM8I-235" value="" style="ellipse;whiteSpace=wrap;html=1;aspect=fixed;" vertex="1" parent="1">
          <mxGeometry x="1245.5" y="1390" width="30" height="30" as="geometry" />
        </mxCell>
        <mxCell id="hNaM7XkKlE0wfAMFbM8I-236" value="" style="rounded=0;whiteSpace=wrap;html=1;fillColor=#FFFFFF;" vertex="1" parent="1">
          <mxGeometry x="1130.5" y="1080" width="260" height="100" as="geometry" />
        </mxCell>
        <mxCell id="hNaM7XkKlE0wfAMFbM8I-237" value="" style="triangle;whiteSpace=wrap;html=1;fillColor=#FFFFFF;rotation=-180;" vertex="1" parent="1">
          <mxGeometry x="1140.5" y="1095" width="10" height="20" as="geometry" />
        </mxCell>
        <mxCell id="hNaM7XkKlE0wfAMFbM8I-239" value="&lt;font color=&quot;#333333&quot;&gt;&lt;span&gt;Happy meal&lt;/span&gt;&lt;/font&gt;" style="text;html=1;strokeColor=none;fillColor=none;align=center;verticalAlign=middle;whiteSpace=wrap;rounded=0;fontColor=#FFFFFF;" vertex="1" parent="1">
          <mxGeometry x="1160" y="1115" width="80" height="20" as="geometry" />
        </mxCell>
        <mxCell id="hNaM7XkKlE0wfAMFbM8I-259" value="" style="shape=actor;whiteSpace=wrap;html=1;fontFamily=Helvetica;fontSize=12;fontColor=#000000;align=center;strokeColor=#000000;fillColor=#FFFFFF;" vertex="1" parent="1">
          <mxGeometry x="1329.5" y="1085" width="40" height="40" as="geometry" />
        </mxCell>
        <mxCell id="hNaM7XkKlE0wfAMFbM8I-260" value="" style="rounded=1;whiteSpace=wrap;html=1;fillColor=#FFFFFF;arcSize=50;" vertex="1" parent="1">
          <mxGeometry x="1200" y="1135" width="110" height="20" as="geometry" />
        </mxCell>
        <mxCell id="hNaM7XkKlE0wfAMFbM8I-261" value="" style="endArrow=none;html=1;entryX=0.5;entryY=0;entryDx=0;entryDy=0;exitX=0.5;exitY=1;exitDx=0;exitDy=0;" edge="1" parent="1" source="hNaM7XkKlE0wfAMFbM8I-260" target="hNaM7XkKlE0wfAMFbM8I-260">
          <mxGeometry width="50" height="50" relative="1" as="geometry">
            <mxPoint x="1230" y="1180" as="sourcePoint" />
            <mxPoint x="1280" y="1130" as="targetPoint" />
          </mxGeometry>
        </mxCell>
        <mxCell id="hNaM7XkKlE0wfAMFbM8I-262" value="" style="rounded=1;whiteSpace=wrap;html=1;fillColor=#FFFFFF;arcSize=32;" vertex="1" parent="1">
          <mxGeometry x="1150.5" y="1170" width="219" height="59" as="geometry" />
        </mxCell>
        <mxCell id="hNaM7XkKlE0wfAMFbM8I-263" value="" style="endArrow=none;html=1;exitX=0;exitY=0.25;exitDx=0;exitDy=0;entryX=1;entryY=0.75;entryDx=0;entryDy=0;" edge="1" parent="1" source="hNaM7XkKlE0wfAMFbM8I-262" target="hNaM7XkKlE0wfAMFbM8I-262">
          <mxGeometry width="50" height="50" relative="1" as="geometry">
            <mxPoint x="1189.5" y="1229" as="sourcePoint" />
            <mxPoint x="1239.5" y="1179" as="targetPoint" />
          </mxGeometry>
        </mxCell>
        <mxCell id="hNaM7XkKlE0wfAMFbM8I-264" value="" style="endArrow=none;html=1;exitX=0;exitY=0.75;exitDx=0;exitDy=0;entryX=1;entryY=0.25;entryDx=0;entryDy=0;" edge="1" parent="1" source="hNaM7XkKlE0wfAMFbM8I-262" target="hNaM7XkKlE0wfAMFbM8I-262">
          <mxGeometry width="50" height="50" relative="1" as="geometry">
            <mxPoint x="1160.5" y="1194.75" as="sourcePoint" />
            <mxPoint x="1379.5" y="1224.25" as="targetPoint" />
          </mxGeometry>
        </mxCell>
        <mxCell id="hNaM7XkKlE0wfAMFbM8I-265" value="" style="rounded=1;whiteSpace=wrap;html=1;fillColor=#FFFFFF;arcSize=32;" vertex="1" parent="1">
          <mxGeometry x="1150.5" y="1245" width="219" height="59" as="geometry" />
        </mxCell>
        <mxCell id="hNaM7XkKlE0wfAMFbM8I-266" value="" style="endArrow=none;html=1;exitX=0;exitY=0.25;exitDx=0;exitDy=0;entryX=1;entryY=0.75;entryDx=0;entryDy=0;" edge="1" parent="1" source="hNaM7XkKlE0wfAMFbM8I-265" target="hNaM7XkKlE0wfAMFbM8I-265">
          <mxGeometry width="50" height="50" relative="1" as="geometry">
            <mxPoint x="1189.5" y="1304" as="sourcePoint" />
            <mxPoint x="1239.5" y="1254" as="targetPoint" />
          </mxGeometry>
        </mxCell>
        <mxCell id="hNaM7XkKlE0wfAMFbM8I-267" value="" style="endArrow=none;html=1;exitX=0;exitY=0.75;exitDx=0;exitDy=0;entryX=1;entryY=0.25;entryDx=0;entryDy=0;" edge="1" parent="1" source="hNaM7XkKlE0wfAMFbM8I-265" target="hNaM7XkKlE0wfAMFbM8I-265">
          <mxGeometry width="50" height="50" relative="1" as="geometry">
            <mxPoint x="1160.5" y="1269.75" as="sourcePoint" />
            <mxPoint x="1379.5" y="1299.25" as="targetPoint" />
          </mxGeometry>
        </mxCell>
        <mxCell id="hNaM7XkKlE0wfAMFbM8I-268" value="" style="rounded=1;whiteSpace=wrap;html=1;fillColor=#FFFFFF;arcSize=32;" vertex="1" parent="1">
          <mxGeometry x="1150.5" y="1320" width="219" height="59" as="geometry" />
        </mxCell>
        <mxCell id="hNaM7XkKlE0wfAMFbM8I-269" value="" style="endArrow=none;html=1;exitX=0;exitY=0.25;exitDx=0;exitDy=0;entryX=1;entryY=0.75;entryDx=0;entryDy=0;" edge="1" parent="1" source="hNaM7XkKlE0wfAMFbM8I-268" target="hNaM7XkKlE0wfAMFbM8I-268">
          <mxGeometry width="50" height="50" relative="1" as="geometry">
            <mxPoint x="1189.5" y="1379" as="sourcePoint" />
            <mxPoint x="1239.5" y="1329" as="targetPoint" />
          </mxGeometry>
        </mxCell>
        <mxCell id="hNaM7XkKlE0wfAMFbM8I-270" value="" style="endArrow=none;html=1;exitX=0;exitY=0.75;exitDx=0;exitDy=0;entryX=1;entryY=0.25;entryDx=0;entryDy=0;" edge="1" parent="1" source="hNaM7XkKlE0wfAMFbM8I-268" target="hNaM7XkKlE0wfAMFbM8I-268">
          <mxGeometry width="50" height="50" relative="1" as="geometry">
            <mxPoint x="1160.5" y="1344.75" as="sourcePoint" />
            <mxPoint x="1379.5" y="1374.25" as="targetPoint" />
          </mxGeometry>
        </mxCell>
        <mxCell id="hNaM7XkKlE0wfAMFbM8I-271" value="" style="rounded=0;whiteSpace=wrap;html=1;" vertex="1" parent="1">
          <mxGeometry x="570" y="1430" width="260" height="370" as="geometry" />
        </mxCell>
        <mxCell id="hNaM7XkKlE0wfAMFbM8I-272" value="" style="rounded=0;whiteSpace=wrap;html=1;" vertex="1" parent="1">
          <mxGeometry x="570" y="1430" width="260" height="30" as="geometry" />
        </mxCell>
        <mxCell id="hNaM7XkKlE0wfAMFbM8I-273" value="" style="points=[[0,0.58,0],[0.09,0.58,0],[0.36,0.39,0],[0.64,0.195,0],[0.91,0,0],[1,0,0],[1,0.25,0],[1,0.5,0],[1,0.75,0],[1,1,0],[0,1,0],[0.09,1,0],[0.36,1,0],[0.64,1,0],[0.91,1,0],[0,0.79,0]];verticalLabelPosition=bottom;html=1;verticalAlign=top;aspect=fixed;align=center;pointerEvents=1;shape=mxgraph.cisco19.wifi_indicator;fillColor=#005073;strokeColor=none;" vertex="1" parent="1">
          <mxGeometry x="580" y="1435" width="20" height="20" as="geometry" />
        </mxCell>
        <mxCell id="hNaM7XkKlE0wfAMFbM8I-274" value="" style="rounded=1;whiteSpace=wrap;html=1;" vertex="1" parent="1">
          <mxGeometry x="790" y="1440" width="30" height="10" as="geometry" />
        </mxCell>
        <mxCell id="hNaM7XkKlE0wfAMFbM8I-275" value="" style="pointerEvents=1;shadow=0;dashed=0;html=1;strokeColor=none;fillColor=#434445;aspect=fixed;labelPosition=center;verticalLabelPosition=bottom;verticalAlign=top;align=center;outlineConnect=0;shape=mxgraph.vvd.wi_fi;" vertex="1" parent="1">
          <mxGeometry x="760" y="1435" width="20" height="20" as="geometry" />
        </mxCell>
        <mxCell id="hNaM7XkKlE0wfAMFbM8I-276" value="" style="rounded=0;whiteSpace=wrap;html=1;fillColor=#FFFFFF;" vertex="1" parent="1">
          <mxGeometry x="570" y="1460" width="260" height="90" as="geometry" />
        </mxCell>
        <mxCell id="hNaM7XkKlE0wfAMFbM8I-277" value="" style="triangle;whiteSpace=wrap;html=1;fillColor=#FFFFFF;rotation=-180;" vertex="1" parent="1">
          <mxGeometry x="580" y="1475" width="10" height="20" as="geometry" />
        </mxCell>
        <mxCell id="hNaM7XkKlE0wfAMFbM8I-278" value="&lt;font color=&quot;#333333&quot;&gt;&lt;span&gt;Fitness-app&lt;/span&gt;&lt;/font&gt;" style="text;html=1;strokeColor=none;fillColor=none;align=center;verticalAlign=middle;whiteSpace=wrap;rounded=0;fontColor=#FFFFFF;" vertex="1" parent="1">
          <mxGeometry x="665" y="1475" width="80" height="20" as="geometry" />
        </mxCell>
        <mxCell id="hNaM7XkKlE0wfAMFbM8I-279" value="" style="rounded=0;whiteSpace=wrap;html=1;" vertex="1" parent="1">
          <mxGeometry x="570" y="1770" width="260" height="30" as="geometry" />
        </mxCell>
        <mxCell id="hNaM7XkKlE0wfAMFbM8I-280" value="" style="ellipse;whiteSpace=wrap;html=1;aspect=fixed;" vertex="1" parent="1">
          <mxGeometry x="685" y="1770" width="30" height="30" as="geometry" />
        </mxCell>
        <mxCell id="hNaM7XkKlE0wfAMFbM8I-281" value="" style="rounded=0;whiteSpace=wrap;html=1;" vertex="1" parent="1">
          <mxGeometry x="570" y="1720" width="260" height="50" as="geometry" />
        </mxCell>
        <mxCell id="hNaM7XkKlE0wfAMFbM8I-282" value="" style="pointerEvents=1;shadow=0;dashed=0;html=1;strokeColor=none;fillColor=#505050;labelPosition=center;verticalLabelPosition=bottom;verticalAlign=top;outlineConnect=0;align=center;shape=mxgraph.office.concepts.home;" vertex="1" parent="1">
          <mxGeometry x="580" y="1726" width="39" height="38" as="geometry" />
        </mxCell>
        <mxCell id="hNaM7XkKlE0wfAMFbM8I-283" value="" style="shape=image;html=1;verticalAlign=top;verticalLabelPosition=bottom;labelBackgroundColor=#ffffff;imageAspect=0;aspect=fixed;image=https://cdn1.iconfinder.com/data/icons/common-version-3-0/1024/calendar-128.png" vertex="1" parent="1">
          <mxGeometry x="647" y="1726" width="38" height="38" as="geometry" />
        </mxCell>
        <mxCell id="hNaM7XkKlE0wfAMFbM8I-284" value="" style="pointerEvents=1;shadow=0;dashed=0;html=1;strokeColor=none;labelPosition=center;verticalLabelPosition=bottom;verticalAlign=top;align=center;fillColor=#505050;shape=mxgraph.mscae.intune.user_group" vertex="1" parent="1">
          <mxGeometry x="779" y="1729" width="40" height="34" as="geometry" />
        </mxCell>
        <mxCell id="hNaM7XkKlE0wfAMFbM8I-285" value="" style="shape=mxgraph.signs.food.restaurant_1;html=1;pointerEvents=1;fillColor=#000000;strokeColor=none;verticalLabelPosition=bottom;verticalAlign=top;align=center;" vertex="1" parent="1">
          <mxGeometry x="720" y="1730" width="30" height="33" as="geometry" />
        </mxCell>
        <mxCell id="hNaM7XkKlE0wfAMFbM8I-286" value="" style="shape=image;html=1;verticalAlign=top;verticalLabelPosition=bottom;labelBackgroundColor=#ffffff;imageAspect=0;aspect=fixed;image=https://cdn2.iconfinder.com/data/icons/freecns-cumulus/16/519584-081_Pen-128.png;fillColor=#FFFFFF;" vertex="1" parent="1">
          <mxGeometry x="797" y="1470" width="30" height="30" as="geometry" />
        </mxCell>
        <mxCell id="hNaM7XkKlE0wfAMFbM8I-288" value="" style="whiteSpace=wrap;html=1;aspect=fixed;fillColor=#FFFFFF;fontColor=#FFFFFF;" vertex="1" parent="1">
          <mxGeometry x="600" y="1600" width="36.5" height="36.5" as="geometry" />
        </mxCell>
        <mxCell id="hNaM7XkKlE0wfAMFbM8I-294" value="" style="endArrow=none;html=1;fontColor=#FFFFFF;exitX=1;exitY=0;exitDx=0;exitDy=0;entryX=0;entryY=1;entryDx=0;entryDy=0;" edge="1" parent="1" source="hNaM7XkKlE0wfAMFbM8I-288" target="hNaM7XkKlE0wfAMFbM8I-288">
          <mxGeometry width="50" height="50" relative="1" as="geometry">
            <mxPoint x="361.5" y="1749.5" as="sourcePoint" />
            <mxPoint x="411.5" y="1699.5" as="targetPoint" />
            <Array as="points" />
          </mxGeometry>
        </mxCell>
        <mxCell id="hNaM7XkKlE0wfAMFbM8I-295" value="" style="endArrow=none;html=1;fontColor=#FFFFFF;exitX=0;exitY=0;exitDx=0;exitDy=0;entryX=1;entryY=1;entryDx=0;entryDy=0;" edge="1" parent="1" source="hNaM7XkKlE0wfAMFbM8I-288" target="hNaM7XkKlE0wfAMFbM8I-288">
          <mxGeometry width="50" height="50" relative="1" as="geometry">
            <mxPoint x="666.5" y="1580" as="sourcePoint" />
            <mxPoint x="601.5" y="1645" as="targetPoint" />
          </mxGeometry>
        </mxCell>
        <mxCell id="hNaM7XkKlE0wfAMFbM8I-307" value="" style="rounded=0;whiteSpace=wrap;html=1;fillColor=#FFFFFF;" vertex="1" parent="1">
          <mxGeometry x="630" y="1520" width="150" height="70" as="geometry" />
        </mxCell>
        <mxCell id="hNaM7XkKlE0wfAMFbM8I-309" value="" style="shape=actor;whiteSpace=wrap;html=1;fontFamily=Helvetica;fontSize=12;fontColor=#000000;align=center;strokeColor=#000000;fillColor=#FFFFFF;" vertex="1" parent="1">
          <mxGeometry x="647" y="1500" width="40" height="40" as="geometry" />
        </mxCell>
        <mxCell id="hNaM7XkKlE0wfAMFbM8I-310" value="" style="whiteSpace=wrap;html=1;aspect=fixed;fillColor=#FFFFFF;fontColor=#FFFFFF;" vertex="1" parent="1">
          <mxGeometry x="601.5" y="1650" width="36.5" height="36.5" as="geometry" />
        </mxCell>
        <mxCell id="hNaM7XkKlE0wfAMFbM8I-311" value="" style="whiteSpace=wrap;html=1;aspect=fixed;fillColor=#FFFFFF;fontColor=#FFFFFF;" vertex="1" parent="1">
          <mxGeometry x="756.5" y="1600" width="36.5" height="36.5" as="geometry" />
        </mxCell>
        <mxCell id="hNaM7XkKlE0wfAMFbM8I-312" value="" style="whiteSpace=wrap;html=1;aspect=fixed;fillColor=#FFFFFF;fontColor=#FFFFFF;" vertex="1" parent="1">
          <mxGeometry x="683.5" y="1600" width="36.5" height="36.5" as="geometry" />
        </mxCell>
        <mxCell id="hNaM7XkKlE0wfAMFbM8I-313" value="" style="whiteSpace=wrap;html=1;aspect=fixed;fillColor=#FFFFFF;fontColor=#FFFFFF;" vertex="1" parent="1">
          <mxGeometry x="685" y="1650" width="36.5" height="36.5" as="geometry" />
        </mxCell>
        <mxCell id="hNaM7XkKlE0wfAMFbM8I-314" value="" style="whiteSpace=wrap;html=1;aspect=fixed;fillColor=#FFFFFF;fontColor=#FFFFFF;" vertex="1" parent="1">
          <mxGeometry x="756.5" y="1650" width="36.5" height="36.5" as="geometry" />
        </mxCell>
        <mxCell id="hNaM7XkKlE0wfAMFbM8I-315" value="&lt;font color=&quot;#333333&quot;&gt;&lt;span&gt;Logout&lt;/span&gt;&lt;/font&gt;" style="rounded=1;whiteSpace=wrap;html=1;fillColor=#FFFFFF;fontColor=#FFFFFF;arcSize=50;" vertex="1" parent="1">
          <mxGeometry x="668.25" y="1695" width="70" height="20" as="geometry" />
        </mxCell>
        <mxCell id="hNaM7XkKlE0wfAMFbM8I-316" value="" style="endArrow=none;html=1;entryX=0;entryY=0;entryDx=0;entryDy=0;exitX=1;exitY=1;exitDx=0;exitDy=0;" edge="1" parent="1" source="hNaM7XkKlE0wfAMFbM8I-312" target="hNaM7XkKlE0wfAMFbM8I-312">
          <mxGeometry width="50" height="50" relative="1" as="geometry">
            <mxPoint x="970" y="1690" as="sourcePoint" />
            <mxPoint x="1020" y="1640" as="targetPoint" />
          </mxGeometry>
        </mxCell>
        <mxCell id="hNaM7XkKlE0wfAMFbM8I-317" value="" style="endArrow=none;html=1;entryX=0;entryY=1;entryDx=0;entryDy=0;exitX=1;exitY=0;exitDx=0;exitDy=0;" edge="1" parent="1" source="hNaM7XkKlE0wfAMFbM8I-312" target="hNaM7XkKlE0wfAMFbM8I-312">
          <mxGeometry width="50" height="50" relative="1" as="geometry">
            <mxPoint x="730" y="1646.5" as="sourcePoint" />
            <mxPoint x="693.5" y="1610" as="targetPoint" />
          </mxGeometry>
        </mxCell>
        <mxCell id="hNaM7XkKlE0wfAMFbM8I-318" value="" style="endArrow=none;html=1;entryX=0;entryY=0;entryDx=0;entryDy=0;exitX=1;exitY=1;exitDx=0;exitDy=0;" edge="1" parent="1">
          <mxGeometry width="50" height="50" relative="1" as="geometry">
            <mxPoint x="793" y="1636.5" as="sourcePoint" />
            <mxPoint x="756.5" y="1600" as="targetPoint" />
          </mxGeometry>
        </mxCell>
        <mxCell id="hNaM7XkKlE0wfAMFbM8I-319" value="" style="endArrow=none;html=1;entryX=0;entryY=1;entryDx=0;entryDy=0;exitX=1;exitY=0;exitDx=0;exitDy=0;" edge="1" parent="1">
          <mxGeometry width="50" height="50" relative="1" as="geometry">
            <mxPoint x="793" y="1600" as="sourcePoint" />
            <mxPoint x="756.5" y="1636.5" as="targetPoint" />
          </mxGeometry>
        </mxCell>
        <mxCell id="hNaM7XkKlE0wfAMFbM8I-320" value="" style="endArrow=none;html=1;entryX=0;entryY=0;entryDx=0;entryDy=0;exitX=1;exitY=1;exitDx=0;exitDy=0;" edge="1" parent="1">
          <mxGeometry width="50" height="50" relative="1" as="geometry">
            <mxPoint x="793" y="1686.5" as="sourcePoint" />
            <mxPoint x="756.5" y="1650" as="targetPoint" />
          </mxGeometry>
        </mxCell>
        <mxCell id="hNaM7XkKlE0wfAMFbM8I-321" value="" style="endArrow=none;html=1;entryX=0;entryY=1;entryDx=0;entryDy=0;exitX=1;exitY=0;exitDx=0;exitDy=0;" edge="1" parent="1">
          <mxGeometry width="50" height="50" relative="1" as="geometry">
            <mxPoint x="793" y="1650" as="sourcePoint" />
            <mxPoint x="756.5" y="1686.5" as="targetPoint" />
          </mxGeometry>
        </mxCell>
        <mxCell id="hNaM7XkKlE0wfAMFbM8I-322" value="" style="endArrow=none;html=1;entryX=0;entryY=0;entryDx=0;entryDy=0;exitX=1;exitY=1;exitDx=0;exitDy=0;" edge="1" parent="1">
          <mxGeometry width="50" height="50" relative="1" as="geometry">
            <mxPoint x="721.5" y="1686.5" as="sourcePoint" />
            <mxPoint x="685" y="1650" as="targetPoint" />
          </mxGeometry>
        </mxCell>
        <mxCell id="hNaM7XkKlE0wfAMFbM8I-323" value="" style="endArrow=none;html=1;entryX=0;entryY=1;entryDx=0;entryDy=0;exitX=1;exitY=0;exitDx=0;exitDy=0;" edge="1" parent="1">
          <mxGeometry width="50" height="50" relative="1" as="geometry">
            <mxPoint x="721.5" y="1650" as="sourcePoint" />
            <mxPoint x="685" y="1686.5" as="targetPoint" />
          </mxGeometry>
        </mxCell>
        <mxCell id="hNaM7XkKlE0wfAMFbM8I-324" value="" style="endArrow=none;html=1;entryX=0;entryY=0;entryDx=0;entryDy=0;exitX=1;exitY=1;exitDx=0;exitDy=0;" edge="1" parent="1">
          <mxGeometry width="50" height="50" relative="1" as="geometry">
            <mxPoint x="638.25" y="1686.5" as="sourcePoint" />
            <mxPoint x="601.75" y="1650" as="targetPoint" />
          </mxGeometry>
        </mxCell>
        <mxCell id="hNaM7XkKlE0wfAMFbM8I-325" value="" style="endArrow=none;html=1;entryX=0;entryY=1;entryDx=0;entryDy=0;exitX=1;exitY=0;exitDx=0;exitDy=0;" edge="1" parent="1">
          <mxGeometry width="50" height="50" relative="1" as="geometry">
            <mxPoint x="638.25" y="1650" as="sourcePoint" />
            <mxPoint x="601.75" y="1686.5" as="targetPoint" />
          </mxGeometry>
        </mxCell>
        <mxCell id="hNaM7XkKlE0wfAMFbM8I-328" value="" style="rounded=0;whiteSpace=wrap;html=1;fillColor=#FFFFFF;" vertex="1" parent="1">
          <mxGeometry x="1620" y="660" width="460" height="590" as="geometry" />
        </mxCell>
        <mxCell id="hNaM7XkKlE0wfAMFbM8I-329" value="" style="rounded=0;whiteSpace=wrap;html=1;fillColor=#FFFFFF;" vertex="1" parent="1">
          <mxGeometry x="1640" y="710" width="420" height="490" as="geometry" />
        </mxCell>
        <mxCell id="hNaM7XkKlE0wfAMFbM8I-331" value="" style="ellipse;whiteSpace=wrap;html=1;aspect=fixed;fillColor=#FFFFFF;" vertex="1" parent="1">
          <mxGeometry x="1835" y="670" width="10" height="10" as="geometry" />
        </mxCell>
        <mxCell id="hNaM7XkKlE0wfAMFbM8I-333" value="" style="rounded=1;whiteSpace=wrap;html=1;fillColor=#FFFFFF;arcSize=50;" vertex="1" parent="1">
          <mxGeometry x="1780" y="695" width="120" height="5" as="geometry" />
        </mxCell>
        <mxCell id="hNaM7XkKlE0wfAMFbM8I-334" value="" style="ellipse;whiteSpace=wrap;html=1;aspect=fixed;fillColor=#FFFFFF;" vertex="1" parent="1">
          <mxGeometry x="1835" y="1205" width="45" height="45" as="geometry" />
        </mxCell>
        <mxCell id="hNaM7XkKlE0wfAMFbM8I-335" value="" style="ellipse;whiteSpace=wrap;html=1;aspect=fixed;fillColor=#FFFFFF;" vertex="1" parent="1">
          <mxGeometry x="1624" y="880" width="10" height="10" as="geometry" />
        </mxCell>
        <mxCell id="hNaM7XkKlE0wfAMFbM8I-336" value="" style="ellipse;whiteSpace=wrap;html=1;aspect=fixed;fillColor=#FFFFFF;" vertex="1" parent="1">
          <mxGeometry x="1624" y="895" width="10" height="10" as="geometry" />
        </mxCell>
        <mxCell id="hNaM7XkKlE0wfAMFbM8I-337" value="" style="ellipse;whiteSpace=wrap;html=1;aspect=fixed;fillColor=#FFFFFF;" vertex="1" parent="1">
          <mxGeometry x="1624" y="910" width="10" height="10" as="geometry" />
        </mxCell>
        <mxCell id="hNaM7XkKlE0wfAMFbM8I-338" value="" style="ellipse;whiteSpace=wrap;html=1;aspect=fixed;fillColor=#FFFFFF;" vertex="1" parent="1">
          <mxGeometry x="1624" y="925" width="10" height="10" as="geometry" />
        </mxCell>
        <mxCell id="hNaM7XkKlE0wfAMFbM8I-339" value="" style="ellipse;whiteSpace=wrap;html=1;aspect=fixed;fillColor=#FFFFFF;" vertex="1" parent="1">
          <mxGeometry x="1624" y="940" width="10" height="10" as="geometry" />
        </mxCell>
        <mxCell id="hNaM7XkKlE0wfAMFbM8I-340" value="" style="ellipse;whiteSpace=wrap;html=1;aspect=fixed;fillColor=#FFFFFF;" vertex="1" parent="1">
          <mxGeometry x="1624" y="955" width="10" height="10" as="geometry" />
        </mxCell>
        <mxCell id="hNaM7XkKlE0wfAMFbM8I-344" value="" style="ellipse;whiteSpace=wrap;html=1;aspect=fixed;fillColor=#FFFFFF;" vertex="1" parent="1">
          <mxGeometry x="2065" y="880" width="10" height="10" as="geometry" />
        </mxCell>
        <mxCell id="hNaM7XkKlE0wfAMFbM8I-345" value="" style="ellipse;whiteSpace=wrap;html=1;aspect=fixed;fillColor=#FFFFFF;" vertex="1" parent="1">
          <mxGeometry x="2065" y="895" width="10" height="10" as="geometry" />
        </mxCell>
        <mxCell id="hNaM7XkKlE0wfAMFbM8I-346" value="" style="ellipse;whiteSpace=wrap;html=1;aspect=fixed;fillColor=#FFFFFF;" vertex="1" parent="1">
          <mxGeometry x="2065" y="910" width="10" height="10" as="geometry" />
        </mxCell>
        <mxCell id="hNaM7XkKlE0wfAMFbM8I-347" value="" style="ellipse;whiteSpace=wrap;html=1;aspect=fixed;fillColor=#FFFFFF;" vertex="1" parent="1">
          <mxGeometry x="2065" y="925" width="10" height="10" as="geometry" />
        </mxCell>
        <mxCell id="hNaM7XkKlE0wfAMFbM8I-348" value="" style="ellipse;whiteSpace=wrap;html=1;aspect=fixed;fillColor=#FFFFFF;" vertex="1" parent="1">
          <mxGeometry x="2065" y="940" width="10" height="10" as="geometry" />
        </mxCell>
        <mxCell id="hNaM7XkKlE0wfAMFbM8I-349" value="" style="ellipse;whiteSpace=wrap;html=1;aspect=fixed;fillColor=#FFFFFF;" vertex="1" parent="1">
          <mxGeometry x="2065" y="955" width="10" height="10" as="geometry" />
        </mxCell>
        <mxCell id="hNaM7XkKlE0wfAMFbM8I-350" value="Video list" style="rounded=0;whiteSpace=wrap;html=1;fillColor=#FFFFFF;" vertex="1" parent="1">
          <mxGeometry x="1640" y="710" width="420" height="60" as="geometry" />
        </mxCell>
        <mxCell id="hNaM7XkKlE0wfAMFbM8I-352" value="" style="rounded=0;whiteSpace=wrap;html=1;fillColor=#FFFFFF;" vertex="1" parent="1">
          <mxGeometry x="1650" y="783" width="400" height="127" as="geometry" />
        </mxCell>
        <mxCell id="hNaM7XkKlE0wfAMFbM8I-353" value="" style="rounded=0;whiteSpace=wrap;html=1;fillColor=#FFFFFF;" vertex="1" parent="1">
          <mxGeometry x="1740" y="795" width="160" height="105" as="geometry" />
        </mxCell>
        <mxCell id="hNaM7XkKlE0wfAMFbM8I-354" value="" style="rounded=0;whiteSpace=wrap;html=1;fillColor=#FFFFFF;" vertex="1" parent="1">
          <mxGeometry x="1915" y="795" width="125" height="105" as="geometry" />
        </mxCell>
        <mxCell id="hNaM7XkKlE0wfAMFbM8I-355" value="" style="rounded=0;whiteSpace=wrap;html=1;fillColor=#FFFFFF;" vertex="1" parent="1">
          <mxGeometry x="1650" y="955" width="400" height="95" as="geometry" />
        </mxCell>
        <mxCell id="hNaM7XkKlE0wfAMFbM8I-356" value="" style="rounded=0;whiteSpace=wrap;html=1;fillColor=#FFFFFF;" vertex="1" parent="1">
          <mxGeometry x="1650" y="1085" width="400" height="95" as="geometry" />
        </mxCell>
        <mxCell id="hNaM7XkKlE0wfAMFbM8I-357" value="Text" style="text;html=1;strokeColor=none;fillColor=none;align=center;verticalAlign=middle;whiteSpace=wrap;rounded=0;" vertex="1" parent="1">
          <mxGeometry x="1660" y="926" width="40" height="20" as="geometry" />
        </mxCell>
        <mxCell id="hNaM7XkKlE0wfAMFbM8I-358" value="Text" style="text;html=1;strokeColor=none;fillColor=none;align=center;verticalAlign=middle;whiteSpace=wrap;rounded=0;" vertex="1" parent="1">
          <mxGeometry x="1660" y="1060" width="40" height="20" as="geometry" />
        </mxCell>
        <mxCell id="hNaM7XkKlE0wfAMFbM8I-359" value="" style="whiteSpace=wrap;html=1;aspect=fixed;fillColor=#FFFFFF;" vertex="1" parent="1">
          <mxGeometry x="1680" y="963" width="80" height="80" as="geometry" />
        </mxCell>
        <mxCell id="hNaM7XkKlE0wfAMFbM8I-360" value="" style="whiteSpace=wrap;html=1;aspect=fixed;fillColor=#FFFFFF;" vertex="1" parent="1">
          <mxGeometry x="1810" y="963" width="80" height="80" as="geometry" />
        </mxCell>
        <mxCell id="hNaM7XkKlE0wfAMFbM8I-361" value="" style="whiteSpace=wrap;html=1;aspect=fixed;fillColor=#FFFFFF;" vertex="1" parent="1">
          <mxGeometry x="1930" y="963" width="80" height="80" as="geometry" />
        </mxCell>
        <mxCell id="hNaM7XkKlE0wfAMFbM8I-362" value="" style="whiteSpace=wrap;html=1;aspect=fixed;fillColor=#FFFFFF;" vertex="1" parent="1">
          <mxGeometry x="1680" y="1095" width="80" height="80" as="geometry" />
        </mxCell>
        <mxCell id="hNaM7XkKlE0wfAMFbM8I-363" value="" style="whiteSpace=wrap;html=1;aspect=fixed;fillColor=#FFFFFF;" vertex="1" parent="1">
          <mxGeometry x="1810" y="1095" width="80" height="80" as="geometry" />
        </mxCell>
        <mxCell id="hNaM7XkKlE0wfAMFbM8I-364" value="" style="whiteSpace=wrap;html=1;aspect=fixed;fillColor=#FFFFFF;" vertex="1" parent="1">
          <mxGeometry x="1930" y="1092.5" width="80" height="80" as="geometry" />
        </mxCell>
        <mxCell id="hNaM7XkKlE0wfAMFbM8I-365" value="" style="endArrow=none;html=1;exitX=0;exitY=0;exitDx=0;exitDy=0;entryX=1;entryY=1;entryDx=0;entryDy=0;" edge="1" parent="1" source="hNaM7XkKlE0wfAMFbM8I-353" target="hNaM7XkKlE0wfAMFbM8I-353">
          <mxGeometry width="50" height="50" relative="1" as="geometry">
            <mxPoint x="1750" y="860" as="sourcePoint" />
            <mxPoint x="1800" y="810" as="targetPoint" />
          </mxGeometry>
        </mxCell>
        <mxCell id="hNaM7XkKlE0wfAMFbM8I-366" value="" style="endArrow=none;html=1;exitX=0;exitY=1;exitDx=0;exitDy=0;entryX=1;entryY=0;entryDx=0;entryDy=0;" edge="1" parent="1" source="hNaM7XkKlE0wfAMFbM8I-353" target="hNaM7XkKlE0wfAMFbM8I-353">
          <mxGeometry width="50" height="50" relative="1" as="geometry">
            <mxPoint x="1750" y="805" as="sourcePoint" />
            <mxPoint x="1910" y="910" as="targetPoint" />
          </mxGeometry>
        </mxCell>
        <mxCell id="hNaM7XkKlE0wfAMFbM8I-367" value="" style="endArrow=none;html=1;exitX=0;exitY=0;exitDx=0;exitDy=0;entryX=1;entryY=1;entryDx=0;entryDy=0;" edge="1" parent="1" source="hNaM7XkKlE0wfAMFbM8I-354" target="hNaM7XkKlE0wfAMFbM8I-354">
          <mxGeometry width="50" height="50" relative="1" as="geometry">
            <mxPoint x="1760" y="815" as="sourcePoint" />
            <mxPoint x="1920" y="920" as="targetPoint" />
          </mxGeometry>
        </mxCell>
        <mxCell id="hNaM7XkKlE0wfAMFbM8I-368" value="" style="endArrow=none;html=1;exitX=0;exitY=1;exitDx=0;exitDy=0;entryX=1;entryY=0;entryDx=0;entryDy=0;" edge="1" parent="1" source="hNaM7XkKlE0wfAMFbM8I-354" target="hNaM7XkKlE0wfAMFbM8I-354">
          <mxGeometry width="50" height="50" relative="1" as="geometry">
            <mxPoint x="1770" y="825" as="sourcePoint" />
            <mxPoint x="1930" y="930" as="targetPoint" />
          </mxGeometry>
        </mxCell>
        <mxCell id="hNaM7XkKlE0wfAMFbM8I-369" value="" style="endArrow=none;html=1;exitX=0;exitY=1;exitDx=0;exitDy=0;entryX=1;entryY=0;entryDx=0;entryDy=0;" edge="1" parent="1" source="hNaM7XkKlE0wfAMFbM8I-359" target="hNaM7XkKlE0wfAMFbM8I-359">
          <mxGeometry width="50" height="50" relative="1" as="geometry">
            <mxPoint x="1780" y="835" as="sourcePoint" />
            <mxPoint x="1940" y="940" as="targetPoint" />
          </mxGeometry>
        </mxCell>
        <mxCell id="hNaM7XkKlE0wfAMFbM8I-370" value="" style="endArrow=none;html=1;exitX=0;exitY=0;exitDx=0;exitDy=0;entryX=1;entryY=1;entryDx=0;entryDy=0;" edge="1" parent="1" source="hNaM7XkKlE0wfAMFbM8I-359" target="hNaM7XkKlE0wfAMFbM8I-359">
          <mxGeometry width="50" height="50" relative="1" as="geometry">
            <mxPoint x="1790" y="845" as="sourcePoint" />
            <mxPoint x="1950" y="950" as="targetPoint" />
          </mxGeometry>
        </mxCell>
        <mxCell id="hNaM7XkKlE0wfAMFbM8I-371" value="" style="endArrow=none;html=1;exitX=0;exitY=1;exitDx=0;exitDy=0;entryX=1;entryY=0;entryDx=0;entryDy=0;" edge="1" parent="1">
          <mxGeometry width="50" height="50" relative="1" as="geometry">
            <mxPoint x="1810" y="1043" as="sourcePoint" />
            <mxPoint x="1890" y="963" as="targetPoint" />
          </mxGeometry>
        </mxCell>
        <mxCell id="hNaM7XkKlE0wfAMFbM8I-372" value="" style="endArrow=none;html=1;exitX=0;exitY=0;exitDx=0;exitDy=0;entryX=1;entryY=1;entryDx=0;entryDy=0;" edge="1" parent="1">
          <mxGeometry width="50" height="50" relative="1" as="geometry">
            <mxPoint x="1810" y="963" as="sourcePoint" />
            <mxPoint x="1890" y="1043" as="targetPoint" />
          </mxGeometry>
        </mxCell>
        <mxCell id="hNaM7XkKlE0wfAMFbM8I-373" value="" style="endArrow=none;html=1;exitX=0;exitY=1;exitDx=0;exitDy=0;entryX=1;entryY=0;entryDx=0;entryDy=0;" edge="1" parent="1">
          <mxGeometry width="50" height="50" relative="1" as="geometry">
            <mxPoint x="1930" y="1043" as="sourcePoint" />
            <mxPoint x="2010" y="963" as="targetPoint" />
          </mxGeometry>
        </mxCell>
        <mxCell id="hNaM7XkKlE0wfAMFbM8I-374" value="" style="endArrow=none;html=1;exitX=0;exitY=0;exitDx=0;exitDy=0;entryX=1;entryY=1;entryDx=0;entryDy=0;" edge="1" parent="1">
          <mxGeometry width="50" height="50" relative="1" as="geometry">
            <mxPoint x="1930" y="963" as="sourcePoint" />
            <mxPoint x="2010" y="1043" as="targetPoint" />
          </mxGeometry>
        </mxCell>
        <mxCell id="hNaM7XkKlE0wfAMFbM8I-375" value="" style="endArrow=none;html=1;exitX=0;exitY=1;exitDx=0;exitDy=0;entryX=1;entryY=0;entryDx=0;entryDy=0;" edge="1" parent="1">
          <mxGeometry width="50" height="50" relative="1" as="geometry">
            <mxPoint x="1680" y="1175" as="sourcePoint" />
            <mxPoint x="1760" y="1095" as="targetPoint" />
          </mxGeometry>
        </mxCell>
        <mxCell id="hNaM7XkKlE0wfAMFbM8I-376" value="" style="endArrow=none;html=1;exitX=0;exitY=0;exitDx=0;exitDy=0;entryX=1;entryY=1;entryDx=0;entryDy=0;" edge="1" parent="1">
          <mxGeometry width="50" height="50" relative="1" as="geometry">
            <mxPoint x="1680" y="1095" as="sourcePoint" />
            <mxPoint x="1760" y="1175" as="targetPoint" />
          </mxGeometry>
        </mxCell>
        <mxCell id="hNaM7XkKlE0wfAMFbM8I-377" value="" style="endArrow=none;html=1;exitX=0;exitY=1;exitDx=0;exitDy=0;entryX=1;entryY=0;entryDx=0;entryDy=0;" edge="1" parent="1">
          <mxGeometry width="50" height="50" relative="1" as="geometry">
            <mxPoint x="1810" y="1175" as="sourcePoint" />
            <mxPoint x="1890" y="1095" as="targetPoint" />
          </mxGeometry>
        </mxCell>
        <mxCell id="hNaM7XkKlE0wfAMFbM8I-378" value="" style="endArrow=none;html=1;exitX=0;exitY=0;exitDx=0;exitDy=0;entryX=1;entryY=1;entryDx=0;entryDy=0;" edge="1" parent="1">
          <mxGeometry width="50" height="50" relative="1" as="geometry">
            <mxPoint x="1810" y="1095" as="sourcePoint" />
            <mxPoint x="1890" y="1175" as="targetPoint" />
          </mxGeometry>
        </mxCell>
        <mxCell id="hNaM7XkKlE0wfAMFbM8I-379" value="" style="endArrow=none;html=1;exitX=0;exitY=1;exitDx=0;exitDy=0;entryX=1;entryY=0;entryDx=0;entryDy=0;" edge="1" parent="1">
          <mxGeometry width="50" height="50" relative="1" as="geometry">
            <mxPoint x="1930" y="1172" as="sourcePoint" />
            <mxPoint x="2010" y="1092" as="targetPoint" />
          </mxGeometry>
        </mxCell>
        <mxCell id="hNaM7XkKlE0wfAMFbM8I-380" value="" style="endArrow=none;html=1;exitX=0;exitY=0;exitDx=0;exitDy=0;entryX=1;entryY=1;entryDx=0;entryDy=0;" edge="1" parent="1">
          <mxGeometry width="50" height="50" relative="1" as="geometry">
            <mxPoint x="1930" y="1092" as="sourcePoint" />
            <mxPoint x="2010" y="1172" as="targetPoint" />
          </mxGeometry>
        </mxCell>
        <mxCell id="hNaM7XkKlE0wfAMFbM8I-381" value="" style="rounded=0;whiteSpace=wrap;html=1;fillColor=#FFFFFF;" vertex="1" parent="1">
          <mxGeometry x="1624" y="1290" width="460" height="590" as="geometry" />
        </mxCell>
        <mxCell id="hNaM7XkKlE0wfAMFbM8I-382" value="" style="rounded=0;whiteSpace=wrap;html=1;fillColor=#FFFFFF;" vertex="1" parent="1">
          <mxGeometry x="1644" y="1340" width="420" height="490" as="geometry" />
        </mxCell>
        <mxCell id="hNaM7XkKlE0wfAMFbM8I-383" value="" style="ellipse;whiteSpace=wrap;html=1;aspect=fixed;fillColor=#FFFFFF;" vertex="1" parent="1">
          <mxGeometry x="1839" y="1300" width="10" height="10" as="geometry" />
        </mxCell>
        <mxCell id="hNaM7XkKlE0wfAMFbM8I-384" value="" style="rounded=1;whiteSpace=wrap;html=1;fillColor=#FFFFFF;arcSize=50;" vertex="1" parent="1">
          <mxGeometry x="1784" y="1325" width="120" height="5" as="geometry" />
        </mxCell>
        <mxCell id="hNaM7XkKlE0wfAMFbM8I-385" value="" style="ellipse;whiteSpace=wrap;html=1;aspect=fixed;fillColor=#FFFFFF;" vertex="1" parent="1">
          <mxGeometry x="1839" y="1835" width="45" height="45" as="geometry" />
        </mxCell>
        <mxCell id="hNaM7XkKlE0wfAMFbM8I-386" value="" style="ellipse;whiteSpace=wrap;html=1;aspect=fixed;fillColor=#FFFFFF;" vertex="1" parent="1">
          <mxGeometry x="1628" y="1510" width="10" height="10" as="geometry" />
        </mxCell>
        <mxCell id="hNaM7XkKlE0wfAMFbM8I-387" value="" style="ellipse;whiteSpace=wrap;html=1;aspect=fixed;fillColor=#FFFFFF;" vertex="1" parent="1">
          <mxGeometry x="1628" y="1525" width="10" height="10" as="geometry" />
        </mxCell>
        <mxCell id="hNaM7XkKlE0wfAMFbM8I-388" value="" style="ellipse;whiteSpace=wrap;html=1;aspect=fixed;fillColor=#FFFFFF;" vertex="1" parent="1">
          <mxGeometry x="1628" y="1540" width="10" height="10" as="geometry" />
        </mxCell>
        <mxCell id="hNaM7XkKlE0wfAMFbM8I-389" value="" style="ellipse;whiteSpace=wrap;html=1;aspect=fixed;fillColor=#FFFFFF;" vertex="1" parent="1">
          <mxGeometry x="1628" y="1555" width="10" height="10" as="geometry" />
        </mxCell>
        <mxCell id="hNaM7XkKlE0wfAMFbM8I-390" value="" style="ellipse;whiteSpace=wrap;html=1;aspect=fixed;fillColor=#FFFFFF;" vertex="1" parent="1">
          <mxGeometry x="1628" y="1570" width="10" height="10" as="geometry" />
        </mxCell>
        <mxCell id="hNaM7XkKlE0wfAMFbM8I-391" value="" style="ellipse;whiteSpace=wrap;html=1;aspect=fixed;fillColor=#FFFFFF;" vertex="1" parent="1">
          <mxGeometry x="1628" y="1585" width="10" height="10" as="geometry" />
        </mxCell>
        <mxCell id="hNaM7XkKlE0wfAMFbM8I-392" value="" style="ellipse;whiteSpace=wrap;html=1;aspect=fixed;fillColor=#FFFFFF;" vertex="1" parent="1">
          <mxGeometry x="2069" y="1510" width="10" height="10" as="geometry" />
        </mxCell>
        <mxCell id="hNaM7XkKlE0wfAMFbM8I-393" value="" style="ellipse;whiteSpace=wrap;html=1;aspect=fixed;fillColor=#FFFFFF;" vertex="1" parent="1">
          <mxGeometry x="2069" y="1525" width="10" height="10" as="geometry" />
        </mxCell>
        <mxCell id="hNaM7XkKlE0wfAMFbM8I-394" value="" style="ellipse;whiteSpace=wrap;html=1;aspect=fixed;fillColor=#FFFFFF;" vertex="1" parent="1">
          <mxGeometry x="2069" y="1540" width="10" height="10" as="geometry" />
        </mxCell>
        <mxCell id="hNaM7XkKlE0wfAMFbM8I-395" value="" style="ellipse;whiteSpace=wrap;html=1;aspect=fixed;fillColor=#FFFFFF;" vertex="1" parent="1">
          <mxGeometry x="2069" y="1555" width="10" height="10" as="geometry" />
        </mxCell>
        <mxCell id="hNaM7XkKlE0wfAMFbM8I-396" value="" style="ellipse;whiteSpace=wrap;html=1;aspect=fixed;fillColor=#FFFFFF;" vertex="1" parent="1">
          <mxGeometry x="2069" y="1570" width="10" height="10" as="geometry" />
        </mxCell>
        <mxCell id="hNaM7XkKlE0wfAMFbM8I-397" value="" style="ellipse;whiteSpace=wrap;html=1;aspect=fixed;fillColor=#FFFFFF;" vertex="1" parent="1">
          <mxGeometry x="2069" y="1585" width="10" height="10" as="geometry" />
        </mxCell>
        <mxCell id="hNaM7XkKlE0wfAMFbM8I-398" value="Exersice" style="rounded=0;whiteSpace=wrap;html=1;fillColor=#FFFFFF;" vertex="1" parent="1">
          <mxGeometry x="1644" y="1340" width="420" height="60" as="geometry" />
        </mxCell>
        <mxCell id="hNaM7XkKlE0wfAMFbM8I-399" value="" style="rounded=0;whiteSpace=wrap;html=1;fillColor=#FFFFFF;" vertex="1" parent="1">
          <mxGeometry x="1654" y="1413" width="400" height="197" as="geometry" />
        </mxCell>
        <mxCell id="hNaM7XkKlE0wfAMFbM8I-428" value="" style="triangle;whiteSpace=wrap;html=1;fillColor=#FFFFFF;rotation=-180;" vertex="1" parent="1">
          <mxGeometry x="1670" y="1360" width="10" height="20" as="geometry" />
        </mxCell>
        <mxCell id="hNaM7XkKlE0wfAMFbM8I-429" value="" style="pointerEvents=1;shadow=0;dashed=0;html=1;strokeColor=none;fillColor=#505050;labelPosition=center;verticalLabelPosition=bottom;verticalAlign=top;outlineConnect=0;align=center;shape=mxgraph.office.concepts.video_play;" vertex="1" parent="1">
          <mxGeometry x="1829" y="1485" width="50" height="40" as="geometry" />
        </mxCell>
        <mxCell id="hNaM7XkKlE0wfAMFbM8I-430" value="" style="rounded=0;whiteSpace=wrap;html=1;fillColor=#FFFFFF;" vertex="1" parent="1">
          <mxGeometry x="1655" y="1620" width="395" height="50" as="geometry" />
        </mxCell>
        <mxCell id="hNaM7XkKlE0wfAMFbM8I-431" value="" style="ellipse;whiteSpace=wrap;html=1;aspect=fixed;fillColor=#FFFFFF;" vertex="1" parent="1">
          <mxGeometry x="1829" y="1676.5" width="57" height="57" as="geometry" />
        </mxCell>
        <mxCell id="hNaM7XkKlE0wfAMFbM8I-432" value="" style="triangle;whiteSpace=wrap;html=1;fillColor=#FFFFFF;" vertex="1" parent="1">
          <mxGeometry x="1854" y="1745" width="15" height="25" as="geometry" />
        </mxCell>
        <mxCell id="hNaM7XkKlE0wfAMFbM8I-433" value="" style="shape=image;html=1;verticalAlign=top;verticalLabelPosition=bottom;labelBackgroundColor=#ffffff;imageAspect=0;aspect=fixed;image=https://cdn3.iconfinder.com/data/icons/arrow-outline-8/32/right_4_1-128.png;fillColor=#FFFFFF;" vertex="1" parent="1">
          <mxGeometry x="1900" y="1745" width="23" height="23" as="geometry" />
        </mxCell>
        <mxCell id="hNaM7XkKlE0wfAMFbM8I-434" value="" style="shape=image;html=1;verticalAlign=top;verticalLabelPosition=bottom;labelBackgroundColor=#ffffff;imageAspect=0;aspect=fixed;image=https://cdn3.iconfinder.com/data/icons/arrow-outline-8/32/left_4_1-128.png;fillColor=#FFFFFF;" vertex="1" parent="1">
          <mxGeometry x="1790" y="1745" width="25" height="25" as="geometry" />
        </mxCell>
        <mxCell id="hNaM7XkKlE0wfAMFbM8I-435" value="Text" style="text;html=1;strokeColor=none;fillColor=none;align=center;verticalAlign=middle;whiteSpace=wrap;rounded=0;" vertex="1" parent="1">
          <mxGeometry x="1670" y="1790" width="40" height="20" as="geometry" />
        </mxCell>
        <mxCell id="hNaM7XkKlE0wfAMFbM8I-436" value="Text" style="text;html=1;strokeColor=none;fillColor=none;align=center;verticalAlign=middle;whiteSpace=wrap;rounded=0;" vertex="1" parent="1">
          <mxGeometry x="1950" y="1790" width="40" height="20" as="geometry" />
        </mxCell>
        <mxCell id="hNaM7XkKlE0wfAMFbM8I-437" value="" style="rounded=0;whiteSpace=wrap;html=1;fillColor=#FFFFFF;" vertex="1" parent="1">
          <mxGeometry x="2110" y="660" width="460" height="590" as="geometry" />
        </mxCell>
        <mxCell id="hNaM7XkKlE0wfAMFbM8I-438" value="" style="rounded=0;whiteSpace=wrap;html=1;fillColor=#FFFFFF;" vertex="1" parent="1">
          <mxGeometry x="2130" y="710" width="420" height="490" as="geometry" />
        </mxCell>
        <mxCell id="hNaM7XkKlE0wfAMFbM8I-439" value="" style="ellipse;whiteSpace=wrap;html=1;aspect=fixed;fillColor=#FFFFFF;" vertex="1" parent="1">
          <mxGeometry x="2325" y="670" width="10" height="10" as="geometry" />
        </mxCell>
        <mxCell id="hNaM7XkKlE0wfAMFbM8I-440" value="" style="rounded=1;whiteSpace=wrap;html=1;fillColor=#FFFFFF;arcSize=50;" vertex="1" parent="1">
          <mxGeometry x="2270" y="695" width="120" height="5" as="geometry" />
        </mxCell>
        <mxCell id="hNaM7XkKlE0wfAMFbM8I-441" value="" style="ellipse;whiteSpace=wrap;html=1;aspect=fixed;fillColor=#FFFFFF;" vertex="1" parent="1">
          <mxGeometry x="2325" y="1205" width="45" height="45" as="geometry" />
        </mxCell>
        <mxCell id="hNaM7XkKlE0wfAMFbM8I-442" value="" style="ellipse;whiteSpace=wrap;html=1;aspect=fixed;fillColor=#FFFFFF;" vertex="1" parent="1">
          <mxGeometry x="2114" y="880" width="10" height="10" as="geometry" />
        </mxCell>
        <mxCell id="hNaM7XkKlE0wfAMFbM8I-443" value="" style="ellipse;whiteSpace=wrap;html=1;aspect=fixed;fillColor=#FFFFFF;" vertex="1" parent="1">
          <mxGeometry x="2114" y="895" width="10" height="10" as="geometry" />
        </mxCell>
        <mxCell id="hNaM7XkKlE0wfAMFbM8I-444" value="" style="ellipse;whiteSpace=wrap;html=1;aspect=fixed;fillColor=#FFFFFF;" vertex="1" parent="1">
          <mxGeometry x="2114" y="910" width="10" height="10" as="geometry" />
        </mxCell>
        <mxCell id="hNaM7XkKlE0wfAMFbM8I-445" value="" style="ellipse;whiteSpace=wrap;html=1;aspect=fixed;fillColor=#FFFFFF;" vertex="1" parent="1">
          <mxGeometry x="2114" y="925" width="10" height="10" as="geometry" />
        </mxCell>
        <mxCell id="hNaM7XkKlE0wfAMFbM8I-446" value="" style="ellipse;whiteSpace=wrap;html=1;aspect=fixed;fillColor=#FFFFFF;" vertex="1" parent="1">
          <mxGeometry x="2114" y="940" width="10" height="10" as="geometry" />
        </mxCell>
        <mxCell id="hNaM7XkKlE0wfAMFbM8I-447" value="" style="ellipse;whiteSpace=wrap;html=1;aspect=fixed;fillColor=#FFFFFF;" vertex="1" parent="1">
          <mxGeometry x="2114" y="955" width="10" height="10" as="geometry" />
        </mxCell>
        <mxCell id="hNaM7XkKlE0wfAMFbM8I-448" value="" style="ellipse;whiteSpace=wrap;html=1;aspect=fixed;fillColor=#FFFFFF;" vertex="1" parent="1">
          <mxGeometry x="2555" y="880" width="10" height="10" as="geometry" />
        </mxCell>
        <mxCell id="hNaM7XkKlE0wfAMFbM8I-449" value="" style="ellipse;whiteSpace=wrap;html=1;aspect=fixed;fillColor=#FFFFFF;" vertex="1" parent="1">
          <mxGeometry x="2555" y="895" width="10" height="10" as="geometry" />
        </mxCell>
        <mxCell id="hNaM7XkKlE0wfAMFbM8I-450" value="" style="ellipse;whiteSpace=wrap;html=1;aspect=fixed;fillColor=#FFFFFF;" vertex="1" parent="1">
          <mxGeometry x="2555" y="910" width="10" height="10" as="geometry" />
        </mxCell>
        <mxCell id="hNaM7XkKlE0wfAMFbM8I-451" value="" style="ellipse;whiteSpace=wrap;html=1;aspect=fixed;fillColor=#FFFFFF;" vertex="1" parent="1">
          <mxGeometry x="2555" y="925" width="10" height="10" as="geometry" />
        </mxCell>
        <mxCell id="hNaM7XkKlE0wfAMFbM8I-452" value="" style="ellipse;whiteSpace=wrap;html=1;aspect=fixed;fillColor=#FFFFFF;" vertex="1" parent="1">
          <mxGeometry x="2555" y="940" width="10" height="10" as="geometry" />
        </mxCell>
        <mxCell id="hNaM7XkKlE0wfAMFbM8I-453" value="" style="ellipse;whiteSpace=wrap;html=1;aspect=fixed;fillColor=#FFFFFF;" vertex="1" parent="1">
          <mxGeometry x="2555" y="955" width="10" height="10" as="geometry" />
        </mxCell>
        <mxCell id="hNaM7XkKlE0wfAMFbM8I-486" value="" style="rounded=1;whiteSpace=wrap;html=1;fillColor=#FFFFFF;arcSize=28;" vertex="1" parent="1">
          <mxGeometry x="2130" y="1065" width="420" height="135" as="geometry" />
        </mxCell>
        <mxCell id="hNaM7XkKlE0wfAMFbM8I-488" value="" style="shape=image;html=1;verticalAlign=top;verticalLabelPosition=bottom;labelBackgroundColor=#ffffff;imageAspect=0;aspect=fixed;image=https://cdn2.iconfinder.com/data/icons/navigation-set-arrows-part-two/32/Arrow_Back-128.png;fillColor=#FFFFFF;" vertex="1" parent="1">
          <mxGeometry x="2150" y="1077" width="18" height="18" as="geometry" />
        </mxCell>
        <mxCell id="hNaM7XkKlE0wfAMFbM8I-489" value="&lt;b&gt;Connect &amp;nbsp;Device&lt;/b&gt;" style="text;html=1;strokeColor=none;fillColor=none;align=center;verticalAlign=middle;whiteSpace=wrap;rounded=0;" vertex="1" parent="1">
          <mxGeometry x="2180" y="1075" width="110" height="20" as="geometry" />
        </mxCell>
        <mxCell id="hNaM7XkKlE0wfAMFbM8I-490" value="" style="shape=image;html=1;verticalAlign=top;verticalLabelPosition=bottom;labelBackgroundColor=#ffffff;imageAspect=0;aspect=fixed;image=https://cdn1.iconfinder.com/data/icons/essentials-pack/96/bluetooth_connection_wireless_device_signal-128.png;fillColor=#FFFFFF;" vertex="1" parent="1">
          <mxGeometry x="2150" y="1112" width="18" height="18" as="geometry" />
        </mxCell>
        <mxCell id="hNaM7XkKlE0wfAMFbM8I-491" value="" style="shape=image;html=1;verticalAlign=top;verticalLabelPosition=bottom;labelBackgroundColor=#ffffff;imageAspect=0;aspect=fixed;image=https://cdn1.iconfinder.com/data/icons/essentials-pack/96/bluetooth_connection_wireless_device_signal-128.png;fillColor=#FFFFFF;" vertex="1" parent="1">
          <mxGeometry x="2150" y="1141" width="18" height="18" as="geometry" />
        </mxCell>
        <mxCell id="hNaM7XkKlE0wfAMFbM8I-492" value="" style="shape=image;html=1;verticalAlign=top;verticalLabelPosition=bottom;labelBackgroundColor=#ffffff;imageAspect=0;aspect=fixed;image=https://cdn1.iconfinder.com/data/icons/essentials-pack/96/bluetooth_connection_wireless_device_signal-128.png;fillColor=#FFFFFF;" vertex="1" parent="1">
          <mxGeometry x="2150" y="1170" width="18" height="18" as="geometry" />
        </mxCell>
        <mxCell id="hNaM7XkKlE0wfAMFbM8I-493" value="&lt;b&gt;Smart Gyms App&lt;/b&gt;" style="text;html=1;strokeColor=none;fillColor=none;align=center;verticalAlign=middle;whiteSpace=wrap;rounded=0;" vertex="1" parent="1">
          <mxGeometry x="2180" y="1110" width="110" height="20" as="geometry" />
        </mxCell>
        <mxCell id="hNaM7XkKlE0wfAMFbM8I-494" value="&lt;b&gt;Fitness App&lt;/b&gt;" style="text;html=1;strokeColor=none;fillColor=none;align=center;verticalAlign=middle;whiteSpace=wrap;rounded=0;" vertex="1" parent="1">
          <mxGeometry x="2180" y="1141" width="110" height="20" as="geometry" />
        </mxCell>
        <mxCell id="hNaM7XkKlE0wfAMFbM8I-495" value="&lt;b&gt;Manuva App&lt;/b&gt;" style="text;html=1;strokeColor=none;fillColor=none;align=center;verticalAlign=middle;whiteSpace=wrap;rounded=0;" vertex="1" parent="1">
          <mxGeometry x="2180" y="1169" width="110" height="20" as="geometry" />
        </mxCell>
        <mxCell id="hNaM7XkKlE0wfAMFbM8I-496" value="" style="shape=image;html=1;verticalAlign=top;verticalLabelPosition=bottom;labelBackgroundColor=#ffffff;imageAspect=0;aspect=fixed;image=https://cdn4.iconfinder.com/data/icons/app-custom-ui-1/48/Information-128.png;fillColor=#FFFFFF;" vertex="1" parent="1">
          <mxGeometry x="2500" y="1108.5" width="21.5" height="21.5" as="geometry" />
        </mxCell>
        <mxCell id="hNaM7XkKlE0wfAMFbM8I-497" value="" style="shape=image;html=1;verticalAlign=top;verticalLabelPosition=bottom;labelBackgroundColor=#ffffff;imageAspect=0;aspect=fixed;image=https://cdn4.iconfinder.com/data/icons/app-custom-ui-1/48/Information-128.png;fillColor=#FFFFFF;" vertex="1" parent="1">
          <mxGeometry x="2500" y="1138.5" width="21.5" height="21.5" as="geometry" />
        </mxCell>
        <mxCell id="hNaM7XkKlE0wfAMFbM8I-498" value="" style="shape=image;html=1;verticalAlign=top;verticalLabelPosition=bottom;labelBackgroundColor=#ffffff;imageAspect=0;aspect=fixed;image=https://cdn4.iconfinder.com/data/icons/app-custom-ui-1/48/Information-128.png;fillColor=#FFFFFF;" vertex="1" parent="1">
          <mxGeometry x="2500" y="1168.5" width="21.5" height="21.5" as="geometry" />
        </mxCell>
        <mxCell id="hNaM7XkKlE0wfAMFbM8I-538" value="" style="rounded=0;whiteSpace=wrap;html=1;" vertex="1" parent="1">
          <mxGeometry x="863.5" y="1440" width="260" height="370" as="geometry" />
        </mxCell>
        <mxCell id="hNaM7XkKlE0wfAMFbM8I-539" value="" style="rounded=0;whiteSpace=wrap;html=1;" vertex="1" parent="1">
          <mxGeometry x="863.5" y="1440" width="260" height="30" as="geometry" />
        </mxCell>
        <mxCell id="hNaM7XkKlE0wfAMFbM8I-540" value="" style="points=[[0,0.58,0],[0.09,0.58,0],[0.36,0.39,0],[0.64,0.195,0],[0.91,0,0],[1,0,0],[1,0.25,0],[1,0.5,0],[1,0.75,0],[1,1,0],[0,1,0],[0.09,1,0],[0.36,1,0],[0.64,1,0],[0.91,1,0],[0,0.79,0]];verticalLabelPosition=bottom;html=1;verticalAlign=top;aspect=fixed;align=center;pointerEvents=1;shape=mxgraph.cisco19.wifi_indicator;fillColor=#005073;strokeColor=none;" vertex="1" parent="1">
          <mxGeometry x="873.5" y="1445" width="20" height="20" as="geometry" />
        </mxCell>
        <mxCell id="hNaM7XkKlE0wfAMFbM8I-541" value="" style="rounded=1;whiteSpace=wrap;html=1;" vertex="1" parent="1">
          <mxGeometry x="1083.5" y="1450" width="30" height="10" as="geometry" />
        </mxCell>
        <mxCell id="hNaM7XkKlE0wfAMFbM8I-542" value="" style="pointerEvents=1;shadow=0;dashed=0;html=1;strokeColor=none;fillColor=#434445;aspect=fixed;labelPosition=center;verticalLabelPosition=bottom;verticalAlign=top;align=center;outlineConnect=0;shape=mxgraph.vvd.wi_fi;" vertex="1" parent="1">
          <mxGeometry x="1053.5" y="1445" width="20" height="20" as="geometry" />
        </mxCell>
        <mxCell id="hNaM7XkKlE0wfAMFbM8I-543" value="History" style="rounded=0;whiteSpace=wrap;html=1;fillColor=#FFFFFF;" vertex="1" parent="1">
          <mxGeometry x="863.5" y="1470" width="260" height="60" as="geometry" />
        </mxCell>
        <mxCell id="hNaM7XkKlE0wfAMFbM8I-546" value="" style="rounded=0;whiteSpace=wrap;html=1;" vertex="1" parent="1">
          <mxGeometry x="863.5" y="1780" width="260" height="30" as="geometry" />
        </mxCell>
        <mxCell id="hNaM7XkKlE0wfAMFbM8I-547" value="" style="ellipse;whiteSpace=wrap;html=1;aspect=fixed;" vertex="1" parent="1">
          <mxGeometry x="978.5" y="1780" width="30" height="30" as="geometry" />
        </mxCell>
        <mxCell id="hNaM7XkKlE0wfAMFbM8I-548" value="" style="rounded=0;whiteSpace=wrap;html=1;" vertex="1" parent="1">
          <mxGeometry x="863.5" y="1730" width="260" height="50" as="geometry" />
        </mxCell>
        <mxCell id="hNaM7XkKlE0wfAMFbM8I-549" value="" style="pointerEvents=1;shadow=0;dashed=0;html=1;strokeColor=none;fillColor=#505050;labelPosition=center;verticalLabelPosition=bottom;verticalAlign=top;outlineConnect=0;align=center;shape=mxgraph.office.concepts.home;" vertex="1" parent="1">
          <mxGeometry x="873.5" y="1736" width="39" height="38" as="geometry" />
        </mxCell>
        <mxCell id="hNaM7XkKlE0wfAMFbM8I-550" value="" style="shape=image;html=1;verticalAlign=top;verticalLabelPosition=bottom;labelBackgroundColor=#ffffff;imageAspect=0;aspect=fixed;image=https://cdn1.iconfinder.com/data/icons/common-version-3-0/1024/calendar-128.png" vertex="1" parent="1">
          <mxGeometry x="940.5" y="1736" width="38" height="38" as="geometry" />
        </mxCell>
        <mxCell id="hNaM7XkKlE0wfAMFbM8I-551" value="" style="pointerEvents=1;shadow=0;dashed=0;html=1;strokeColor=none;labelPosition=center;verticalLabelPosition=bottom;verticalAlign=top;align=center;fillColor=#505050;shape=mxgraph.mscae.intune.user_group" vertex="1" parent="1">
          <mxGeometry x="1072.5" y="1739" width="40" height="34" as="geometry" />
        </mxCell>
        <mxCell id="hNaM7XkKlE0wfAMFbM8I-552" value="" style="shape=mxgraph.signs.food.restaurant_1;html=1;pointerEvents=1;fillColor=#000000;strokeColor=none;verticalLabelPosition=bottom;verticalAlign=top;align=center;" vertex="1" parent="1">
          <mxGeometry x="1013.5" y="1740" width="30" height="33" as="geometry" />
        </mxCell>
        <mxCell id="hNaM7XkKlE0wfAMFbM8I-575" value="" style="triangle;whiteSpace=wrap;html=1;fillColor=#FFFFFF;rotation=-180;" vertex="1" parent="1">
          <mxGeometry x="878.5" y="1490" width="10" height="20" as="geometry" />
        </mxCell>
        <mxCell id="hNaM7XkKlE0wfAMFbM8I-576" value="" style="shape=actor;whiteSpace=wrap;html=1;fontFamily=Helvetica;fontSize=12;fontColor=#000000;align=center;strokeColor=#000000;fillColor=#FFFFFF;" vertex="1" parent="1">
          <mxGeometry x="873.5" y="1535" width="40" height="40" as="geometry" />
        </mxCell>
        <mxCell id="hNaM7XkKlE0wfAMFbM8I-577" value="Text" style="text;html=1;strokeColor=none;fillColor=none;align=center;verticalAlign=middle;whiteSpace=wrap;rounded=0;" vertex="1" parent="1">
          <mxGeometry x="930" y="1545" width="40" height="20" as="geometry" />
        </mxCell>
        <mxCell id="hNaM7XkKlE0wfAMFbM8I-581" value="" style="line;strokeWidth=4;direction=south;html=1;fillColor=#FFFFFF;" vertex="1" parent="1">
          <mxGeometry x="880" y="1588.5" width="10" height="53" as="geometry" />
        </mxCell>
        <mxCell id="hNaM7XkKlE0wfAMFbM8I-582" value="" style="line;strokeWidth=4;html=1;perimeter=backbonePerimeter;points=[];outlineConnect=0;fillColor=#FFFFFF;" vertex="1" parent="1">
          <mxGeometry x="883.5" y="1636.5" width="160" height="10" as="geometry" />
        </mxCell>
        <mxCell id="hNaM7XkKlE0wfAMFbM8I-584" value="" style="endArrow=none;html=1;exitX=1;exitY=0.5;exitDx=0;exitDy=0;exitPerimeter=0;entryX=0.64;entryY=0.473;entryDx=0;entryDy=0;entryPerimeter=0;" edge="1" parent="1" source="hNaM7XkKlE0wfAMFbM8I-581" target="hNaM7XkKlE0wfAMFbM8I-538">
          <mxGeometry width="50" height="50" relative="1" as="geometry">
            <mxPoint x="940" y="1630" as="sourcePoint" />
            <mxPoint x="990" y="1580" as="targetPoint" />
            <Array as="points">
              <mxPoint x="900" y="1610" />
              <mxPoint x="940" y="1630" />
              <mxPoint x="960" y="1590" />
              <mxPoint x="980" y="1630" />
              <mxPoint x="1000" y="1590" />
            </Array>
          </mxGeometry>
        </mxCell>
        <mxCell id="hNaM7XkKlE0wfAMFbM8I-585" value="" style="whiteSpace=wrap;html=1;aspect=fixed;fillColor=#FFFFFF;fontColor=#FFFFFF;" vertex="1" parent="1">
          <mxGeometry x="883.5" y="1670" width="36.5" height="36.5" as="geometry" />
        </mxCell>
        <mxCell id="hNaM7XkKlE0wfAMFbM8I-586" value="" style="endArrow=none;html=1;fontColor=#FFFFFF;exitX=1;exitY=0;exitDx=0;exitDy=0;entryX=0;entryY=1;entryDx=0;entryDy=0;" edge="1" parent="1" source="hNaM7XkKlE0wfAMFbM8I-585" target="hNaM7XkKlE0wfAMFbM8I-585">
          <mxGeometry width="50" height="50" relative="1" as="geometry">
            <mxPoint x="645" y="1819.5" as="sourcePoint" />
            <mxPoint x="695" y="1769.5" as="targetPoint" />
            <Array as="points" />
          </mxGeometry>
        </mxCell>
        <mxCell id="hNaM7XkKlE0wfAMFbM8I-587" value="" style="endArrow=none;html=1;fontColor=#FFFFFF;exitX=0;exitY=0;exitDx=0;exitDy=0;entryX=1;entryY=1;entryDx=0;entryDy=0;" edge="1" parent="1" source="hNaM7XkKlE0wfAMFbM8I-585" target="hNaM7XkKlE0wfAMFbM8I-585">
          <mxGeometry width="50" height="50" relative="1" as="geometry">
            <mxPoint x="950" y="1650" as="sourcePoint" />
            <mxPoint x="885" y="1715" as="targetPoint" />
          </mxGeometry>
        </mxCell>
        <mxCell id="hNaM7XkKlE0wfAMFbM8I-588" value="" style="whiteSpace=wrap;html=1;aspect=fixed;fillColor=#FFFFFF;fontColor=#FFFFFF;" vertex="1" parent="1">
          <mxGeometry x="968.5" y="1670" width="36.5" height="36.5" as="geometry" />
        </mxCell>
        <mxCell id="hNaM7XkKlE0wfAMFbM8I-589" value="" style="endArrow=none;html=1;fontColor=#FFFFFF;exitX=1;exitY=0;exitDx=0;exitDy=0;entryX=0;entryY=1;entryDx=0;entryDy=0;" edge="1" parent="1" source="hNaM7XkKlE0wfAMFbM8I-588" target="hNaM7XkKlE0wfAMFbM8I-588">
          <mxGeometry width="50" height="50" relative="1" as="geometry">
            <mxPoint x="730" y="1819.5" as="sourcePoint" />
            <mxPoint x="780" y="1769.5" as="targetPoint" />
            <Array as="points" />
          </mxGeometry>
        </mxCell>
        <mxCell id="hNaM7XkKlE0wfAMFbM8I-590" value="" style="endArrow=none;html=1;fontColor=#FFFFFF;exitX=0;exitY=0;exitDx=0;exitDy=0;entryX=1;entryY=1;entryDx=0;entryDy=0;" edge="1" parent="1" source="hNaM7XkKlE0wfAMFbM8I-588" target="hNaM7XkKlE0wfAMFbM8I-588">
          <mxGeometry width="50" height="50" relative="1" as="geometry">
            <mxPoint x="1035" y="1650" as="sourcePoint" />
            <mxPoint x="970" y="1715" as="targetPoint" />
          </mxGeometry>
        </mxCell>
        <mxCell id="hNaM7XkKlE0wfAMFbM8I-591" value="" style="whiteSpace=wrap;html=1;aspect=fixed;fillColor=#FFFFFF;fontColor=#FFFFFF;" vertex="1" parent="1">
          <mxGeometry x="1054.75" y="1670" width="36.5" height="36.5" as="geometry" />
        </mxCell>
        <mxCell id="hNaM7XkKlE0wfAMFbM8I-592" value="" style="endArrow=none;html=1;fontColor=#FFFFFF;exitX=1;exitY=0;exitDx=0;exitDy=0;entryX=0;entryY=1;entryDx=0;entryDy=0;" edge="1" parent="1" source="hNaM7XkKlE0wfAMFbM8I-591" target="hNaM7XkKlE0wfAMFbM8I-591">
          <mxGeometry width="50" height="50" relative="1" as="geometry">
            <mxPoint x="816.25" y="1819.5" as="sourcePoint" />
            <mxPoint x="866.25" y="1769.5" as="targetPoint" />
            <Array as="points" />
          </mxGeometry>
        </mxCell>
        <mxCell id="hNaM7XkKlE0wfAMFbM8I-593" value="" style="endArrow=none;html=1;fontColor=#FFFFFF;exitX=0;exitY=0;exitDx=0;exitDy=0;entryX=1;entryY=1;entryDx=0;entryDy=0;" edge="1" parent="1" source="hNaM7XkKlE0wfAMFbM8I-591" target="hNaM7XkKlE0wfAMFbM8I-591">
          <mxGeometry width="50" height="50" relative="1" as="geometry">
            <mxPoint x="1121.25" y="1650" as="sourcePoint" />
            <mxPoint x="1056.25" y="1715" as="targetPoint" />
          </mxGeometry>
        </mxCell>
      </root>
    </mxGraphModel>
  </diagram>
</mxfile>
